<svg xmlns="http://www.w3.org/2000/svg" width="428.789" height="596.917" viewBox="0 0 428.789 596.917">
  <g id="Group_9570" data-name="Group 9570" transform="translate(-594.705 -2229)">
    <path id="Path_5496" data-name="Path 5496" d="M0,0V115.576" transform="translate(596.705 2231)" fill="none" stroke="#e5e5e5" stroke-linecap="round" stroke-width="4" stroke-dasharray="8"/>
    <path id="Path_5497" data-name="Path 5497" d="M0,0V419.414" transform="translate(1021.494 2231) rotate(90)" fill="none" stroke="#e5e5e5" stroke-linecap="round" stroke-width="4" stroke-dasharray="8"/>
    <path id="Path_5498" data-name="Path 5498" d="M0,0V424.789" transform="translate(1021.494 2348.023) rotate(90)" fill="none" stroke="#e5e5e5" stroke-linecap="round" stroke-width="4" stroke-dasharray="8"/>
    <path id="Path_5499" data-name="Path 5499" d="M0,0V61.977" transform="translate(1021.494 2349.023)" fill="none" stroke="#e5e5e5" stroke-linecap="round" stroke-width="4" stroke-dasharray="8"/>
    <path id="Path_5501" data-name="Path 5501" d="M0,0V419.414" transform="translate(1021.494 2411) rotate(90)" fill="none" stroke="#e5e5e5" stroke-linecap="round" stroke-width="4" stroke-dasharray="8"/>
    <path id="Path_5502" data-name="Path 5502" d="M0,0V115.576" transform="translate(596.705 2412.447)" fill="none" stroke="#e5e5e5" stroke-linecap="round" stroke-width="4" stroke-dasharray="8"/>
    <path id="Path_5504" data-name="Path 5504" d="M0,0V419.414" transform="translate(1021.494 2529.47) rotate(90)" fill="none" stroke="#e5e5e5" stroke-linecap="round" stroke-width="4" stroke-dasharray="8"/>
    <path id="Path_5505" data-name="Path 5505" d="M0,0V60.977" transform="translate(1021.494 2530.47)" fill="none" stroke="#e5e5e5" stroke-linecap="round" stroke-width="4" stroke-dasharray="8"/>
    <path id="Path_5506" data-name="Path 5506" d="M0,0V419.295" transform="translate(1018.805 2591.447) rotate(90)" fill="none" stroke="#e5e5e5" stroke-linecap="round" stroke-width="4" stroke-dasharray="8"/>
    <path id="Path_5507" data-name="Path 5507" d="M0,0V230.808" transform="translate(596.705 2593.109)" fill="none" stroke="#e5e5e5" stroke-linecap="round" stroke-width="4" stroke-dasharray="8"/>
    <path id="Path_5508" data-name="Path 5508" d="M0,0V421.984" transform="translate(1021.494 2823.917) rotate(90)" fill="none" stroke="#e5e5e5" stroke-linecap="round" stroke-width="4" stroke-dasharray="8"/>
  </g>
</svg>
