<svg id="Layer_1" data-name="Layer 1" xmlns="http://www.w3.org/2000/svg" viewBox="0 0 690 731"><defs><style>.cls-1{fill:#fff;stroke:#fff;stroke-miterlimit:10;}</style></defs><path class="cls-1" d="M443.94,341V304.69a92.91,92.91,0,0,0-185.82,0V341c0,.26-.37,32.34-16,63.68A20.19,20.19,0,0,0,260.14,434h51.92A38.59,38.59,0,0,0,310.64,444a40.39,40.39,0,1,0,80.78,0A38.59,38.59,0,0,0,390,434h51.92A20.19,20.19,0,0,0,460,404.72C444.37,373.5,443.94,341.36,443.94,341ZM351,464.24a20.22,20.22,0,0,1-20.2-20.2A19.63,19.63,0,0,1,333.94,434h34.18A19.63,19.63,0,0,1,371.23,444,20.22,20.22,0,0,1,351,464.24Zm-90.89-50.49C278.32,377.4,278.32,341,278.32,341V304.69a72.71,72.71,0,0,1,145.42,0V341s0,36.36,18.18,72.71Z"/><path class="cls-1" d="M487.37,229.57l-17,10.8a140.27,140.27,0,0,1,0,151.1l17,10.79a160.28,160.28,0,0,0,0-172.69Z"/><path class="cls-1" d="M214.69,229.57a160.31,160.31,0,0,0,0,172.69l17-10.79a140.27,140.27,0,0,1,0-151.1Z"/><path class="cls-1" d="M521.45,208l-17,10.8a180.38,180.38,0,0,1,0,194.28l17,10.79a200.4,200.4,0,0,0,0-215.87Z"/><path class="cls-1" d="M197.66,218.78l-17-10.8a200.4,200.4,0,0,0,0,215.87l17-10.79a180.36,180.36,0,0,1,0-194.28Z"/></svg>