<svg width="14" height="15" viewBox="0 0 14 15" fill="none" xmlns="http://www.w3.org/2000/svg">
<path fill-rule="evenodd" clip-rule="evenodd" d="M8.82 1.4335L12.5267 4.1735C13.2378 4.69035 13.661 5.51441 13.6667 6.3935V11.3535C13.6267 12.949 12.3022 14.2108 10.7067 14.1735H3.29334C1.69777 14.2108 0.373352 12.949 0.333336 11.3535V6.40017C0.337405 5.51726 0.763631 4.68959 1.48 4.1735L5.18 1.4335C6.26424 0.641959 7.73576 0.641959 8.82 1.4335ZM10.7067 13.1735C11.7501 13.211 12.6269 12.3968 12.6667 11.3535V6.3935C12.6632 5.8304 12.3875 5.30378 11.9267 4.98016L8.22667 2.24016C7.49594 1.70655 6.50407 1.70655 5.77334 2.24016L2.07334 4.9735C1.61212 5.30283 1.33689 5.83344 1.33334 6.40016V11.3535C1.37668 12.3952 2.25132 13.2073 3.29334 13.1735H10.7067Z" fill="#DBDDDF"/>
</svg>
