<svg width="63" height="63" viewBox="0 0 63 63" fill="none" xmlns="http://www.w3.org/2000/svg">
<rect x="0.5" y="0.359375" width="62" height="62" rx="15" fill="#029155"/>
<path d="M50.7501 41.7019C50.7851 43.0144 50.435 44.257 49.805 45.3245C49.455 45.9545 48.9826 46.532 48.4576 47.0045C47.2501 48.1245 45.6575 48.807 43.89 48.8595C41.335 48.912 39.0775 47.5995 37.835 45.587C37.17 44.5545 36.7676 43.312 36.7501 41.9995C36.6976 39.7945 37.6775 37.7995 39.2525 36.487C40.4425 35.507 41.9476 34.8945 43.5926 34.8595C47.4601 34.772 50.6626 37.8344 50.7501 41.7019Z" stroke="#FDFEFF" stroke-width="1.5" stroke-miterlimit="10" stroke-linecap="round" stroke-linejoin="round"/>
<path d="M41.0205 41.912L42.788 43.5919L46.4455 40.0569" stroke="#FDFEFF" stroke-width="1.5" stroke-linecap="round" stroke-linejoin="round"/>
<g opacity="0.4">
<path d="M16.0469 23.3794L31.4994 32.3219L46.8468 23.4318" stroke="#FDFEFF" stroke-width="1.5" stroke-linecap="round" stroke-linejoin="round"/>
<path d="M31.5 48.177V32.3044" stroke="#FDFEFF" stroke-width="1.5" stroke-linecap="round" stroke-linejoin="round"/>
<path d="M48.3176 26.4069V36.3119C48.3176 36.3994 48.3176 36.4694 48.3001 36.5569C47.0751 35.4894 45.5001 34.8594 43.7501 34.8594C42.1051 34.8594 40.5826 35.4369 39.3751 36.3994C37.7651 37.6769 36.7501 39.6544 36.7501 41.8594C36.7501 43.1719 37.1176 44.4144 37.7651 45.4644C37.9226 45.7444 38.1151 46.0069 38.3251 46.2519L35.1226 48.0194C33.1276 49.1394 29.8726 49.1394 27.8776 48.0194L18.5326 42.8394C16.4151 41.6669 14.6826 38.7269 14.6826 36.3119V26.4069C14.6826 23.9919 16.4151 21.0519 18.5326 19.8794L27.8776 14.6994C29.8726 13.5794 33.1276 13.5794 35.1226 14.6994L44.4676 19.8794C46.5851 21.0519 48.3176 23.9919 48.3176 26.4069Z" stroke="#FDFEFF" stroke-width="1.5" stroke-linecap="round" stroke-linejoin="round"/>
</g>
</svg>
