<svg width="65" height="64" viewBox="0 0 65 64" fill="none" xmlns="http://www.w3.org/2000/svg">
<rect x="0.247986" y="0.5" width="64.5273" height="63" rx="15" fill="#029155"/>
<path d="M31.7483 50.8125C34.9888 50.8125 38.1742 49.9755 40.9961 48.3826C43.818 46.7897 46.1806 44.4949 47.8549 41.7206C49.5293 38.9462 50.4586 35.7864 50.5529 32.5474C50.6471 29.3083 49.9031 26.0998 48.393 23.2328C48.3087 23.0768 48.1662 22.9604 47.9964 22.9091C47.8267 22.8577 47.6435 22.8755 47.4869 22.9587C47.3302 23.0418 47.2128 23.1835 47.1602 23.3528C47.1076 23.5222 47.1241 23.7055 47.206 23.8627C48.5288 26.371 49.2191 29.1643 49.2171 32C48.2597 55.171 15.2368 55.1713 14.2796 31.9999C14.1178 19.045 28.5235 10.3618 39.8857 16.5425C40.0432 16.626 40.2273 16.6436 40.3977 16.5913C40.5681 16.539 40.7107 16.4212 40.7942 16.2638C40.8777 16.1064 40.8953 15.9222 40.843 15.7518C40.7908 15.5815 40.6729 15.4388 40.5155 15.3553C37.8132 13.9298 34.8036 13.1856 31.7483 13.1875C6.7946 14.2185 6.79489 49.7819 31.7483 50.8125Z" fill="#FDFEFF"/>
<path d="M31.7483 26.6251C32.3301 26.6247 32.9078 26.7213 33.4579 26.9108C33.6263 26.9688 33.8109 26.9576 33.971 26.8795C34.1312 26.8014 34.2538 26.663 34.3118 26.4945C34.607 25.306 32.5144 25.3534 31.7484 25.2812C22.8361 25.6496 22.8365 38.3509 31.7484 38.7189C33.5297 38.7169 35.2375 38.0083 36.497 36.7488C37.7566 35.4892 38.4651 33.7814 38.4671 32.0001C38.3985 31.2202 38.4439 29.1494 37.2605 29.4434C37.1771 29.4721 37.1001 29.517 37.034 29.5754C36.9679 29.6339 36.914 29.7048 36.8753 29.7841C36.8367 29.8634 36.814 29.9496 36.8086 30.0377C36.8033 30.1258 36.8154 30.214 36.8441 30.2974C37.0311 30.8455 37.1255 31.421 37.1233 32.0001C36.8539 39.1197 26.6427 39.12 26.3733 32C26.375 30.575 26.9418 29.2088 27.9495 28.2012C28.9571 27.1935 30.3233 26.6267 31.7483 26.6251Z" fill="#FDFEFF"/>
<path d="M38.1813 21.7437C38.2241 21.6666 38.2513 21.5817 38.2613 21.4941C38.2713 21.4064 38.264 21.3176 38.2396 21.2328C38.2153 21.148 38.1746 21.0688 38.1196 20.9998C38.0647 20.9307 37.9967 20.8732 37.9195 20.8304C36.0306 19.7849 33.9073 19.2357 31.7483 19.2344C14.8155 19.9342 14.8157 44.0661 31.7484 44.7656C33.9691 44.7669 36.1516 44.1886 38.0802 43.0878C40.0088 41.987 41.6167 40.4019 42.7448 38.4891C43.873 36.5764 44.4824 34.4024 44.5128 32.1819C44.5431 29.9615 43.9934 27.7716 42.9179 25.8288C42.8753 25.7512 42.8179 25.6829 42.7488 25.6276C42.6797 25.5724 42.6004 25.5313 42.5155 25.5067C42.4305 25.4822 42.3415 25.4747 42.2536 25.4846C42.1657 25.4946 42.0807 25.5218 42.0033 25.5646C41.9259 25.6075 41.8578 25.6653 41.8028 25.7346C41.7479 25.8038 41.7071 25.8833 41.6829 25.9684C41.6587 26.0534 41.6515 26.1425 41.6618 26.2303C41.6721 26.3182 41.6996 26.4031 41.7428 26.4803C46.0015 33.8661 40.2805 43.5698 31.7481 43.4217C28.7199 43.4184 25.8167 42.2139 23.6755 40.0727C21.5342 37.9314 20.3298 35.0282 20.3264 32C20.1801 23.4679 29.8812 17.7462 37.2681 22.0057C37.3452 22.0487 37.4301 22.0759 37.5178 22.086C37.6055 22.0961 37.6943 22.0887 37.7791 22.0644C37.864 22.04 37.9432 21.9992 38.0122 21.9442C38.0812 21.8891 38.1387 21.821 38.1813 21.7437Z" fill="#FDFEFF"/>
<path d="M39.4906 19.8378L39.7374 23.0603L31.273 31.5248C31.1513 31.6516 31.0841 31.8211 31.0859 31.997C31.0877 32.1728 31.1584 32.3408 31.2827 32.4652C31.407 32.5895 31.5751 32.6601 31.7509 32.6619C31.9267 32.6637 32.0962 32.5965 32.2231 32.4748L40.6875 24.0104L43.91 24.2572C44.0066 24.2645 44.1036 24.251 44.1944 24.2173C44.2853 24.1837 44.3677 24.1308 44.4362 24.0623L49.3263 19.1725C49.4153 19.0809 49.4765 18.966 49.5029 18.841C49.5293 18.716 49.5198 18.5861 49.4754 18.4664C49.4311 18.3466 49.3537 18.2418 49.2523 18.1642C49.1509 18.0865 49.0296 18.0392 48.9024 18.0276L45.9466 17.8012L45.7202 14.8453C45.7086 14.7182 45.6612 14.5969 45.5835 14.4955C45.5059 14.3942 45.4011 14.3169 45.2813 14.2725C45.1616 14.2282 45.0317 14.2187 44.9068 14.245C44.7819 14.2714 44.6669 14.3326 44.5753 14.4215L39.6855 19.3116C39.617 19.38 39.5641 19.4625 39.5304 19.5533C39.4968 19.6442 39.4832 19.7412 39.4906 19.8378ZM44.492 16.4049C44.7609 19.5339 44.2317 18.9831 47.3429 19.2558L43.7046 22.8937L41.0568 22.691L40.8541 20.0432L44.492 16.4049Z" fill="#66BC99"/>
</svg>
