<svg width="63" height="63" viewBox="0 0 63 63" fill="none" xmlns="http://www.w3.org/2000/svg">
<rect x="0.5" y="0.359375" width="62" height="62" rx="15" fill="#029155"/>
<path d="M48.4053 28.6293L46.6903 35.9443C45.2203 42.2618 42.3153 44.8168 36.8553 44.2918C35.9803 44.2218 35.0353 44.0643 34.0203 43.8193L31.0803 43.1193C23.7828 41.3868 21.5253 37.7818 23.2403 30.4668L24.9553 23.1343C25.3053 21.6468 25.7253 20.3518 26.2503 19.2843C28.2978 15.0493 31.7803 13.9118 37.6253 15.2943L40.5478 15.9768C47.8803 17.6918 50.1203 21.3143 48.4053 28.6293Z" stroke="#FDFEFF" stroke-width="1.5" stroke-linecap="round" stroke-linejoin="round"/>
<path opacity="0.4" d="M36.8551 44.2919C35.7701 45.0269 34.4051 45.6394 32.7426 46.1819L29.9776 47.0919C23.0301 49.3319 19.3726 47.4594 17.1151 40.5119L14.8751 33.5994C12.6351 26.6519 14.4901 22.9769 21.4376 20.7369L24.2026 19.8269C24.9201 19.5994 25.6026 19.4069 26.2501 19.2844C25.7251 20.3519 25.3051 21.6469 24.9551 23.1344L23.2401 30.4669C21.5251 37.7819 23.7826 41.3869 31.0801 43.1194L34.0201 43.8194C35.0351 44.0644 35.9801 44.2219 36.8551 44.2919Z" stroke="#FDFEFF" stroke-width="1.5" stroke-linecap="round" stroke-linejoin="round"/>
<path opacity="0.4" d="M32.6201 25.2869L41.1076 27.4394" stroke="#FDFEFF" stroke-width="1.5" stroke-linecap="round" stroke-linejoin="round"/>
<path opacity="0.4" d="M30.9053 32.0593L35.9803 33.3543" stroke="#FDFEFF" stroke-width="1.5" stroke-linecap="round" stroke-linejoin="round"/>
</svg>
