<svg width="62" height="62" viewBox="0 0 62 62" fill="none" xmlns="http://www.w3.org/2000/svg">
<rect width="62" height="62" rx="15" fill="#029155"/>
<path d="M48.5 25.75V36.25C48.5 36.635 48.5 37.02 48.465 37.3875C47.03 35.62 44.8425 34.5 42.375 34.5C40.52 34.5 38.805 35.1475 37.4575 36.2325C35.6375 37.6675 34.5 39.89 34.5 42.375C34.5 44.8425 35.62 47.03 37.3875 48.465C37.02 48.5 36.635 48.5 36.25 48.5H25.75C17 48.5 13.5 45 13.5 36.25V25.75C13.5 17 17 13.5 25.75 13.5H36.25C45 13.5 48.5 17 48.5 25.75Z" stroke="#FDFEFF" stroke-width="1.5" stroke-linecap="round" stroke-linejoin="round"/>
<g opacity="0.4">
<path d="M14.4102 22.4425H47.5902" stroke="#FDFEFF" stroke-width="1.5" stroke-linecap="round" stroke-linejoin="round"/>
<path d="M24.9102 13.6925V22.1975" stroke="#FDFEFF" stroke-width="1.5" stroke-linecap="round" stroke-linejoin="round"/>
<path d="M37.0898 13.6925V21.4101" stroke="#FDFEFF" stroke-width="1.5" stroke-linecap="round" stroke-linejoin="round"/>
</g>
<path d="M50.25 42.375C50.25 44.7375 49.2 46.8375 47.5725 48.29C46.1725 49.4975 44.37 50.25 42.375 50.25C40.485 50.25 38.735 49.585 37.3875 48.465C35.62 47.03 34.5 44.8425 34.5 42.375C34.5 39.89 35.6375 37.6675 37.4575 36.2325C38.805 35.1475 40.52 34.5 42.375 34.5C44.8425 34.5 47.03 35.62 48.465 37.3875C49.585 38.735 50.25 40.485 50.25 42.375Z" stroke="#FDFEFF" stroke-width="1.5" stroke-miterlimit="10" stroke-linecap="round" stroke-linejoin="round"/>
<path opacity="0.4" d="M42.865 39.9076V42.8651L40.415 44.335" stroke="#FDFEFF" stroke-width="1.5" stroke-miterlimit="10" stroke-linecap="round" stroke-linejoin="round"/>
</svg>
