<svg width="57" height="57" viewBox="0 0 57 57" fill="none" xmlns="http://www.w3.org/2000/svg">
<rect x="0.25" width="56.5" height="56.5" rx="15" fill="#029155"/>
<path d="M31.494 39.2809C30.2356 40.1332 28.8571 40.8367 27.4043 41.3801C27.1812 41.4602 27.0668 41.7119 27.1526 41.9292C27.2155 42.1008 27.3814 42.2095 27.553 42.2095C27.6045 42.2095 27.6502 42.2038 27.7017 42.1809C29.2232 41.6146 30.6589 40.8768 31.9745 39.9902C32.169 39.8586 32.2204 39.5898 32.0889 39.3953C31.9573 39.2008 31.6885 39.1493 31.494 39.2809Z" fill="white"/>
<path d="M35.0659 43.3762C36.9249 42.2722 38.3034 40.9109 39.1328 39.9614C39.2872 39.7841 39.2701 39.5095 39.0928 39.3551C38.9154 39.2006 38.6409 39.2178 38.4864 39.3951C37.7028 40.2989 36.3929 41.5916 34.6312 42.6383C34.4253 42.7584 34.3624 43.0215 34.4825 43.2275C34.5626 43.3647 34.7056 43.4391 34.8543 43.4391C34.9229 43.4334 34.9973 43.4162 35.0659 43.3762Z" fill="white"/>
<path d="M42.1501 39.2809C42.3503 38.972 42.3961 38.5831 42.2703 38.2399C41.7955 36.9643 41.029 35.7917 40.0509 34.8422C39.8279 34.6249 39.5361 34.5162 39.2273 34.5276C39.1701 34.2302 38.9985 33.9556 38.7239 33.7669C37.4655 32.9203 36.0012 32.3884 34.4912 32.2397C34.0679 32.1939 33.6675 32.3941 33.433 32.7487C32.5921 32.703 31.8371 32.171 31.534 31.3874C31.3395 30.8955 31.1793 30.3292 31.0192 29.2824C33.4044 28.2357 35.2519 25.7761 35.9154 22.7045C37.0136 22.6473 37.8888 21.7436 37.8888 20.6339C37.8888 19.7302 37.3225 18.958 36.4989 18.672C36.9336 16.0065 36.6476 14.1075 35.618 13.0321C34.8058 12.1856 33.7819 12.0941 33.2442 12.1169C32.2718 9.94336 29.4347 9.94336 28.4738 9.94336C24.9503 9.94336 22.4965 10.9157 21.1866 12.8319C19.8767 14.7538 20.0255 17.1562 20.34 18.7235C19.5793 19.0438 19.0645 19.7759 19.0645 20.6339C19.0645 21.7436 19.9397 22.6416 21.0379 22.7045C21.7014 25.7761 23.5489 28.2414 25.9341 29.2882C25.7625 30.3978 25.5852 30.9584 25.4193 31.3931C25.1048 32.2168 24.2925 32.7659 23.4002 32.7659C18.584 32.7659 14.6602 36.684 14.6602 41.5059V46.1219C14.6602 46.3564 14.8546 46.5509 15.0892 46.5509C15.3237 46.5509 15.5181 46.3564 15.5181 46.1219V41.5059C15.5181 37.1588 19.0531 33.6239 23.4002 33.6239C24.6414 33.6239 25.774 32.8517 26.2201 31.702C26.3917 31.2501 26.5805 30.6781 26.7521 29.5913C27.3069 29.7515 27.8789 29.843 28.4681 29.843C29.0629 29.843 29.6349 29.7515 30.1898 29.5913C30.3614 30.6838 30.5501 31.2558 30.7274 31.7077C31.1107 32.6858 31.9915 33.3894 33.0154 33.5724C31.9286 35.5915 28.9886 39.0921 21.5298 40.3734V40.076C21.5298 39.8414 21.3353 39.647 21.1008 39.647C20.8663 39.647 20.6718 39.8414 20.6718 40.076V46.1276C20.6718 46.3622 20.8663 46.5566 21.1008 46.5566C21.3353 46.5566 21.5298 46.3622 21.5298 46.1276V45.5557C32.6207 44.6519 37.5628 37.9367 38.9756 35.5458C39.0271 35.46 39.1129 35.4028 39.2101 35.3913C39.2616 35.3856 39.3645 35.3856 39.4561 35.4714C40.3426 36.3294 41.0405 37.399 41.4695 38.5545C41.5038 38.646 41.4924 38.7432 41.4352 38.8233C41.2464 39.115 41.029 39.4182 40.7945 39.727C39.5647 41.3629 36.8764 44.3201 32.718 45.7215C32.4949 45.7959 32.3748 46.0418 32.4491 46.2649C32.5063 46.4365 32.6722 46.5509 32.8495 46.5509C32.8953 46.5509 32.9411 46.5452 32.9868 46.528C37.231 45.0981 40.0109 42.1409 41.3494 40.3963C41.4008 40.7624 41.4294 41.1284 41.4294 41.5002V46.1162C41.4294 46.3507 41.6239 46.5452 41.8584 46.5452C42.0929 46.5452 42.2874 46.3507 42.2874 46.1162V41.5002C42.2874 40.8024 42.2016 40.1103 42.0415 39.441C42.0758 39.3896 42.1158 39.3381 42.1501 39.2809ZM37.0308 20.6339C37.0308 21.2173 36.619 21.7035 36.0641 21.8294C36.1328 21.3146 36.1785 20.7941 36.1785 20.2564C36.2357 20.0104 36.2815 19.7759 36.333 19.5357C36.7505 19.7359 37.0308 20.1534 37.0308 20.6339ZM21.8959 13.3124C23.0341 11.6479 25.2477 10.8013 28.4738 10.8013C30.7961 10.8013 32.1345 11.4248 32.5578 12.7118C32.6265 12.9177 32.8324 13.0378 33.044 12.9978C33.0898 12.9921 34.2109 12.7919 35.006 13.6327C35.5551 14.2104 36.0584 15.4116 35.7495 17.8998C35.2004 16.5442 34.1651 15.6519 32.9582 15.6519C32.4205 15.6519 31.7341 15.7091 31.145 16.1438C30.3042 16.7672 29.5892 17.0761 28.9085 17.1162C28.6168 17.1333 28.3194 17.1333 28.0276 17.1162C27.3355 17.0761 26.6263 16.7672 25.8026 16.1495C25.1905 15.7033 24.4698 15.6519 23.9779 15.6519C22.731 15.6519 21.6442 16.67 21.1122 18.1515C20.8949 16.7444 20.8663 14.8167 21.8959 13.3124ZM19.9225 20.6339C19.9225 20.182 20.1684 19.7816 20.5402 19.57C20.6375 19.9189 20.7233 20.1706 20.769 20.2907C20.7748 20.8169 20.8148 21.326 20.8834 21.8294C20.3343 21.7093 19.9225 21.2173 19.9225 20.6339ZM21.627 20.2164V20.2106C21.627 18.2029 22.7024 16.5098 23.9779 16.5098C24.5728 16.5098 24.9789 16.6128 25.2935 16.8416C26.2602 17.5623 27.1124 17.9227 27.9819 17.9741C28.3079 17.9913 28.6397 17.9913 28.96 17.9741C30.0868 17.9055 31.042 17.2878 31.6598 16.8302C31.9629 16.6014 32.3519 16.5041 32.9582 16.5041C34.2624 16.5041 35.3205 18.1629 35.3205 20.2049V20.2106C35.3148 25.044 32.2432 28.9678 28.4681 28.9678C24.6986 28.9793 21.6328 25.0497 21.627 20.2164ZM21.5298 44.6862V41.2371C29.4691 39.9215 32.615 36.1292 33.7819 33.9671C33.902 33.7383 33.9935 33.5438 34.0679 33.3722C34.0679 33.3665 34.0736 33.3665 34.0736 33.3608C34.0793 33.3436 34.0965 33.315 34.1022 33.2978C34.1594 33.172 34.2795 33.0919 34.3996 33.0976C35.7667 33.2349 37.0937 33.7097 38.2377 34.4819C38.3807 34.5791 38.4265 34.7621 38.3464 34.9051C37.1681 36.9872 32.4892 43.7653 21.5298 44.6862Z" fill="white"/>
</svg>
