<svg width="63" height="63" viewBox="0 0 63 63" fill="none" xmlns="http://www.w3.org/2000/svg">
<rect x="0.499878" y="0.5" width="62" height="62" rx="15" fill="#029155"/>
<g clip-path="url(#clip0_3158_31584)">
<path d="M15.014 44.3116C14.6611 44.3104 14.3748 44.5811 14.3748 44.9162C14.3748 46.9739 15.5318 48.1575 16.6505 48.6734C17.7692 49.1924 18.8624 49.1621 18.8624 49.1621H39.3186V47.9542C39.3186 47.9542 38.5004 47.9423 37.6949 47.5596C36.8894 47.1766 36.1287 46.5338 36.1287 44.9132C36.1273 44.5799 35.843 44.3098 35.492 44.3086L15.014 44.3116ZM15.8131 45.5256H34.9908C35.1564 46.6303 35.616 47.4133 36.2566 47.9535H18.8048C18.8048 47.9535 17.9738 47.9587 17.1747 47.5863C16.5099 47.2762 15.8387 46.5848 15.7747 45.5226L15.8131 45.5256Z" fill="#FDFEFF"/>
<path d="M18.8251 13.9599C18.7411 13.9602 18.6581 13.9762 18.5806 14.007C18.5032 14.0378 18.4329 14.0827 18.3738 14.1393C18.3146 14.1959 18.2678 14.263 18.236 14.3367C18.2041 14.4105 18.1879 14.4895 18.1882 14.5692V44.804C18.1879 44.8837 18.2041 44.9627 18.236 45.0365C18.2678 45.1102 18.3146 45.1773 18.3738 45.2339C18.4329 45.2905 18.5032 45.3354 18.5806 45.3662C18.6581 45.397 18.7411 45.413 18.8251 45.4133H34.9633C35.2007 46.9983 36.0802 48.0703 37.05 48.5284C38.1596 49.0552 39.25 49.0437 39.25 49.0437C39.25 49.0437 40.3403 49.0561 41.45 48.5284C42.5597 48.0016 43.72 46.8219 43.72 44.7948V42.3669C43.7197 42.2872 43.7028 42.2083 43.6704 42.1348C43.638 42.0613 43.5906 41.9945 43.531 41.9384C43.4714 41.8822 43.4008 41.8377 43.3231 41.8075C43.2454 41.7773 43.1622 41.7619 43.0783 41.7622C42.9096 41.7628 42.748 41.8267 42.6287 41.94C42.5094 42.0532 42.4421 42.2067 42.4415 42.3669V44.7948C42.4415 46.4119 41.6816 47.051 40.8783 47.4289C40.075 47.8069 39.2476 47.8229 39.2476 47.8229C39.2476 47.8229 38.4274 47.8115 37.6217 47.4289C36.816 47.0464 36.0585 46.4051 36.0585 44.7948C36.0579 44.6346 35.9906 44.4812 35.8713 44.3679C35.752 44.2546 35.5904 44.1907 35.4217 44.1901H19.4523V15.1006H42.4415V37.5247C42.4421 37.6849 42.5094 37.8384 42.6287 37.9517C42.748 38.0649 42.9096 38.1288 43.0783 38.1294C43.1622 38.1297 43.2454 38.1143 43.3231 38.0841C43.4008 38.0539 43.4714 38.0094 43.531 37.9533C43.5906 37.8971 43.638 37.8304 43.6704 37.7568C43.7028 37.6833 43.7197 37.6045 43.72 37.5247V14.3905C43.7203 14.3104 43.7039 14.2311 43.6718 14.157C43.6396 14.083 43.5924 14.0157 43.5327 13.959C43.4731 13.9024 43.4022 13.8575 43.3242 13.827C43.2462 13.7965 43.1627 13.781 43.0783 13.7813H18.7141L18.8251 13.9599Z" fill="#FDFEFF"/>
<path d="M43.1171 39.4023C42.9484 39.403 42.7868 39.4669 42.6675 39.5801C42.5482 39.6934 42.4809 39.8469 42.4802 40.007C42.4799 40.0868 42.4961 40.1657 42.528 40.2395C42.5598 40.3133 42.6066 40.3803 42.6658 40.4369C42.7249 40.4935 42.7952 40.5385 42.8726 40.5692C42.9501 40.6 43.0331 40.616 43.1171 40.6163C43.2014 40.6166 43.285 40.6011 43.363 40.5706C43.441 40.54 43.5119 40.4952 43.5715 40.4385C43.6312 40.3819 43.6784 40.3146 43.7106 40.2406C43.7427 40.1665 43.7591 40.0871 43.7587 40.007C43.7584 39.9273 43.7416 39.8485 43.7092 39.7749C43.6767 39.7014 43.6294 39.6347 43.5698 39.5785C43.5102 39.5224 43.4396 39.4779 43.3619 39.4477C43.2842 39.4174 43.201 39.402 43.1171 39.4023Z" fill="#FDFEFF"/>
<path d="M23.9396 35.2773C23.7758 35.2773 23.6187 35.3391 23.5029 35.4491C23.3871 35.5591 23.322 35.7082 23.322 35.8637C23.322 36.0192 23.3871 36.1684 23.5029 36.2783C23.6187 36.3883 23.7758 36.4501 23.9396 36.4501H37.9791C38.1429 36.4501 38.3 36.3883 38.4158 36.2783C38.5316 36.1684 38.5967 36.0192 38.5967 35.8637C38.5967 35.7082 38.5316 35.5591 38.4158 35.4491C38.3 35.3391 38.1429 35.2773 37.9791 35.2773H23.9396Z" fill="#66BC99"/>
<path d="M23.9396 39.4023C23.7766 39.4023 23.6203 39.4635 23.5046 39.5725C23.3889 39.6814 23.3233 39.8294 23.322 39.9841C23.322 40.1397 23.3871 40.2888 23.5029 40.3988C23.6187 40.5087 23.7758 40.5705 23.9396 40.5705H37.9791C38.1429 40.5705 38.3 40.5087 38.4158 40.3988C38.5316 40.2888 38.5967 40.1397 38.5967 39.9841C38.5954 39.8294 38.5298 39.6814 38.4141 39.5725C38.2984 39.4635 38.1421 39.4023 37.9791 39.4023H23.9396Z" fill="#FDFEFF"/>
<path d="M23.9394 30.9492C23.8583 30.9492 23.778 30.9644 23.7031 30.9939C23.6282 31.0233 23.5601 31.0665 23.5028 31.121C23.4454 31.1754 23.3999 31.2401 23.3689 31.3112C23.3379 31.3823 23.3219 31.4586 23.3219 31.5356C23.3219 31.6911 23.387 31.8403 23.5028 31.9502C23.6186 32.0602 23.7757 32.122 23.9394 32.122H37.979C38.1428 32.122 38.2999 32.0602 38.4157 31.9502C38.5315 31.8403 38.5966 31.6911 38.5966 31.5356C38.5966 31.4586 38.5806 31.3823 38.5495 31.3112C38.5185 31.2401 38.473 31.1754 38.4157 31.121C38.3583 31.0665 38.2903 31.0233 38.2153 30.9939C38.1404 30.9644 38.0601 30.9492 37.979 30.9492H23.9394Z" fill="#FDFEFF"/>
<path d="M27.1232 23.6875C26.9594 23.6875 26.8023 23.7493 26.6865 23.8592C26.5707 23.9692 26.5056 24.1184 26.5056 24.2739V27.9158C26.5056 28.0713 26.5707 28.2205 26.6865 28.3304C26.8023 28.4404 26.9594 28.5022 27.1232 28.5022C27.2861 28.501 27.4419 28.4386 27.5567 28.3288C27.6715 28.219 27.7359 28.0705 27.7359 27.9158V24.2739C27.7359 24.1191 27.6715 23.9707 27.5567 23.8609C27.4419 23.751 27.2861 23.6887 27.1232 23.6875Z" fill="#66BC99"/>
<path d="M27.1239 18.8086C27.0395 18.8083 26.9559 18.8238 26.8779 18.8544C26.7999 18.8849 26.7291 18.9297 26.6694 18.9864C26.6098 19.043 26.5625 19.1103 26.5304 19.1844C26.4982 19.2584 26.4819 19.3378 26.4822 19.4179V24.2738C26.4819 24.3539 26.4982 24.4332 26.5304 24.5073C26.5625 24.5813 26.6098 24.6486 26.6694 24.7053C26.7291 24.7619 26.7999 24.8068 26.8779 24.8373C26.9559 24.8678 27.0395 24.8833 27.1239 24.883H34.7708C34.8898 24.8835 35.0064 24.8524 35.1078 24.7933C35.2091 24.7342 35.2911 24.6494 35.3445 24.5485C35.3979 24.4476 35.4205 24.3346 35.41 24.2221C35.3994 24.1096 35.356 24.0022 35.2847 23.9119L33.6539 21.8504L35.2847 19.7935C35.356 19.7032 35.3994 19.5957 35.41 19.4833C35.4205 19.3708 35.3979 19.2578 35.3445 19.1568C35.2911 19.0559 35.2091 18.9712 35.1078 18.9121C35.0064 18.853 34.8898 18.8219 34.7708 18.8223H27.1239V18.8086ZM27.7607 20.0203H33.502L32.3513 21.4748C32.2683 21.5798 32.2234 21.7076 32.2234 21.839C32.2234 21.9703 32.2683 22.0981 32.3513 22.2031L33.502 23.6576H27.7607V20.0157V20.0203Z" fill="#66BC99"/>
</g>
<defs>
<clipPath id="clip0_3158_31584">
<rect width="34" height="42" fill="white" transform="translate(14.4999 10.5)"/>
</clipPath>
</defs>
</svg>
