<svg width="57" height="57" viewBox="0 0 57 57" fill="none" xmlns="http://www.w3.org/2000/svg">
<rect x="0.25" width="56.5" height="56.5" rx="15" fill="#029155"/>
<path d="M42.7295 26.7651C43.8716 25.9625 44.6278 24.6276 44.6278 23.1228C44.6278 20.6612 42.6369 18.6703 40.1753 18.6703C37.7137 18.6703 35.7228 20.6612 35.7228 23.1228C35.7228 24.6276 36.4713 25.9625 37.6211 26.7651C36.6411 27.1046 35.7459 27.6293 34.9897 28.3084C33.948 27.421 32.721 26.7419 31.3783 26.3406C33.0065 25.3529 34.1023 23.5549 34.1023 21.51C34.1023 18.3925 31.5789 15.8691 28.4614 15.8691C25.3439 15.8691 22.8205 18.4002 22.8205 21.51C22.8205 23.5549 23.9086 25.3529 25.5445 26.3406C24.2173 26.7419 23.0057 27.4133 21.9717 28.2852C21.2155 27.6216 20.3358 27.1046 19.3712 26.7728C20.5133 25.9703 21.2695 24.6353 21.2695 23.1305C21.2695 20.6689 19.2786 18.678 16.817 18.678C14.3554 18.678 12.3645 20.6689 12.3645 23.1305C12.3645 24.6353 13.113 25.9703 14.2628 26.7728C11.1992 27.83 9 30.7391 9 34.1576V34.6669C9 34.6824 9.01543 34.6978 9.03087 34.6978H18.4683C18.4143 35.1222 18.3835 35.5621 18.3835 36.0019V36.5266C18.3835 38.7953 20.22 40.6319 22.4887 40.6319H34.4495C36.7182 40.6319 38.5548 38.7953 38.5548 36.5266V36.0019C38.5548 35.5621 38.5239 35.1222 38.4699 34.6978H47.9691C47.9846 34.6978 48 34.6824 48 34.6669V34.1576C47.9846 30.7314 45.793 27.8222 42.7295 26.7651ZM36.9575 23.1151C36.9575 21.3403 38.4005 19.8972 40.1753 19.8972C41.9501 19.8972 43.3932 21.3403 43.3932 23.1151C43.3932 24.8668 41.981 26.2943 40.237 26.3329C40.2139 26.3329 40.1985 26.3329 40.1753 26.3329C40.1522 26.3329 40.1367 26.3329 40.1136 26.3329C38.3619 26.3021 36.9575 24.8745 36.9575 23.1151ZM24.0398 21.51C24.0398 19.0793 26.0152 17.1038 28.446 17.1038C30.8767 17.1038 32.8522 19.0793 32.8522 21.51C32.8522 23.8559 31.0079 25.7773 28.7006 25.9085C28.6158 25.9085 28.5309 25.9085 28.446 25.9085C28.3611 25.9085 28.2762 25.9085 28.1913 25.9085C25.8841 25.7773 24.0398 23.8559 24.0398 21.51ZM13.576 23.1151C13.576 21.3403 15.019 19.8972 16.7938 19.8972C18.5687 19.8972 20.0117 21.3403 20.0117 23.1151C20.0117 24.8668 18.5995 26.2943 16.8556 26.3329C16.8324 26.3329 16.817 26.3329 16.7938 26.3329C16.7707 26.3329 16.7552 26.3329 16.7321 26.3329C14.9881 26.3021 13.576 24.8745 13.576 23.1151ZM18.6844 33.4554H10.2501C10.5973 30.1681 13.3753 27.5907 16.7475 27.5676C16.763 27.5676 16.7784 27.5676 16.7938 27.5676C16.8093 27.5676 16.8247 27.5676 16.8401 27.5676C18.4452 27.5753 19.9114 28.1695 21.0457 29.1341C19.9345 30.3379 19.1088 31.8195 18.6844 33.4554ZM37.3047 36.5266C37.3047 38.1086 36.016 39.3972 34.4341 39.3972H22.4733C20.8914 39.3972 19.6027 38.1086 19.6027 36.5266V36.0019C19.6027 31.2099 23.4302 27.2898 28.1913 27.1509C28.2762 27.1586 28.3688 27.1586 28.4537 27.1586C28.5386 27.1586 28.6312 27.1586 28.7161 27.1509C33.4772 27.2898 37.3047 31.2099 37.3047 36.0019V36.5266ZM38.223 33.4554C37.7986 31.8272 36.9883 30.3687 35.8848 29.1649C37.0269 28.1772 38.5085 27.583 40.129 27.5676C40.1444 27.5676 40.1599 27.5676 40.1753 27.5676C40.1907 27.5676 40.2062 27.5676 40.2216 27.5676C43.5938 27.5907 46.3718 30.1681 46.719 33.4554H38.223Z" fill="#FDFEFF"/>
</svg>
