<svg width="63" height="63" viewBox="0 0 63 63" fill="none" xmlns="http://www.w3.org/2000/svg">
<rect x="0.5" y="0.359375" width="62" height="62" rx="15" fill="#029155"/>
<path opacity="0.4" d="M41.9957 22.8894C41.8907 22.8719 41.7682 22.8719 41.6632 22.8894C39.2482 22.8019 37.3232 20.8244 37.3232 18.3744C37.3232 15.8719 39.3357 13.8594 41.8382 13.8594C44.3407 13.8594 46.3532 15.8894 46.3532 18.3744C46.3357 20.8244 44.4107 22.8019 41.9957 22.8894Z" stroke="#FDFEFF" stroke-width="1.5" stroke-linecap="round" stroke-linejoin="round"/>
<path opacity="0.4" d="M40.1931 35.6294C42.5906 36.0319 45.2331 35.6119 47.0881 34.3694C49.5556 32.7244 49.5556 30.0294 47.0881 28.3844C45.2156 27.1419 42.5381 26.7219 40.1406 27.1419" stroke="#FDFEFF" stroke-width="1.5" stroke-linecap="round" stroke-linejoin="round"/>
<path opacity="0.4" d="M20.9434 22.8894C21.0484 22.8719 21.1709 22.8719 21.2759 22.8894C23.6909 22.8019 25.6159 20.8244 25.6159 18.3744C25.6159 15.8719 23.6034 13.8594 21.1009 13.8594C18.5984 13.8594 16.5859 15.8894 16.5859 18.3744C16.6034 20.8244 18.5284 22.8019 20.9434 22.8894Z" stroke="#FDFEFF" stroke-width="1.5" stroke-linecap="round" stroke-linejoin="round"/>
<path opacity="0.4" d="M22.7456 35.6294C20.3481 36.0319 17.7056 35.6119 15.8506 34.3694C13.3831 32.7244 13.3831 30.0294 15.8506 28.3844C17.7231 27.1419 20.4006 26.7219 22.7981 27.1419" stroke="#FDFEFF" stroke-width="1.5" stroke-linecap="round" stroke-linejoin="round"/>
<path d="M31.4996 35.9619C31.3946 35.9444 31.2721 35.9444 31.1671 35.9619C28.7521 35.8744 26.8271 33.8969 26.8271 31.4469C26.8271 28.9444 28.8396 26.9319 31.3421 26.9319C33.8446 26.9319 35.8571 28.9619 35.8571 31.4469C35.8396 33.8969 33.9146 35.8919 31.4996 35.9619Z" stroke="#FDFEFF" stroke-width="1.5" stroke-linecap="round" stroke-linejoin="round"/>
<path d="M26.4073 41.4745C23.9398 43.1195 23.9398 45.8145 26.4073 47.4595C29.2073 49.332 33.7923 49.332 36.5923 47.4595C39.0598 45.8145 39.0598 43.1195 36.5923 41.4745C33.8098 39.6195 29.2073 39.6195 26.4073 41.4745Z" stroke="#FDFEFF" stroke-width="1.5" stroke-linecap="round" stroke-linejoin="round"/>
</svg>
