<svg width="30" height="42" viewBox="0 0 30 42" fill="none" xmlns="http://www.w3.org/2000/svg">
<path d="M13.4375 16.8333C13.4375 17.6962 14.1371 18.3958 15 18.3958C15.8629 18.3958 16.5625 17.6962 16.5625 16.8333V10.5833C16.5625 9.72031 15.8629 9.02076 15 9.02076C14.1371 9.02076 13.4375 9.72031 13.4375 10.5833V16.8333Z" fill="#856E45"/>
<path fill-rule="evenodd" clip-rule="evenodd" d="M29.0625 14.9048C29.0625 7.985 24.0283 2.0936 17.1932 1.01437C15.7401 0.784924 14.2599 0.784924 12.8068 1.01437C5.97167 2.0936 0.9375 7.985 0.9375 14.9048V27.0951C0.9375 34.0148 5.97167 39.9063 12.8068 40.9855C14.2599 41.2149 15.7401 41.2149 17.1932 40.9855C24.0283 39.9063 29.0625 34.0148 29.0625 27.0951L29.0625 14.9048ZM16.7058 4.10113C22.022 4.94053 25.9375 9.52273 25.9375 14.9048L25.9375 27.0951C25.9375 32.4771 22.022 37.0593 16.7058 37.8987C15.5756 38.0772 14.4244 38.0772 13.2942 37.8987C7.97797 37.0593 4.0625 32.4771 4.0625 27.0951L4.0625 14.9048C4.0625 9.52273 7.97797 4.94053 13.2942 4.10113C14.4244 3.92267 15.5756 3.92267 16.7058 4.10113Z" fill="#856E45"/>
</svg>
