<svg width="29" height="42" viewBox="0 0 29 42" fill="none" xmlns="http://www.w3.org/2000/svg">
<path d="M12.9375 16.8334C12.9375 17.6963 13.6371 18.3959 14.5 18.3959C15.3629 18.3959 16.0625 17.6963 16.0625 16.8334V10.5834C16.0625 9.72043 15.3629 9.02088 14.5 9.02088C13.6371 9.02088 12.9375 9.72043 12.9375 10.5834V16.8334Z" fill="#856E45"/>
<path fill-rule="evenodd" clip-rule="evenodd" d="M28.5625 14.9049C28.5625 7.98512 23.5283 2.09372 16.6932 1.01449C15.2401 0.785046 13.7599 0.785046 12.3068 1.01449C5.47167 2.09372 0.4375 7.98512 0.4375 14.9049V27.0952C0.4375 34.015 5.47167 39.9064 12.3068 40.9856C13.7599 41.215 15.2401 41.215 16.6932 40.9856C23.5283 39.9064 28.5625 34.015 28.5625 27.0952L28.5625 14.9049ZM16.2058 4.10125C21.522 4.94065 25.4375 9.52285 25.4375 14.9049L25.4375 27.0952C25.4375 32.4772 21.522 37.0594 16.2058 37.8988C15.0756 38.0773 13.9244 38.0773 12.7942 37.8988C7.47796 37.0594 3.5625 32.4772 3.5625 27.0952L3.5625 14.9049C3.5625 9.52285 7.47797 4.94065 12.7942 4.10125C13.9244 3.92279 15.0756 3.92279 16.2058 4.10125Z" fill="#856E45"/>
</svg>
