<svg width="63" height="63" viewBox="0 0 63 63" fill="none" xmlns="http://www.w3.org/2000/svg">
<rect x="0.5" y="0.359375" width="62" height="62" rx="15" fill="#029155"/>
<path d="M40.075 48.8594H22.925C19.95 48.8594 17.5 46.4269 17.5 43.4344V19.2844C17.5 16.3094 19.9325 13.8594 22.925 13.8594H40.075C43.05 13.8594 45.5 16.2919 45.5 19.2844V43.4344C45.5 46.4269 43.0675 48.8594 40.075 48.8594Z" stroke="#FDFEFF" stroke-width="1.5" stroke-linecap="round" stroke-linejoin="round"/>
<path d="M42.875 33.1094H20.125C18.6725 33.1094 17.5 31.9369 17.5 30.4844V26.9844C17.5 25.5319 18.6725 24.3594 20.125 24.3594H42.875C44.3275 24.3594 45.5 25.5319 45.5 26.9844V30.4844C45.5 31.9369 44.3275 33.1094 42.875 33.1094Z" stroke="#FDFEFF" stroke-width="1.5" stroke-linecap="round" stroke-linejoin="round"/>
<path opacity="0.4" d="M27.125 19.1094H35.875" stroke="#FDFEFF" stroke-width="1.5" stroke-linecap="round" stroke-linejoin="round"/>
<path opacity="0.4" d="M25.3654 41.3345H25.3811" stroke="#FDFEFF" stroke-width="2.5" stroke-linecap="round" stroke-linejoin="round"/>
<path opacity="0.4" d="M37.6154 41.3345H37.6311" stroke="#FDFEFF" stroke-width="2.5" stroke-linecap="round" stroke-linejoin="round"/>
</svg>
