<svg width="62" height="62" viewBox="0 0 62 62" fill="none" xmlns="http://www.w3.org/2000/svg">
<rect width="62" height="62" rx="15" fill="#029155"/>
<path d="M45.1301 27.4398C45.13 23.809 43.6877 20.327 41.1204 17.7597C38.553 15.1923 35.0709 13.75 31.4401 13.75C27.8093 13.75 24.3272 15.1923 21.7598 17.7597C19.1925 20.327 17.7502 23.8089 17.7501 27.4396C17.7389 30.8455 19.0087 34.1311 21.3074 36.6443L30.6117 47.4685C30.6117 47.4685 30.6118 47.4686 30.6118 47.4686C30.7141 47.5882 30.8411 47.6842 30.984 47.7501C31.127 47.816 31.2826 47.8501 31.4401 47.8501C31.5975 47.8501 31.7531 47.816 31.8961 47.7501C32.0391 47.6842 32.166 47.5882 32.2683 47.4686C32.2684 47.4686 32.2684 47.4685 32.2685 47.4685L41.5727 36.6443C43.8714 34.1312 45.1412 30.8457 45.1301 27.4398ZM45.1301 27.4398C45.1301 27.4398 45.1301 27.4399 45.1301 27.44H44.8801L45.1301 27.4392C45.1301 27.4394 45.1301 27.4396 45.1301 27.4398ZM39.9193 35.2235L31.44 45.0913L22.9608 35.2318L22.9609 35.2317L22.9556 35.2259C21.446 33.5792 20.4483 31.5288 20.0841 29.3248C19.7199 27.1207 20.0049 24.8584 20.9044 22.8136C21.8039 20.7688 23.279 19.0299 25.1498 17.809C27.0205 16.5882 29.2062 15.9381 31.4401 15.9381C33.674 15.9381 35.8596 16.5882 37.7304 17.809C39.6012 19.0299 41.0763 20.7688 41.9758 22.8136C42.8753 24.8584 43.1603 27.1207 42.7961 29.3248C42.468 31.31 41.626 33.1706 40.3589 34.7238V34.7119L39.9193 35.2235Z" fill="#FDFEFF" stroke="#FDFEFF" stroke-width="0.5"/>
<path d="M31.4401 21.3105C30.2277 21.3105 29.0425 21.6701 28.0344 22.3436C27.0264 23.0172 26.2407 23.9746 25.7767 25.0947C25.3127 26.2148 25.1913 27.4473 25.4279 28.6365C25.6644 29.8256 26.2482 30.9178 27.1055 31.7751C27.9628 32.6324 29.0551 33.2162 30.2442 33.4528C31.4333 33.6893 32.6658 33.5679 33.7859 33.1039C34.906 32.64 35.8634 31.8543 36.537 30.8462C37.2106 29.8381 37.5701 28.6529 37.5701 27.4405C37.5701 25.8148 36.9242 24.2556 35.7746 23.106C34.625 21.9564 33.0658 21.3105 31.4401 21.3105ZM31.4401 31.3905C30.6588 31.3905 29.8951 31.1589 29.2456 30.7249C28.596 30.2908 28.0897 29.6739 27.7907 28.9521C27.4918 28.2304 27.4136 27.4362 27.566 26.6699C27.7184 25.9037 28.0946 25.1999 28.647 24.6475C29.1994 24.0951 29.9032 23.7189 30.6695 23.5664C31.4357 23.414 32.2299 23.4923 32.9517 23.7912C33.6734 24.0902 34.2903 24.5965 34.7244 25.246C35.1584 25.8956 35.3901 26.6593 35.3901 27.4405C35.3901 28.4882 34.9739 29.4928 34.2331 30.2336C33.4924 30.9744 32.4877 31.3905 31.4401 31.3905Z" fill="#FDFEFF" stroke="#FDFEFF" stroke-width="0.5"/>
</svg>
