<svg width="63" height="62" viewBox="0 0 63 62" fill="none" xmlns="http://www.w3.org/2000/svg">
<rect x="0.908203" width="62" height="62" rx="15" fill="#029155"/>
<path fill-rule="evenodd" clip-rule="evenodd" d="M42.4082 17H21.4082C17.5422 17 14.4082 20.134 14.4082 24V39.75C14.4082 43.616 17.5422 46.75 21.4082 46.75H42.4082C46.2742 46.75 49.4082 43.616 49.4082 39.75V24C49.4082 20.134 46.2742 17 42.4082 17ZM21.408 19.7832H42.408C44.273 19.7868 45.9123 21.0198 46.433 22.8107L33.238 32.5932C32.8763 32.9468 32.386 33.1374 31.8805 33.1208C31.3751 33.1043 30.8982 32.8821 30.5605 32.5057L17.418 22.8282C17.9285 21.0427 19.551 19.8045 21.408 19.7832ZM17.1914 39.7495C17.1914 42.0787 19.0796 43.967 21.4089 43.967H42.4089C44.7313 43.9573 46.6089 42.0719 46.6089 39.7495V25.697L34.7089 34.447C33.9484 35.155 32.948 35.5489 31.9089 35.5495C30.8287 35.5322 29.7934 35.1144 29.0039 34.377L17.1914 25.627V39.7495Z" fill="#FDFEFF"/>
</svg>
