<svg width="63" height="62" viewBox="0 0 63 62" fill="none" xmlns="http://www.w3.org/2000/svg">
<rect x="0.5" width="62" height="62" rx="15" fill="#029155"/>
<path d="M49 25.75V36.25C49 36.635 49 37.02 48.965 37.3875C47.53 35.62 45.3425 34.5 42.875 34.5C41.02 34.5 39.305 35.1475 37.9575 36.2325C36.1375 37.6675 35 39.89 35 42.375C35 44.8425 36.12 47.03 37.8875 48.465C37.52 48.5 37.135 48.5 36.75 48.5H26.25C17.5 48.5 14 45 14 36.25V25.75C14 17 17.5 13.5 26.25 13.5H36.75C45.5 13.5 49 17 49 25.75Z" stroke="#FDFEFF" stroke-width="1.5" stroke-linecap="round" stroke-linejoin="round"/>
<g opacity="0.4">
<path d="M14.9102 22.4425H48.0902" stroke="#FDFEFF" stroke-width="1.5" stroke-linecap="round" stroke-linejoin="round"/>
<path d="M25.4102 13.6925V22.1975" stroke="#FDFEFF" stroke-width="1.5" stroke-linecap="round" stroke-linejoin="round"/>
<path d="M37.5898 13.6925V21.4101" stroke="#FDFEFF" stroke-width="1.5" stroke-linecap="round" stroke-linejoin="round"/>
</g>
<path d="M50.75 42.375C50.75 44.7375 49.7 46.8375 48.0725 48.29C46.6725 49.4975 44.87 50.25 42.875 50.25C40.985 50.25 39.235 49.585 37.8875 48.465C36.12 47.03 35 44.8425 35 42.375C35 39.89 36.1375 37.6675 37.9575 36.2325C39.305 35.1475 41.02 34.5 42.875 34.5C45.3425 34.5 47.53 35.62 48.965 37.3875C50.085 38.735 50.75 40.485 50.75 42.375Z" stroke="#FDFEFF" stroke-width="1.5" stroke-miterlimit="10" stroke-linecap="round" stroke-linejoin="round"/>
<path opacity="0.4" d="M43.365 39.9076V42.8651L40.915 44.335" stroke="#FDFEFF" stroke-width="1.5" stroke-miterlimit="10" stroke-linecap="round" stroke-linejoin="round"/>
</svg>
