<svg width="57" height="57" viewBox="0 0 57 57" fill="none" xmlns="http://www.w3.org/2000/svg">
<rect x="0.25" width="56.5" height="56.5" rx="15" fill="#029155"/>
<path d="M28.5004 45.3458C27.8707 45.3451 27.2671 45.0881 26.8218 44.6311C26.3766 44.1741 26.1261 43.5546 26.1254 42.9083V18.1621L25.7879 18.3954C25.4822 18.6077 25.1259 18.7305 24.7573 18.7507C24.3887 18.7709 24.0217 18.6878 23.6957 18.5101C23.3697 18.3325 23.097 18.0671 22.9068 17.7424C22.7166 17.4177 22.6162 17.046 22.6162 16.6672C22.6154 16.3339 22.6879 16.0048 22.8284 15.7043C22.9688 15.4039 23.1736 15.1398 23.4274 14.9319L27.6602 11.4566C27.8983 11.2601 28.1946 11.1531 28.5001 11.1531C28.8056 11.1531 29.1019 11.2601 29.34 11.4566L33.574 14.9319C33.8274 15.1396 34.032 15.4032 34.1723 15.7032C34.3127 16.0033 34.3852 16.3319 34.3846 16.6648V16.6672C34.3846 17.0462 34.284 17.4181 34.0937 17.7428C33.9033 18.0676 33.6303 18.333 33.3041 18.5105C32.9778 18.6881 32.6106 18.7711 32.2418 18.7506C31.8731 18.7301 31.5168 18.6068 31.2111 18.3942L30.8754 18.1621V42.9083C30.8747 43.5546 30.6242 44.1741 30.179 44.6311C29.7337 45.0881 29.1301 45.3451 28.5004 45.3458ZM26.7191 16.4077C26.8766 16.4077 27.0276 16.4719 27.139 16.5862C27.2503 16.7005 27.3129 16.8555 27.3129 17.0171V42.9083C27.3129 43.2316 27.438 43.5416 27.6607 43.7701C27.8834 43.9987 28.1855 44.1271 28.5004 44.1271C28.8153 44.1271 29.1174 43.9987 29.3401 43.7701C29.5628 43.5416 29.6879 43.2316 29.6879 42.9083V17.0171C29.6878 16.9065 29.7171 16.798 29.7725 16.7032C29.828 16.6084 29.9075 16.5309 30.0026 16.4789C30.0977 16.4269 30.2047 16.4025 30.3123 16.4082C30.4199 16.4139 30.524 16.4496 30.6133 16.5113L31.8762 17.3837C32.0032 17.4726 32.1514 17.5242 32.3048 17.5331C32.4583 17.542 32.6112 17.5077 32.7471 17.434C32.8829 17.3603 32.9966 17.2499 33.0759 17.1148C33.1552 16.9797 33.1971 16.8249 33.1971 16.6672C33.1975 16.5166 33.1649 16.3679 33.1015 16.2321C33.0382 16.0963 32.9458 15.9769 32.8312 15.8828L28.5984 12.4088C28.5706 12.3856 28.5359 12.373 28.5001 12.373C28.4643 12.373 28.4296 12.3856 28.4018 12.4088L24.1696 15.884C24.0551 15.9774 23.9627 16.0961 23.8994 16.2313C23.836 16.3665 23.8033 16.5147 23.8037 16.6648C23.8033 16.8225 23.8448 16.9774 23.9238 17.1127C24.0028 17.248 24.1162 17.3587 24.2519 17.4327C24.3876 17.5068 24.5404 17.5415 24.6939 17.5331C24.8474 17.5247 24.9957 17.4734 25.1229 17.3849L26.3875 16.5113C26.4855 16.4436 26.601 16.4075 26.7191 16.4077Z" fill="white"/>
<path d="M33.7383 45.3457C33.1071 45.3442 32.5023 45.0855 32.0569 44.6264C31.6115 44.1673 31.362 43.5455 31.3633 42.8976L31.4161 30.59C31.4189 30.0319 31.608 29.4917 31.9518 29.0595L37.8537 21.6421L37.2089 21.5125C36.8464 21.4409 36.5098 21.2693 36.2352 21.0162C35.9606 20.7631 35.7583 20.4381 35.6501 20.0759C35.542 19.7137 35.5319 19.3282 35.6211 18.9606C35.7104 18.593 35.8954 18.2573 36.1565 17.9895C36.386 17.7536 36.6642 17.5737 36.9707 17.4633C37.2772 17.3528 37.6039 17.3146 37.9267 17.3515L43.3133 17.9657C43.6173 17.9988 43.9011 18.1379 44.1174 18.3596C44.3337 18.5814 44.4694 18.8724 44.502 19.1844L45.1004 24.714C45.137 25.0447 45.1002 25.3797 44.9929 25.6938C44.8855 26.0079 44.7104 26.293 44.4805 26.5279C44.2196 26.7966 43.8921 26.9871 43.5335 27.0791C43.1748 27.171 42.7985 27.1609 42.4451 27.0497C42.0917 26.9385 41.7745 26.7305 41.5276 26.4481C41.2808 26.1656 41.1137 25.8195 41.0443 25.4468L41.0274 25.3599L36.162 31.4739L36.1133 42.9187C36.1094 43.563 35.8576 44.1796 35.4128 44.6342C34.9679 45.0888 34.366 45.3445 33.7383 45.3457ZM37.6835 18.5559C37.5561 18.5558 37.43 18.5816 37.3124 18.6318C37.1947 18.682 37.088 18.7556 36.9982 18.8484C36.8889 18.9595 36.8112 19.0992 36.7736 19.2523C36.7359 19.4054 36.7397 19.5661 36.7846 19.7172C36.8295 19.8682 36.9137 20.0038 37.0282 20.1093C37.1426 20.2149 37.283 20.2863 37.4341 20.3159L39.0548 20.642C39.1555 20.6623 39.2493 20.709 39.3271 20.7776C39.4049 20.8461 39.4641 20.9342 39.4989 21.0332C39.5337 21.1322 39.5429 21.2388 39.5256 21.3425C39.5084 21.4463 39.4652 21.5437 39.4004 21.6252L32.8715 29.8303C32.6997 30.046 32.6052 30.3157 32.6036 30.5943L32.5508 42.9021C32.5492 43.2254 32.6728 43.536 32.8944 43.7657C33.116 43.9954 33.4174 44.1254 33.7323 44.127C34.0473 44.1286 34.35 44.0017 34.5738 43.7743C34.7976 43.5469 34.9242 43.2376 34.9258 42.9143L34.9757 31.2541C34.9763 31.1144 35.0236 30.9791 35.1096 30.8709L40.9079 23.5828C40.9799 23.4941 41.0747 23.4278 41.1814 23.3914C41.2882 23.355 41.4027 23.35 41.5121 23.3769C41.6216 23.4053 41.7209 23.4651 41.7986 23.5493C41.8762 23.6334 41.9289 23.7385 41.9506 23.8522L42.2103 25.2161C42.2389 25.3711 42.3081 25.5152 42.4106 25.6328C42.513 25.7504 42.6447 25.8371 42.7916 25.8837C42.9385 25.9302 43.0949 25.9347 43.2441 25.8968C43.3933 25.8589 43.5296 25.7799 43.6384 25.6684C43.7425 25.5626 43.8219 25.434 43.8707 25.2922C43.9194 25.1504 43.9362 24.9991 43.9197 24.8496L43.3213 19.3201C43.3173 19.2837 43.3015 19.2498 43.2763 19.2238C43.2511 19.1979 43.2181 19.1815 43.1827 19.1772L37.7943 18.5631C37.7576 18.5583 37.7206 18.5559 37.6835 18.5559Z" fill="white"/>
<path d="M23.2727 45.3459C22.6431 45.3469 22.0389 45.092 21.5919 44.6371C21.1449 44.1821 20.8915 43.5641 20.8872 42.918L20.839 31.474L15.9731 25.3604L15.9556 25.4496C15.8858 25.8216 15.7186 26.167 15.472 26.4489C15.2253 26.7307 14.9086 26.9383 14.5557 27.0494C14.2028 27.1605 13.8271 27.1709 13.4689 27.0795C13.1107 26.988 12.7835 26.7982 12.5225 26.5304C12.292 26.2954 12.1164 26.01 12.0086 25.6956C11.9009 25.3811 11.8639 25.0457 11.9003 24.7144L12.4987 19.1848C12.5314 18.8728 12.6672 18.5816 12.8836 18.3598C13.1 18.1381 13.3839 17.9991 13.688 17.9661L19.0752 17.3516C19.3973 17.3139 19.7236 17.3515 20.0296 17.4616C20.3355 17.5717 20.6133 17.7513 20.842 17.9872C21.1038 18.255 21.2895 18.591 21.3791 18.959C21.4687 19.3271 21.4588 19.7133 21.3505 20.076C21.2422 20.4387 21.0396 20.7642 20.7645 21.0176C20.4893 21.2709 20.1521 21.4425 19.789 21.5137L19.147 21.6422L25.0489 29.0595C25.3928 29.4918 25.5818 30.032 25.5846 30.59L25.6369 42.8994C25.6383 43.5452 25.3904 44.1654 24.9472 44.6239C24.5041 45.0825 23.9019 45.3421 23.2727 45.3459ZM15.6328 23.3597C15.7208 23.3595 15.8077 23.3796 15.8873 23.4183C15.9668 23.457 16.0369 23.5134 16.0926 23.5834L21.8915 30.8715C21.9773 30.9799 22.0246 31.1151 22.0254 31.2547L22.0747 42.9139C22.076 43.2371 22.2023 43.5466 22.4258 43.7743C22.6494 44.0019 22.952 44.1291 23.2669 44.1278C23.5818 44.1266 23.8834 43.9969 24.1052 43.7675C24.327 43.538 24.451 43.2275 24.4497 42.9043L24.3975 30.5949C24.3959 30.3163 24.3013 30.0466 24.1296 29.8309L17.6001 21.6256C17.5353 21.5441 17.4921 21.4467 17.4749 21.3429C17.4576 21.2392 17.4668 21.1326 17.5016 21.0336C17.5364 20.9346 17.5956 20.8465 17.6734 20.778C17.7512 20.7094 17.845 20.6628 17.9457 20.6425L19.5634 20.3175C19.7146 20.2884 19.8552 20.2174 19.97 20.1123C20.0848 20.0071 20.1695 19.8718 20.2149 19.721C20.2603 19.5701 20.2647 19.4094 20.2276 19.2561C20.1906 19.1028 20.1135 18.9629 20.0047 18.8513C19.9026 18.7432 19.7774 18.6609 19.6391 18.6109C19.5007 18.5609 19.3529 18.5446 19.2074 18.5633L13.8184 19.1774C13.7828 19.1815 13.7497 19.1979 13.7244 19.2238C13.6992 19.2498 13.6832 19.2838 13.6792 19.3202L13.0808 24.8498C13.0643 24.9987 13.0808 25.1495 13.1291 25.2909C13.1774 25.4323 13.2563 25.5607 13.3598 25.6664C13.4681 25.7783 13.6042 25.8578 13.7533 25.8963C13.9025 25.9348 14.059 25.9308 14.2061 25.8848C14.3532 25.8387 14.4852 25.7524 14.5881 25.6351C14.6909 25.5177 14.7606 25.3738 14.7896 25.2189L15.0499 23.8525C15.0716 23.7388 15.1243 23.6337 15.2019 23.5496C15.2796 23.4654 15.3789 23.4056 15.4884 23.3772C15.5356 23.3655 15.5841 23.3596 15.6328 23.3597Z" fill="white"/>
</svg>
