<svg width="58" height="57" viewBox="0 0 58 57" fill="none" xmlns="http://www.w3.org/2000/svg">
<rect x="0.75" width="56.5" height="56.5" rx="15" fill="#029155"/>
<g clip-path="url(#clip0_3158_31652)">
<path d="M28.9999 15.4473C23.7692 15.4473 19.5137 19.6865 19.5137 24.8972C19.5137 30.1079 23.7692 34.3472 28.9999 34.3472C34.2306 34.3472 38.4861 30.108 38.4861 24.8972C38.4861 19.6864 34.2306 15.4473 28.9999 15.4473ZM28.9999 33.0581C24.48 33.0581 20.8027 29.3972 20.8027 24.8972C20.8027 20.3973 24.48 16.7363 28.9999 16.7363C33.5198 16.7363 37.197 20.3973 37.197 24.8972C37.197 29.3972 33.5198 33.0581 28.9999 33.0581Z" fill="#FDFEFF"/>
<path d="M29 11.75C21.7224 11.75 15.8018 17.6476 15.8018 24.8968C15.8018 27.5419 16.4852 30.2321 17.8329 32.8928C18.9009 35.0013 20.3867 37.0959 22.249 39.1185C25.4073 42.5487 28.5208 44.5637 28.6518 44.6479C28.7579 44.716 28.879 44.7501 29 44.7501C29.1211 44.7501 29.2422 44.716 29.3482 44.6479C29.4792 44.5638 32.5928 42.5487 35.751 39.1185C37.6133 37.0959 39.0991 35.0013 40.1672 32.8928C41.5149 30.2322 42.1983 27.5419 42.1983 24.8968C42.1982 17.6476 36.2775 11.75 29 11.75ZM34.8236 38.2225C32.3744 40.8876 29.8945 42.7062 29 43.3274C28.1052 42.7061 25.6255 40.8876 23.1763 38.2225C20.4001 35.2018 17.0908 30.4378 17.0908 24.8968C17.0908 18.3584 22.4332 13.0391 29 13.0391C35.5667 13.0391 40.9091 18.3584 40.9091 24.8968C40.9091 30.4378 37.5999 35.2017 34.8236 38.2225Z" fill="#FDFEFF"/>
<path d="M33.443 23.0891L30.9818 22.3636L29.5312 20.247C29.411 20.0716 29.2121 19.9668 28.9996 19.9668C28.787 19.9668 28.5881 20.0716 28.4679 20.247L27.0173 22.3636L24.5561 23.0891C24.3522 23.1492 24.191 23.306 24.1253 23.5081C24.0596 23.7103 24.0978 23.9318 24.2275 24.1004L25.7922 26.134L25.7216 28.699C25.7157 28.9115 25.8151 29.1131 25.987 29.2381C26.159 29.363 26.3816 29.3951 26.5819 29.3239L28.9996 28.4642L31.4172 29.324C31.4875 29.349 31.5605 29.3612 31.6331 29.3612C31.7674 29.3612 31.9003 29.3193 32.012 29.2381C32.184 29.1131 32.2833 28.9115 32.2775 28.699L32.2069 26.134L33.7716 24.1004C33.9012 23.9319 33.9394 23.7103 33.8738 23.5081C33.808 23.306 33.6469 23.1492 33.443 23.0891ZM31.0454 25.5296C30.9551 25.6471 30.9079 25.7921 30.912 25.9403L30.963 27.7943L29.2155 27.1729C29.1457 27.1481 29.0727 27.1357 28.9996 27.1357C28.9265 27.1357 28.8534 27.1481 28.7836 27.1729L27.0361 27.7943L27.0871 25.9403C27.0912 25.7921 27.0441 25.6471 26.9537 25.5296L25.8227 24.0596L27.6016 23.5352C27.7438 23.4933 27.8672 23.4036 27.951 23.2814L28.9996 21.7515L30.0481 23.2814C30.1319 23.4036 30.2553 23.4933 30.3976 23.5352L32.1765 24.0596L31.0454 25.5296Z" fill="#FDFEFF"/>
</g>
<defs>
<clipPath id="clip0_3158_31652">
<rect width="33" height="33" fill="white" transform="translate(12.5 11.75)"/>
</clipPath>
</defs>
</svg>
