<svg width="57" height="57" viewBox="0 0 57 57" fill="none" xmlns="http://www.w3.org/2000/svg">
<rect x="0.25" width="56.5" height="56.5" rx="15" fill="#029155"/>
<g clip-path="url(#clip0_3158_31634)">
<path d="M17.8335 37.2916C16.3628 37.2916 15.167 36.1332 15.167 34.7084C15.167 33.2837 16.3628 32.125 17.8335 32.125C19.3042 32.125 20.5002 33.2837 20.5002 34.7084C20.5002 36.1332 19.3042 37.2916 17.8335 37.2916ZM17.8335 33.4166C17.0981 33.4166 16.5002 33.996 16.5002 34.7084C16.5002 35.4208 17.0981 36 17.8335 36C18.5688 36 19.167 35.4208 19.167 34.7084C19.167 33.996 18.5688 33.4166 17.8335 33.4166Z" fill="#FDFEFF"/>
<path d="M21.1667 43.7506H13.1667C12.7986 43.7506 12.5 43.4618 12.5 43.1047V41.8131C12.5 40.951 12.8467 40.1405 13.4761 39.53C14.106 38.9203 14.9434 38.584 15.8333 38.584H19.8333C20.7241 38.584 21.5613 38.9203 22.1907 39.53C22.4507 39.7833 22.4507 40.1913 22.1899 40.4439C21.9294 40.6958 21.5073 40.6951 21.2473 40.4432C20.8701 40.0771 20.3679 39.8756 19.8333 39.8756H15.8333C15.2993 39.8756 14.7974 40.0778 14.4194 40.4432C14.0413 40.8096 13.8333 41.2958 13.8333 41.8131V42.459H21.1667C21.5347 42.459 21.8333 42.7475 21.8333 43.1047C21.8333 43.4618 21.5347 43.7506 21.1667 43.7506Z" fill="#FDFEFF"/>
<path d="M28.4998 37.2916C27.0291 37.2916 25.833 36.1332 25.833 34.7084C25.833 33.2837 27.0291 32.125 28.4998 32.125C29.9705 32.125 31.1665 33.2837 31.1665 34.7084C31.1665 36.1332 29.9705 37.2916 28.4998 37.2916ZM28.4998 33.4166C27.7644 33.4166 27.1665 33.996 27.1665 34.7084C27.1665 35.4208 27.7644 36 28.4998 36C29.2351 36 29.833 35.4208 29.833 34.7084C29.833 33.996 29.2351 33.4166 28.4998 33.4166Z" fill="#FDFEFF"/>
<path d="M33.167 43.7506H23.8335C23.4656 43.7506 23.167 43.4618 23.167 43.1047V41.8131C23.167 40.951 23.5137 40.1405 24.1428 39.53C24.7729 38.9203 25.6104 38.584 26.5002 38.584H30.5002C31.3909 38.584 32.2283 38.9203 32.8577 39.53C33.4863 40.1398 33.8335 40.951 33.8335 41.8131V43.1047C33.8335 43.4618 33.5356 43.7506 33.167 43.7506ZM24.5002 42.459H32.5002V41.8131C32.5002 41.2958 32.2915 40.8088 31.9143 40.4432C31.5369 40.0771 31.0349 39.8756 30.5002 39.8756H26.5002C25.9663 39.8756 25.4644 40.0778 25.0862 40.4432C24.7083 40.8096 24.5002 41.2958 24.5002 41.8131V42.459Z" fill="#FDFEFF"/>
<path d="M39.1667 37.2916C37.696 37.2916 36.5 36.1332 36.5 34.7084C36.5 33.2837 37.696 32.125 39.1667 32.125C40.6375 32.125 41.8333 33.2837 41.8333 34.7084C41.8333 36.1332 40.6375 37.2916 39.1667 37.2916ZM39.1667 33.4166C38.4314 33.4166 37.8333 33.996 37.8333 34.7084C37.8333 35.4208 38.4314 36 39.1667 36C39.9021 36 40.5 35.4208 40.5 34.7084C40.5 33.996 39.9021 33.4166 39.1667 33.4166Z" fill="#FDFEFF"/>
<path d="M43.833 43.7506H35.833C35.4644 43.7506 35.1665 43.4618 35.1665 43.1047C35.1665 42.7475 35.4644 42.459 35.833 42.459H43.1665V41.8131C43.1665 41.2958 42.9578 40.8088 42.5803 40.4432C42.2031 40.0771 41.7012 39.8756 41.1665 39.8756H37.1665C36.6323 39.8756 36.1296 40.0778 35.7524 40.4432C35.4917 40.6958 35.0703 40.6958 34.8098 40.4432C34.5491 40.1908 34.5491 39.7826 34.8098 39.53C35.4392 38.9203 36.2764 38.584 37.1665 38.584H41.1665C42.0571 38.584 42.8945 38.9203 43.5237 39.53C44.1523 40.1398 44.4998 40.951 44.4998 41.8131V43.1047C44.4998 43.4618 44.2017 43.7506 43.833 43.7506Z" fill="#FDFEFF"/>
<path d="M34.5 25.6666H33.1667V24.375C33.1667 22.9503 31.9707 21.7916 30.5 21.7916H26.5C25.0293 21.7916 23.8333 22.9503 23.8333 24.375V25.6666H22.5V24.375C22.5 22.2379 24.2939 20.5 26.5 20.5H30.5C32.7061 20.5 34.5 22.2379 34.5 24.375V25.6666Z" fill="#FDFEFF"/>
<path d="M28.5002 19.2084C26.6624 19.2084 25.167 17.7598 25.167 15.9791C25.167 14.1986 26.6624 12.75 28.5002 12.75C30.3381 12.75 31.8335 14.1986 31.8335 15.9791C31.8335 17.7598 30.3381 19.2084 28.5002 19.2084ZM28.5002 14.0416C27.3975 14.0416 26.5002 14.911 26.5002 15.9791C26.5002 17.0474 27.3975 17.9166 28.5002 17.9166C29.603 17.9166 30.5002 17.0474 30.5002 15.9791C30.5002 14.911 29.603 14.0416 28.5002 14.0416Z" fill="#FDFEFF"/>
<path d="M34.3044 31.2905L33.3618 30.3773L35.833 27.9833V26.3131H21.1665V27.9833L23.6377 30.3773L22.6951 31.2905L20.0283 28.7073C19.9031 28.5864 19.833 28.4218 19.833 28.2506V25.6672C19.833 25.3107 20.1318 25.0215 20.4998 25.0215H36.4998C36.8684 25.0215 37.1665 25.3107 37.1665 25.6672V28.2506C37.1665 28.4218 37.0964 28.5864 36.9712 28.7073L34.3044 31.2905Z" fill="#FDFEFF"/>
<path d="M23.1667 33.416C22.7986 33.416 22.5 33.1275 22.5 32.7703V28.2494C22.5 27.893 22.7986 27.6035 23.1667 27.6035C23.5347 27.6035 23.8333 27.893 23.8333 28.2494V32.7703C23.8333 33.1275 23.5347 33.416 23.1667 33.416Z" fill="#FDFEFF"/>
<path d="M33.8335 33.416C33.4648 33.416 33.167 33.1275 33.167 32.7703V28.2494C33.167 27.893 33.4648 27.6035 33.8335 27.6035C34.2021 27.6035 34.5002 27.893 34.5002 28.2494V32.7703C34.5002 33.1275 34.2021 33.416 33.8335 33.416Z" fill="#FDFEFF"/>
<path d="M31.167 30.8328C30.7983 30.8328 30.5002 30.5441 30.5002 30.1869V28.8953H26.5002V30.1869C26.5002 30.5441 26.2017 30.8328 25.8335 30.8328C25.4656 30.8328 25.167 30.5441 25.167 30.1869V28.2494C25.167 27.893 25.4656 27.6035 25.8335 27.6035H31.167C31.5356 27.6035 31.8335 27.893 31.8335 28.2494V30.1869C31.8335 30.5441 31.5356 30.8328 31.167 30.8328Z" fill="#FDFEFF"/>
</g>
<defs>
<clipPath id="clip0_3158_31634">
<rect width="32" height="31" fill="white" transform="translate(12.5 12.75)"/>
</clipPath>
</defs>
</svg>
