<svg width="36" height="36" viewBox="0 0 36 36" fill="none" xmlns="http://www.w3.org/2000/svg">
<path d="M8.06818 23.7876C11.5334 27.9298 15.7048 31.1912 20.4658 33.4989C22.2785 34.3579 24.7027 35.3771 27.4035 35.5518C27.571 35.5591 27.7311 35.5664 27.8986 35.5664C29.7112 35.5664 31.1672 34.9403 32.3538 33.6518C32.3611 33.6445 32.3757 33.6299 32.383 33.6154C32.8052 33.1058 33.2857 32.6472 33.788 32.1594C34.1301 31.8318 34.4796 31.4897 34.8144 31.1402C36.3651 29.5241 36.3651 27.4712 34.7999 25.906L30.4247 21.5308C29.6821 20.7591 28.794 20.3515 27.8622 20.3515C26.9303 20.3515 26.0349 20.7591 25.2705 21.5235L22.6643 24.1297C22.4241 23.9914 22.1766 23.8676 21.9436 23.7512C21.6524 23.6056 21.3831 23.4672 21.1428 23.3144C18.7696 21.8074 16.6148 19.8419 14.5545 17.3157C13.5135 15.9981 12.8147 14.8915 12.3269 13.7632C13.0112 13.1444 13.6518 12.4965 14.2706 11.8631C14.489 11.6374 14.7147 11.4118 14.9404 11.1861C15.7266 10.3999 16.1488 9.48988 16.1488 8.56534C16.1488 7.64079 15.7339 6.73081 14.9404 5.94458L12.771 3.77518C12.5162 3.52038 12.2759 3.27287 12.0284 3.01807C11.548 2.52304 11.0456 2.01345 10.5506 1.55482C9.80079 0.819549 8.91992 0.433716 7.9881 0.433716C7.06356 0.433716 6.17541 0.819549 5.39646 1.5621L2.67379 4.28477C1.68373 5.27483 1.12318 6.47601 1.0067 7.86647C0.868382 9.60636 1.1887 11.4554 2.0186 13.6904C3.29258 17.1483 5.21447 20.3587 8.06818 23.7876ZM2.78299 8.01935C2.87035 7.05112 3.24162 6.24306 3.94049 5.54419L6.6486 2.83607C7.07084 2.4284 7.53675 2.21729 7.9881 2.21729C8.43217 2.21729 8.88352 2.4284 9.29848 2.85063C9.78623 3.30199 10.2449 3.77518 10.7399 4.27749C10.9874 4.53229 11.2422 4.78708 11.497 5.04916L13.6664 7.21856C14.1178 7.66991 14.3507 8.12854 14.3507 8.5799C14.3507 9.03125 14.1178 9.48988 13.6664 9.94123C13.4407 10.1669 13.215 10.3999 12.9894 10.6255C12.3123 11.3098 11.679 11.9578 10.9801 12.5765C10.9656 12.5911 10.9583 12.5984 10.9437 12.6129C10.3395 13.2172 10.4341 13.7923 10.5797 14.2291C10.587 14.2509 10.5943 14.2655 10.6016 14.2873C11.1621 15.6341 11.9411 16.9154 13.1568 18.4441C15.3408 21.1377 17.6412 23.227 20.1746 24.8359C20.4876 25.0397 20.8225 25.1999 21.1356 25.36C21.4267 25.5056 21.6961 25.6439 21.9363 25.7968C21.9655 25.8114 21.9873 25.8259 22.0164 25.8405C22.2567 25.9642 22.4896 26.0225 22.7226 26.0225C23.305 26.0225 23.6835 25.6512 23.8073 25.5274L26.5299 22.8048C26.9522 22.3825 27.4108 22.1569 27.8622 22.1569C28.4154 22.1569 28.8668 22.499 29.1507 22.8048L33.5405 27.1873C34.414 28.0608 34.4068 29.0072 33.5186 29.9318C33.2129 30.2594 32.8926 30.5724 32.5504 30.9C32.0408 31.395 31.5094 31.9046 31.0289 32.4797C30.1917 33.3824 29.1944 33.8047 27.9058 33.8047C27.7821 33.8047 27.651 33.7974 27.5273 33.7901C25.1395 33.6372 22.9191 32.7054 21.252 31.9119C16.7239 29.7207 12.7491 26.6121 9.45135 22.6665C6.73596 19.3978 4.90871 16.3548 3.70025 13.0934C2.95043 11.0915 2.66651 9.4826 2.78299 8.01935Z" fill="#029155"/>
</svg>
