<svg width="52" height="54" viewBox="0 0 52 54" fill="none" xmlns="http://www.w3.org/2000/svg">
<path d="M33.4471 13.0817C34.0647 13.0817 34.6571 13.3167 35.0939 13.7351C35.5306 14.1535 35.776 14.721 35.776 15.3127C35.776 15.9045 35.5306 16.4719 35.0939 16.8903C34.6571 17.3087 34.0647 17.5438 33.4471 17.5438H14.8155C14.1978 17.5438 13.6054 17.3087 13.1687 16.8903C12.7319 16.4719 12.4865 15.9045 12.4865 15.3127C12.4865 14.721 12.7319 14.1535 13.1687 13.7351C13.6054 13.3167 14.1978 13.0817 14.8155 13.0817H33.4471ZM51.3963 52.5871C50.9595 53.0053 50.3672 53.2403 49.7497 53.2403C49.1321 53.2403 48.5399 53.0053 48.1031 52.5871L42.4974 47.2169C40.8372 48.2319 38.9099 48.7736 36.9405 48.7786C34.8677 48.7786 32.8414 48.1898 31.118 47.0866C29.3945 45.9835 28.0512 44.4155 27.258 42.5809C26.4648 40.7464 26.2572 38.7277 26.6616 36.7802C27.066 34.8327 28.0641 33.0438 29.5298 31.6397C30.9955 30.2356 32.8629 29.2794 34.8959 28.892C36.9289 28.5046 39.0361 28.7034 40.9511 29.4633C42.8661 30.2232 44.5029 31.51 45.6545 33.1611C46.8061 34.8121 47.4207 36.7532 47.4207 38.7389C47.4155 40.6255 46.8501 42.4718 45.7905 44.0622L51.3963 49.4323C51.8329 49.8507 52.0781 50.4181 52.0781 51.0097C52.0781 51.6013 51.8329 52.1687 51.3963 52.5871ZM36.9405 44.3165C38.092 44.3165 39.2177 43.9894 40.1752 43.3765C41.1327 42.7636 41.879 41.8925 42.3196 40.8734C42.7603 39.8542 42.8756 38.7327 42.651 37.6507C42.4263 36.5688 41.8718 35.5749 41.0575 34.7949C40.2432 34.0148 39.2058 33.4836 38.0764 33.2684C36.9469 33.0532 35.7763 33.1636 34.7124 33.5858C33.6485 34.008 32.7391 34.7229 32.0994 35.6401C31.4596 36.5573 31.1181 37.6357 31.1181 38.7389C31.1181 40.2182 31.7315 41.6369 32.8234 42.6829C33.9154 43.7289 35.3963 44.3165 36.9405 44.3165ZM26.4602 48.7786H12.4865C10.6335 48.7786 8.85638 48.0735 7.54609 46.8183C6.2358 45.563 5.49969 43.8606 5.49969 42.0855V10.8506C5.49969 9.07547 6.2358 7.37304 7.54609 6.11782C8.85638 4.86261 10.6335 4.15743 12.4865 4.15743H40.4339C41.0516 4.15743 41.644 4.39249 42.0807 4.8109C42.5175 5.2293 42.7629 5.79678 42.7629 6.38849V24.237C42.7629 24.8287 43.0082 25.3962 43.445 25.8146C43.8817 26.233 44.4741 26.468 45.0918 26.468C45.7095 26.468 46.3019 26.233 46.7386 25.8146C47.1754 25.3962 47.4207 24.8287 47.4207 24.237V6.38849C47.4207 4.61335 46.6846 2.91092 45.3744 1.6557C44.0641 0.400485 42.2869 -0.304687 40.4339 -0.304687L12.4865 -0.304688C9.39929 -0.301145 6.43956 0.87528 4.25655 2.96654C2.07354 5.0578 0.845495 7.89313 0.841797 10.8506V42.0855C0.845495 45.0429 2.07354 47.8783 4.25655 49.9695C6.43956 52.0608 9.39929 53.2372 12.4865 53.2408H26.4602C27.0779 53.2408 27.6703 53.0057 28.107 52.5873C28.5438 52.1689 28.7892 51.6014 28.7892 51.0097C28.7892 50.418 28.5438 49.8505 28.107 49.4321C27.6703 49.0137 27.0779 48.7786 26.4602 48.7786Z" fill="#029155"/>
</svg>
