<svg width="36" height="30" viewBox="0 0 36 30" fill="none" xmlns="http://www.w3.org/2000/svg">
<path fill-rule="evenodd" clip-rule="evenodd" d="M28.3213 0H7.32129C3.4553 0 0.321289 3.13401 0.321289 7V22.75C0.321289 26.616 3.4553 29.75 7.32129 29.75H28.3213C32.1873 29.75 35.3213 26.616 35.3213 22.75V7C35.3213 3.13401 32.1873 0 28.3213 0ZM7.32105 2.7832H28.3211C30.1861 2.78677 31.8254 4.0198 32.3461 5.8107L19.1511 15.5932C18.7894 15.9468 18.2991 16.1374 17.7936 16.1208C17.2881 16.1043 16.8113 15.8821 16.4736 15.5057L3.33105 5.8282C3.84162 4.04273 5.46413 2.80449 7.32105 2.7832ZM3.10449 22.7495C3.10449 25.0787 4.99273 26.967 7.32199 26.967H28.322C30.6444 26.9573 32.522 25.0719 32.522 22.7495V8.69695L20.622 17.447C19.8615 18.155 18.8611 18.5489 17.822 18.5495C16.7418 18.5322 15.7065 18.1144 14.917 17.377L3.10449 8.62695V22.7495Z" fill="#029155"/>
</svg>
