<svg width="63" height="63" viewBox="0 0 63 63" fill="none" xmlns="http://www.w3.org/2000/svg">
<rect x="0.5" y="0.359375" width="62" height="62" rx="15" fill="#029155"/>
<path d="M31.5 42.7344C37.7822 42.7344 42.875 37.6416 42.875 31.3594C42.875 25.0771 37.7822 19.9844 31.5 19.9844C25.2178 19.9844 20.125 25.0771 20.125 31.3594C20.125 37.6416 25.2178 42.7344 31.5 42.7344Z" stroke="#FDFEFF" stroke-width="1.5" stroke-linecap="round" stroke-linejoin="round"/>
<path d="M43.995 43.8544L43.7675 43.6269M43.7675 19.0919L43.995 18.8644L43.7675 19.0919ZM19.005 43.8544L19.2325 43.6269L19.005 43.8544ZM31.5 13.9994V13.8594V13.9994ZM31.5 48.8594V48.7194V48.8594ZM14.14 31.3594H14H14.14ZM49 31.3594H48.86H49ZM19.2325 19.0919L19.005 18.8644L19.2325 19.0919Z" stroke="#FDFEFF" stroke-width="2" stroke-linecap="round" stroke-linejoin="round"/>
</svg>
