<svg width="46" height="57" viewBox="0 0 46 57" fill="none" xmlns="http://www.w3.org/2000/svg">
<path d="M23 27.45C20.2706 27.45 17.6025 26.645 15.3331 25.1369C13.0637 23.6288 11.295 21.4852 10.2505 18.9773C9.20597 16.4694 8.93269 13.7098 9.46516 11.0474C9.99764 8.385 11.312 5.93944 13.2419 4.01997C15.1719 2.10049 17.6308 0.79331 20.3078 0.263728C22.9847 -0.265854 25.7594 0.00594729 28.281 1.04476C30.8027 2.08357 32.9579 3.84274 34.4743 6.0998C35.9906 8.35687 36.8 11.0105 36.8 13.725C36.7959 17.3639 35.3407 20.8525 32.7536 23.4256C30.1665 25.9986 26.6587 27.446 23 27.45ZM23 6.10001C21.4837 6.10001 20.0014 6.5472 18.7406 7.38505C17.4799 8.2229 16.4972 9.41376 15.9169 10.807C15.3366 12.2003 15.1848 13.7335 15.4806 15.2126C15.7765 16.6917 16.5066 18.0503 17.5788 19.1167C18.651 20.1831 20.0171 20.9093 21.5043 21.2035C22.9915 21.4977 24.533 21.3467 25.9339 20.7696C27.3348 20.1925 28.5322 19.2152 29.3746 17.9612C30.217 16.7073 30.6667 15.2331 30.6667 13.725C30.6667 11.7027 29.8589 9.76328 28.4212 8.33332C26.9834 6.90335 25.0333 6.10001 23 6.10001ZM46 57.95V56.425C46 50.3582 43.5768 44.5398 39.2635 40.2499C34.9501 35.96 29.1 33.55 23 33.55C16.9 33.55 11.0499 35.96 6.73654 40.2499C2.42321 44.5398 0 50.3582 0 56.425L0 57.95C0 58.7589 0.323094 59.5347 0.898206 60.1067C1.47332 60.6787 2.25334 61 3.06667 61C3.88 61 4.66002 60.6787 5.23513 60.1067C5.81024 59.5347 6.13333 58.7589 6.13333 57.95V56.425C6.13333 51.976 7.91035 47.7092 11.0735 44.5633C14.2366 41.4174 18.5267 39.65 23 39.65C27.4733 39.65 31.7634 41.4174 34.9265 44.5633C38.0896 47.7092 39.8667 51.976 39.8667 56.425V57.95C39.8667 58.7589 40.1898 59.5347 40.7649 60.1067C41.34 60.6787 42.12 61 42.9333 61C43.7467 61 44.5267 60.6787 45.1018 60.1067C45.6769 59.5347 46 58.7589 46 57.95Z" fill="#029155"/>
</svg>
