<svg width="57" height="57" viewBox="0 0 57 57" fill="none" xmlns="http://www.w3.org/2000/svg">
<rect x="0.5" width="56.5" height="56.5" rx="15" fill="#029155"/>
<g clip-path="url(#clip0_4116_17599)">
<path d="M28.75 43.25C20.4789 43.25 13.75 36.5211 13.75 28.25C13.75 19.9789 20.4789 13.25 28.75 13.25C37.0206 13.25 43.75 19.9789 43.75 28.25C43.75 36.5211 37.0206 43.25 28.75 43.25ZM28.75 15.125C21.5125 15.125 15.625 21.0125 15.625 28.25C15.625 35.4875 21.5125 41.375 28.75 41.375C35.987 41.375 41.875 35.487 41.875 28.25C41.875 21.013 35.987 15.125 28.75 15.125Z" fill="#FDFEFF"/>
<path d="M28.75 39.5C27.1989 39.5 25.9375 38.2386 25.9375 36.6875C25.9375 35.1364 27.1989 33.875 28.75 33.875C30.3011 33.875 31.5625 35.1364 31.5625 36.6875C31.5625 38.2386 30.3011 39.5 28.75 39.5ZM28.75 35.75C28.233 35.75 27.8125 36.1705 27.8125 36.6875C27.8125 37.2045 28.233 37.625 28.75 37.625C29.2666 37.625 29.6875 37.2045 29.6875 36.6875C29.6875 36.1705 29.2666 35.75 28.75 35.75Z" fill="#FDFEFF"/>
<path d="M28.75 32.9375C27.2205 32.9375 25.9722 31.7103 25.9384 30.1892C25.848 29.4617 25 22.5988 25 20.75C25 18.6823 26.6823 17 28.75 17C30.8177 17 32.5 18.6823 32.5 20.75C32.5 22.5988 31.652 29.4617 31.5616 30.1892C31.5278 31.7103 30.2795 32.9375 28.75 32.9375ZM28.75 18.875C27.7159 18.875 26.875 19.7159 26.875 20.75C26.875 22.5458 27.7961 29.9342 27.805 30.0087C27.8102 30.0472 27.8125 30.0861 27.8125 30.125C27.8125 30.642 28.233 31.0625 28.75 31.0625C29.2666 31.0625 29.6875 30.642 29.6875 30.125C29.6875 30.0861 29.6898 30.0472 29.695 30.0087C29.7039 29.9342 30.625 22.5458 30.625 20.75C30.625 19.7159 29.7841 18.875 28.75 18.875Z" fill="#FDFEFF"/>
</g>
<defs>
<clipPath id="clip0_4116_17599">
<rect width="30" height="30" fill="white" transform="translate(13.75 13.25)"/>
</clipPath>
</defs>
</svg>
