<svg width="62" height="63" viewBox="0 0 62 63" fill="none" xmlns="http://www.w3.org/2000/svg">
<path d="M31 0.5C24.8688 0.5 18.8753 2.31812 13.7773 5.72444C8.67941 9.13077 4.70606 13.9723 2.35975 19.6368C0.0134319 25.3013 -0.600472 31.5344 0.59567 37.5478C1.79181 43.5612 4.74428 49.0849 9.0797 53.4203C13.4151 57.7557 18.9388 60.7082 24.9522 61.9043C30.9656 63.1005 37.1987 62.4866 42.8632 60.1403C48.5277 57.7939 53.3692 53.8206 56.7756 48.7227C60.1819 43.6248 62 37.6312 62 31.5C61.9911 23.281 58.7222 15.4012 52.9105 9.58951C47.0988 3.77781 39.219 0.508889 31 0.5V0.5ZM56.8333 31.5C56.8364 36.5626 55.3426 41.5131 52.5398 45.729L49.4605 42.6471C49.2191 42.405 49.0834 42.0771 49.0833 41.7352V39.25C49.0833 37.1946 48.2668 35.2233 46.8134 33.7699C45.36 32.3165 43.3888 31.5 41.3333 31.5H33.5833C32.8982 31.5 32.2411 31.2278 31.7567 30.7434C31.2722 30.2589 31 29.6018 31 28.9167V27.625C31 27.2824 31.1361 26.9539 31.3783 26.7117C31.6206 26.4694 31.9491 26.3333 32.2917 26.3333C34.0045 26.3333 35.6472 25.6529 36.8584 24.4417C38.0696 23.2306 38.75 21.5879 38.75 19.875V17.2917C38.75 16.9491 38.8861 16.6206 39.1283 16.3783C39.3706 16.1361 39.6991 16 40.0417 16H43.6041C45.3153 15.9951 46.9555 15.3156 48.1688 14.109L49.1428 13.1351C51.5793 15.5326 53.5142 18.3912 54.8346 21.5443C56.155 24.6973 56.8344 28.0817 56.8333 31.5ZM5.29326 33.9878L13.4514 42.1459C14.1693 42.8685 15.0236 43.4412 15.9646 43.8311C16.9056 44.2209 17.9147 44.4199 18.9333 44.4167H25.8333C26.5185 44.4167 27.1756 44.6888 27.66 45.1733C28.1445 45.6578 28.4167 46.3149 28.4167 47V57.2016C22.4755 56.5951 16.927 53.9522 12.7124 49.7211C8.49779 45.49 5.87653 39.9312 5.29326 33.9878ZM33.5833 57.2016V47C33.5833 44.9446 32.7668 42.9733 31.3134 41.5199C29.86 40.0665 27.8888 39.25 25.8333 39.25H18.9333C18.5936 39.2503 18.2572 39.1836 17.9434 39.0537C17.6295 38.9238 17.3444 38.7333 17.1043 38.4931L5.58776 26.9766C6.32705 22.774 8.09809 18.8207 10.742 15.4714C13.3858 12.1221 16.8199 9.4815 20.7359 7.78659C24.6519 6.09168 28.9275 5.39546 33.179 5.76039C37.4304 6.12533 41.5248 7.54001 45.0947 9.8775L44.516 10.4562C44.2728 10.696 43.9456 10.8313 43.6041 10.8333H40.0417C38.3288 10.8333 36.6861 11.5138 35.4749 12.7249C34.2638 13.9361 33.5833 15.5788 33.5833 17.2917V19.875C33.5833 20.2176 33.4473 20.5461 33.205 20.7883C32.9628 21.0306 32.6343 21.1667 32.2917 21.1667C30.5788 21.1667 28.9361 21.8471 27.7249 23.0583C26.5138 24.2694 25.8333 25.9121 25.8333 27.625V28.9167C25.8333 30.9721 26.6499 32.9433 28.1033 34.3967C29.5567 35.8502 31.5279 36.6667 33.5833 36.6667H41.3333C42.0185 36.6667 42.6756 36.9388 43.16 37.4233C43.6445 37.9078 43.9167 38.5649 43.9167 39.25V41.7352C43.9215 43.4464 44.601 45.0866 45.8077 46.2999L49.2616 49.7538C45.0545 53.9755 39.5137 56.6076 33.5833 57.2016Z" fill="#029155"/>
</svg>
