<svg width="53" height="52" viewBox="0 0 53 52" fill="none" xmlns="http://www.w3.org/2000/svg">
<g clip-path="url(#clip0_6669_12545)">
<path d="M11.5622 23.1517C11.4133 23.2159 11.2865 23.3225 11.1977 23.4581C11.1089 23.5938 11.0618 23.7525 11.0625 23.9147V50.3607C11.0622 50.4962 11.095 50.6297 11.158 50.7497C11.221 50.8696 11.3123 50.9723 11.4241 51.0489C11.5349 51.1244 11.6629 51.1708 11.7964 51.1838C11.9299 51.1969 12.0644 51.1762 12.1878 51.1237C18.0511 48.6565 24.6478 48.586 30.5625 50.9271V22.7203C24.4029 20.4531 17.6125 20.6073 11.5622 23.1517Z" fill="#98D99E" fill-opacity="0.4"/>
<path d="M51.1878 23.1524C49.519 22.4484 47.7799 21.9244 46 21.5891V28.0477L44.375 26.3943L42.75 28.0477V21.1788C39.1602 20.9559 35.5633 21.4816 32.1875 22.7226V50.9277C38.1022 48.5866 44.6989 48.6572 50.5622 51.1243C50.6856 51.1766 50.8202 51.1972 50.9536 51.1841C51.087 51.1711 51.215 51.1248 51.3259 51.0496C51.4377 50.973 51.529 50.8702 51.592 50.7503C51.655 50.6304 51.6878 50.4969 51.6875 50.3614V23.9153C51.6882 23.7532 51.6411 23.5944 51.5523 23.4588C51.4635 23.3231 51.3367 23.2166 51.1878 23.1524Z" fill="#98D99E" fill-opacity="0.4"/>
<path d="M37.0625 9.75003H34.0415L19.6112 0.931527C19.4836 0.853682 19.337 0.8125 19.1875 0.8125C19.038 0.8125 18.8914 0.853682 18.7638 0.931527L4.33354 9.75003H1.3125C1.09701 9.75004 0.890359 9.83564 0.737988 9.98802C0.585617 10.1404 0.500011 10.347 0.5 10.5625V37.375C0.5 37.5905 0.585602 37.7972 0.737976 37.9496C0.890349 38.1019 1.09701 38.1875 1.3125 38.1875H37.0625C37.1692 38.1876 37.2749 38.1666 37.3735 38.1257C37.4721 38.0849 37.5616 38.0251 37.6371 37.9496C37.7125 37.8742 37.7724 37.7846 37.8132 37.686C37.854 37.5874 37.875 37.4817 37.875 37.375V10.5625C37.875 10.4558 37.854 10.3502 37.8132 10.2516C37.7724 10.153 37.7125 10.0634 37.6371 9.98794C37.5616 9.91249 37.4721 9.85264 37.3735 9.81182C37.2749 9.771 37.1692 9.75 37.0625 9.75003ZM20 36.5625H18.375V29.25C18.375 27.7416 17.7758 26.295 16.7092 25.2284C15.6426 24.1617 14.1959 23.5625 12.6875 23.5625C11.1791 23.5625 9.73244 24.1617 8.66583 25.2284C7.59922 26.295 7 27.7416 7 29.25V36.5625H5.375V21.9375H33V36.5625H31.375V29.25C31.375 27.7416 30.7758 26.295 29.7092 25.2284C28.6426 24.1617 27.1959 23.5625 25.6875 23.5625C24.1791 23.5625 22.7324 24.1617 21.6658 25.2284C20.5992 26.295 20 27.7416 20 29.25V36.5625ZM33 20.3125H5.375V15.4375H33V20.3125ZM19.1875 2.57716L33 11.0183V13.8125H5.375V11.0183L19.1875 2.57716ZM2.125 36.5625V11.375H3.75V36.5625H2.125ZM8.625 36.5625V29.25C8.625 28.1726 9.05301 27.1393 9.81488 26.3774C10.5767 25.6155 11.6101 25.1875 12.6875 25.1875C13.7649 25.1875 14.7983 25.6155 15.5601 26.3774C16.322 27.1393 16.75 28.1726 16.75 29.25V36.5625H8.625ZM21.625 36.5625V29.25C21.625 28.1726 22.053 27.1393 22.8149 26.3774C23.5767 25.6155 24.6101 25.1875 25.6875 25.1875C26.7649 25.1875 27.7983 25.6155 28.5601 26.3774C29.322 27.1393 29.75 28.1726 29.75 29.25V36.5625H21.625ZM34.625 36.5625V11.375H36.25V36.5625H34.625Z" fill="#242424"/>
</g>
<defs>
<clipPath id="clip0_6669_12545">
<rect width="52" height="52" fill="white" transform="translate(0.5)"/>
</clipPath>
</defs>
</svg>
