<svg width="36" height="36" viewBox="0 0 36 36" fill="none" xmlns="http://www.w3.org/2000/svg">
<g clip-path="url(#clip0_6257_146028)">
<path d="M23.0627 23.625C22.284 23.625 21.5227 23.8559 20.8752 24.2886C20.2277 24.7212 19.723 25.3362 19.425 26.0557C19.127 26.7752 19.049 27.5669 19.2009 28.3307C19.3528 29.0945 19.7278 29.7961 20.2785 30.3467C20.8292 30.8974 21.5308 31.2724 22.2946 31.4243C23.0584 31.5763 23.8501 31.4983 24.5696 31.2003C25.289 30.9023 25.904 30.3976 26.3367 29.7501C26.7693 29.1025 27.0002 28.3413 27.0002 27.5625C26.9991 26.5186 26.5838 25.5177 25.8457 24.7796C25.1075 24.0414 24.1067 23.6262 23.0627 23.625ZM23.0627 29.8125C22.6177 29.8125 22.1827 29.6805 21.8127 29.4333C21.4427 29.1861 21.1543 28.8347 20.984 28.4235C20.8137 28.0124 20.7692 27.56 20.856 27.1235C20.9428 26.6871 21.1571 26.2862 21.4718 25.9715C21.7864 25.6568 22.1873 25.4425 22.6238 25.3557C23.0603 25.2689 23.5127 25.3135 23.9238 25.4838C24.3349 25.6541 24.6863 25.9425 24.9336 26.3125C25.1808 26.6825 25.3127 27.1175 25.3127 27.5625C25.312 28.159 25.0747 28.7309 24.6529 29.1527C24.2311 29.5745 23.6593 29.8118 23.0627 29.8125Z" fill="#98D99E" fill-opacity="0.4"/>
<path d="M35.1565 31.5H32.344V10.4062C32.344 9.9587 32.1662 9.52947 31.8497 9.21301C31.5333 8.89654 31.1041 8.71875 30.6565 8.71875H13.5003C13.0527 8.71875 12.6235 8.89654 12.307 9.21301C11.9905 9.52947 11.8128 9.9587 11.8128 10.4062V31.9207C11.8012 32.9614 12.1916 33.9665 12.9027 34.7264C13.6138 35.4863 14.5907 35.9425 15.6299 36C15.6698 36 15.7103 36.0028 15.7503 36H31.7815C32.8254 35.9988 33.8263 35.5836 34.5644 34.8454C35.3026 34.1073 35.7178 33.1064 35.719 32.0625C35.719 31.9133 35.6597 31.7702 35.5543 31.6648C35.4488 31.5593 35.3057 31.5 35.1565 31.5ZM18.9846 12.5156H25.1721C25.3213 12.5156 25.4644 12.5749 25.5699 12.6804C25.6754 12.7859 25.7346 12.9289 25.7346 13.0781C25.7346 13.2273 25.6754 13.3704 25.5699 13.4759C25.4644 13.5814 25.3213 13.6406 25.1721 13.6406H18.9846C18.8354 13.6406 18.6924 13.5814 18.5869 13.4759C18.4814 13.3704 18.4221 13.2273 18.4221 13.0781C18.4221 12.9289 18.4814 12.7859 18.5869 12.6804C18.6924 12.5749 18.8354 12.5156 18.9846 12.5156ZM15.3284 16.3125H28.8284C28.9776 16.3125 29.1206 16.3718 29.2261 16.4773C29.3316 16.5827 29.3909 16.7258 29.3909 16.875C29.3909 17.0242 29.3316 17.1673 29.2261 17.2727C29.1206 17.3782 28.9776 17.4375 28.8284 17.4375H15.3284C15.1792 17.4375 15.0361 17.3782 14.9306 17.2727C14.8251 17.1673 14.7659 17.0242 14.7659 16.875C14.7659 16.7258 14.8251 16.5827 14.9306 16.4773C15.0361 16.3718 15.1792 16.3125 15.3284 16.3125ZM15.3284 21.2344C15.1792 21.2344 15.0361 21.1751 14.9306 21.0696C14.8251 20.9641 14.7659 20.8211 14.7659 20.6719C14.7659 20.5227 14.8251 20.3796 14.9306 20.2741C15.0361 20.1686 15.1792 20.1094 15.3284 20.1094H28.8284C28.9776 20.1094 29.1206 20.1686 29.2261 20.2741C29.3316 20.3796 29.3909 20.5227 29.3909 20.6719C29.3909 20.8211 29.3316 20.9641 29.2261 21.0696C29.1206 21.1751 28.9776 21.2344 28.8284 21.2344H15.3284ZM28.8284 25.0312H22.0784C21.9292 25.0312 21.7861 24.972 21.6806 24.8665C21.5751 24.761 21.5159 24.6179 21.5159 24.4688C21.5159 24.3196 21.5751 24.1765 21.6806 24.071C21.7861 23.9655 21.9292 23.9062 22.0784 23.9062H28.8284C28.9776 23.9062 29.1206 23.9655 29.2261 24.071C29.3316 24.1765 29.3909 24.3196 29.3909 24.4688C29.3909 24.6179 29.3316 24.761 29.2261 24.8665C29.1206 24.972 28.9776 25.0312 28.8284 25.0312ZM29.3909 28.2656C29.3909 28.4148 29.3316 28.5579 29.2261 28.6634C29.1206 28.7689 28.9776 28.8281 28.8284 28.8281H25.4534C25.3042 28.8281 25.1611 28.7689 25.0556 28.6634C24.9501 28.5579 24.8909 28.4148 24.8909 28.2656C24.8909 28.1164 24.9501 27.9734 25.0556 27.8679C25.1611 27.7624 25.3042 27.7031 25.4534 27.7031H28.8284C28.9776 27.7031 29.1206 27.7624 29.2261 27.8679C29.3316 27.9734 29.3909 28.1164 29.3909 28.2656ZM31.7815 34.875H18.5065C19.1259 34.2721 19.5277 33.4808 19.6489 32.625H34.5378C34.4073 33.2599 34.0619 33.8304 33.5598 34.2402C33.0577 34.6501 32.4296 34.8743 31.7815 34.875Z" fill="#98D99E" fill-opacity="0.4"/>
<path d="M25.3063 7.7546C25.2957 7.37193 25.229 6.99288 25.1083 6.6296C25.1083 6.62397 25.1049 6.61891 25.1027 6.61328C24.8402 5.83248 24.3392 5.15381 23.6703 4.67301C23.0014 4.19222 22.1985 3.93357 21.3747 3.93357C20.551 3.93357 19.748 4.19222 19.0791 4.67301C18.4103 5.15381 17.9092 5.83248 17.6467 6.61328L17.6428 6.62397C17.5213 6.98867 17.454 7.36923 17.4431 7.75347L15.156 14.0045C15.0331 12.5804 14.496 11.2234 13.611 10.1009C12.726 8.97842 11.5317 8.13951 10.1756 7.68766C10.8516 7.20096 11.3559 6.51243 11.6158 5.72107C11.8758 4.9297 11.8781 4.07628 11.6224 3.28352C11.3667 2.49077 10.8662 1.79952 10.1928 1.30918C9.51948 0.818848 8.70797 0.554688 7.875 0.554688C7.04203 0.554688 6.23052 0.818848 5.55716 1.30918C4.8838 1.79952 4.38329 2.49077 4.1276 3.28352C3.87191 4.07628 3.87421 4.9297 4.13418 5.72107C4.39414 6.51243 4.89838 7.20096 5.57438 7.68766C4.11717 8.17208 2.84916 9.10242 1.94974 10.3471C1.05032 11.5917 0.565025 13.0877 0.5625 14.6233V26.9983C0.5625 27.4458 0.74029 27.8751 1.05676 28.1915C1.37322 28.508 1.80245 28.6858 2.25 28.6858H27C27.4476 28.6858 27.8768 28.508 28.1932 28.1915C28.5097 27.8751 28.6875 27.4458 28.6875 26.9983V17.9983C28.6875 16.1268 26.0376 9.60691 25.3063 7.7546ZM25.2838 22.4983C25.1792 21.4747 24.7963 20.4994 24.1766 19.678C23.557 18.8567 22.7242 18.2207 21.7688 17.8391C22.1717 17.5241 22.4976 17.1214 22.7217 16.6617C22.9459 16.202 23.0624 15.6972 23.0625 15.1858H26.874C27.3231 16.0555 27.5591 17.0195 27.5625 17.9983V22.4983H25.2838ZM1.6875 18.567H5.04394L4.266 21.1708C4.266 21.1758 4.25981 21.1792 4.25813 21.1843C4.10907 21.609 4.0118 22.0502 3.96844 22.4983H1.6875V18.567ZM9.5625 12.9358C9.95803 12.9372 10.3462 13.0431 10.6875 13.2429C11.0289 13.4426 11.3115 13.7291 11.5065 14.0732H7.6185C7.81354 13.7291 8.09606 13.4426 8.43746 13.2429C8.77885 13.0431 9.16697 12.9372 9.5625 12.9358ZM11.8125 15.1982C11.8125 15.7949 11.5754 16.3672 11.1535 16.7891C10.7315 17.2111 10.1592 17.4482 9.5625 17.4482C8.96576 17.4482 8.39347 17.2111 7.97151 16.7891C7.54955 16.3672 7.3125 15.7949 7.3125 15.1982H11.8125ZM9.5625 18.5608C10.1516 18.5599 10.7301 18.4049 11.2407 18.1111C11.7513 17.8173 12.1761 17.3951 12.4729 16.8862L13.8375 20.8108H5.54738L6.69712 16.9605C6.99912 17.449 7.42078 17.8523 7.92219 18.1324C8.4236 18.4124 8.98819 18.5599 9.5625 18.5608ZM5.0625 26.4358H14.0625V27.5608H5.0625V26.4358ZM5.0625 25.3108V23.0608C5.06228 22.6813 5.10991 22.3033 5.20425 21.9358H13.923C14.0166 22.3034 14.0635 22.6814 14.0625 23.0608V25.3108H5.0625ZM15.1875 23.0608C15.1893 21.9656 15.5901 20.9086 16.3148 20.0875C17.0395 19.2664 18.0385 18.7374 19.125 18.5996V25.3108H15.1875V23.0608ZM17.4375 15.1858C17.4375 14.7408 17.5695 14.3058 17.8167 13.9358C18.0639 13.5657 18.4153 13.2774 18.8265 13.1071C19.2376 12.9368 19.69 12.8922 20.1265 12.979C20.5629 13.0658 20.9638 13.2801 21.2785 13.5948C21.5932 13.9095 21.8075 14.3104 21.8943 14.7468C21.9811 15.1833 21.9365 15.6357 21.7662 16.0468C21.5959 16.458 21.3075 16.8094 20.9375 17.0566C20.5675 17.3038 20.1325 17.4358 19.6875 17.4358C19.0908 17.4358 18.5185 17.1987 18.0965 16.7768C17.6746 16.3548 17.4375 15.7825 17.4375 15.1858ZM20.25 18.5996C21.3365 18.7374 22.3355 19.2664 23.0602 20.0875C23.7849 20.9086 24.1857 21.9656 24.1875 23.0608V25.3108H20.25V18.5996ZM24.1875 7.87328C24.1875 8.6192 23.8912 9.33457 23.3637 9.86202C22.8363 10.3895 22.1209 10.6858 21.375 10.6858C20.6291 10.6858 19.9137 10.3895 19.3863 9.86202C18.8588 9.33457 18.5625 8.6192 18.5625 7.87328C18.565 7.71508 18.581 7.55738 18.6103 7.40191H24.1397C24.169 7.55738 24.185 7.71508 24.1875 7.87328ZM21.375 5.06078C21.8298 5.06127 22.2778 5.1722 22.6803 5.38403C23.0828 5.59587 23.4278 5.90227 23.6858 6.27691H19.0642C19.3222 5.90227 19.6672 5.59587 20.0697 5.38403C20.4722 5.1722 20.9202 5.06127 21.375 5.06078ZM17.9128 9.74753C18.2516 10.3724 18.7532 10.894 19.3645 11.2568C19.9757 11.6197 20.6738 11.8103 21.3846 11.8084C22.0954 11.8066 22.7925 11.6124 23.4018 11.2464C24.0112 10.8803 24.5101 10.3562 24.8456 9.72953L26.4724 14.0608H22.8656C22.634 13.4029 22.2038 12.8331 21.6346 12.43C21.0653 12.0269 20.385 11.8104 19.6875 11.8104C18.99 11.8104 18.3097 12.0269 17.7404 12.43C17.1712 12.8331 16.741 13.4029 16.5094 14.0608H16.3333L17.9128 9.74753ZM17.6062 17.8391C16.6443 18.2255 15.8074 18.8695 15.1875 19.7004V17.9983C15.191 17.0195 15.427 16.0555 15.876 15.1858H16.3125C16.3126 15.6972 16.4291 16.202 16.6533 16.6617C16.8774 17.1214 17.2033 17.5241 17.6062 17.8391ZM14.0625 14.6233V18.036L12.8931 14.661C12.8178 14.1711 12.6351 13.704 12.3581 13.2931C12.0811 12.8821 11.7166 12.5375 11.2908 12.2839C10.865 12.0304 10.3884 11.8741 9.89507 11.8263C9.40179 11.7786 8.90405 11.8405 8.4375 12.0077V8.46391C9.97384 8.60544 11.402 9.31533 12.4425 10.4546C13.4829 11.5939 14.0606 13.0804 14.0625 14.6233ZM7.875 1.68578C8.32234 1.6864 8.76304 1.79393 9.1604 1.99941C9.55775 2.20489 9.90024 2.50236 10.1593 2.86703H5.59069C5.84977 2.50236 6.19225 2.20489 6.5896 1.99941C6.98696 1.79393 7.42766 1.6864 7.875 1.68578ZM5.0625 4.49828C5.06392 4.32832 5.08105 4.15884 5.11369 3.99203H10.6363C10.6689 4.15884 10.6861 4.32832 10.6875 4.49828C10.6875 5.2442 10.3912 5.95957 9.86374 6.48702C9.33629 7.01447 8.62092 7.31078 7.875 7.31078C7.12908 7.31078 6.41371 7.01447 5.88626 6.48702C5.35882 5.95957 5.0625 5.2442 5.0625 4.49828ZM7.3125 8.46447V12.677C6.77423 13.1577 6.40419 13.7982 6.25669 14.5046L5.37975 17.442H1.6875V14.6233C1.68954 13.0805 2.26732 11.5941 3.30773 10.4549C4.34813 9.3158 5.77625 8.60599 7.3125 8.46447ZM1.6875 26.9983V23.6233H3.9375V27.5608H2.25C2.10082 27.5608 1.95774 27.5015 1.85225 27.396C1.74676 27.2905 1.6875 27.1475 1.6875 26.9983ZM15.1875 26.4358H24.1875V27.5608H15.1875V26.4358ZM27 27.5608H25.3125V23.6233H27.5625V26.9983C27.5625 27.1475 27.5032 27.2905 27.3977 27.396C27.2923 27.5015 27.1492 27.5608 27 27.5608Z" fill="#242424"/>
</g>
<defs>
<clipPath id="clip0_6257_146028">
<rect width="36" height="36" fill="white"/>
</clipPath>
</defs>
</svg>
