<svg width="53" height="53" viewBox="0 0 53 53" fill="none" xmlns="http://www.w3.org/2000/svg">
<g clip-path="url(#clip0_6669_25189)">
<path d="M34.1483 34.4258C33.0135 34.4258 31.9042 34.7623 30.9607 35.3927C30.0172 36.0232 29.2818 36.9192 28.8475 37.9676C28.4133 39.016 28.2996 40.1696 28.521 41.2826C28.7424 42.3956 29.2888 43.4179 30.0912 44.2203C30.8936 45.0227 31.916 45.5691 33.0289 45.7905C34.1419 46.0119 35.2955 45.8983 36.3439 45.464C37.3923 45.0298 38.2884 44.2944 38.9188 43.3508C39.5492 42.4073 39.8857 41.298 39.8857 40.1633C39.884 38.6421 39.279 37.1838 38.2034 36.1082C37.1277 35.0326 35.6694 34.4275 34.1483 34.4258ZM34.1483 43.4418C33.4998 43.4418 32.8659 43.2495 32.3268 42.8893C31.7876 42.529 31.3674 42.017 31.1193 41.4179C30.8711 40.8188 30.8062 40.1596 30.9327 39.5237C31.0592 38.8877 31.3714 38.3035 31.83 37.845C32.2885 37.3865 32.8727 37.0742 33.5086 36.9477C34.1446 36.8212 34.8038 36.8861 35.4029 37.1343C36.002 37.3824 36.514 37.8026 36.8743 38.3418C37.2345 38.881 37.4268 39.5148 37.4268 40.1633C37.4257 41.0325 37.08 41.8658 36.4654 42.4804C35.8507 43.095 35.0175 43.4408 34.1483 43.4418Z" fill="#98D99E" fill-opacity="0.4"/>
<path d="M51.7709 45.8986H47.6727V15.162C47.6727 14.5099 47.4136 13.8845 46.9525 13.4233C46.4914 12.9622 45.8659 12.7031 45.2138 12.7031H20.2147C19.5626 12.7031 18.9371 12.9622 18.476 13.4233C18.0149 13.8845 17.7558 14.5099 17.7558 15.162V46.5117C17.7389 48.0281 18.3078 49.4926 19.344 50.5999C20.3802 51.7072 21.8037 52.372 23.3179 52.4557C23.3761 52.4557 23.4351 52.4598 23.4933 52.4557H46.8531C48.3742 52.454 49.8325 51.8489 50.9082 50.7733C51.9838 49.6977 52.5888 48.2394 52.5905 46.7182C52.5905 46.5009 52.5042 46.2924 52.3505 46.1387C52.1968 45.9849 51.9883 45.8986 51.7709 45.8986ZM28.2062 18.2357H37.2223C37.4397 18.2357 37.6481 18.3221 37.8018 18.4758C37.9556 18.6295 38.0419 18.838 38.0419 19.0553C38.0419 19.2727 37.9556 19.4812 37.8018 19.6349C37.6481 19.7886 37.4397 19.875 37.2223 19.875H28.2062C27.9888 19.875 27.7804 19.7886 27.6266 19.6349C27.4729 19.4812 27.3866 19.2727 27.3866 19.0553C27.3866 18.838 27.4729 18.6295 27.6266 18.4758C27.7804 18.3221 27.9888 18.2357 28.2062 18.2357ZM22.8786 23.7683H42.5499C42.7673 23.7683 42.9758 23.8546 43.1295 24.0083C43.2832 24.1621 43.3696 24.3705 43.3696 24.5879C43.3696 24.8053 43.2832 25.0138 43.1295 25.1675C42.9758 25.3212 42.7673 25.4076 42.5499 25.4076H22.8786C22.6612 25.4076 22.4527 25.3212 22.299 25.1675C22.1453 25.0138 22.0589 24.8053 22.0589 24.5879C22.0589 24.3705 22.1453 24.1621 22.299 24.0083C22.4527 23.8546 22.6612 23.7683 22.8786 23.7683ZM22.8786 30.9401C22.6612 30.9401 22.4527 30.8538 22.299 30.7001C22.1453 30.5464 22.0589 30.3379 22.0589 30.1205C22.0589 29.9031 22.1453 29.6946 22.299 29.5409C22.4527 29.3872 22.6612 29.3009 22.8786 29.3009H42.5499C42.7673 29.3009 42.9758 29.3872 43.1295 29.5409C43.2832 29.6946 43.3696 29.9031 43.3696 30.1205C43.3696 30.3379 43.2832 30.5464 43.1295 30.7001C42.9758 30.8538 42.7673 30.9401 42.5499 30.9401H22.8786ZM42.5499 36.4727H32.7142C32.4969 36.4727 32.2884 36.3864 32.1347 36.2327C31.981 36.0789 31.8946 35.8705 31.8946 35.6531C31.8946 35.4357 31.981 35.2272 32.1347 35.0735C32.2884 34.9198 32.4969 34.8334 32.7142 34.8334H42.5499C42.7673 34.8334 42.9758 34.9198 43.1295 35.0735C43.2832 35.2272 43.3696 35.4357 43.3696 35.6531C43.3696 35.8705 43.2832 36.0789 43.1295 36.2327C42.9758 36.3864 42.7673 36.4727 42.5499 36.4727ZM43.3696 41.1857C43.3696 41.403 43.2832 41.6115 43.1295 41.7652C42.9758 41.9189 42.7673 42.0053 42.5499 42.0053H37.6321C37.4147 42.0053 37.2062 41.9189 37.0525 41.7652C36.8988 41.6115 36.8125 41.403 36.8125 41.1857C36.8125 40.9683 36.8988 40.7598 37.0525 40.6061C37.2062 40.4524 37.4147 40.366 37.6321 40.366H42.5499C42.7673 40.366 42.9758 40.4524 43.1295 40.6061C43.2832 40.7598 43.3696 40.9683 43.3696 41.1857ZM46.8531 50.8164H27.5095C28.412 49.938 28.9975 48.7849 29.1742 47.5379H50.8693C50.6792 48.463 50.1759 49.2942 49.4443 49.8915C48.7127 50.4887 47.7975 50.8154 46.8531 50.8164Z" fill="#98D99E" fill-opacity="0.4"/>
<path d="M37.4178 11.3038C37.4024 10.7462 37.3052 10.1938 37.1293 9.66449C37.1293 9.65629 37.1244 9.64892 37.1211 9.64072C36.7386 8.50298 36.0085 7.51406 35.0339 6.81347C34.0592 6.11289 32.8892 5.73601 31.6889 5.73601C30.4886 5.73601 29.3186 6.11289 28.344 6.81347C27.3693 7.51406 26.6392 8.50298 26.2568 9.64072L26.251 9.65629C26.074 10.1877 25.976 10.7422 25.96 11.3021L22.6274 20.4108C22.4482 18.3357 21.6656 16.3583 20.376 14.7227C19.0865 13.087 17.3463 11.8646 15.3703 11.2062C16.3553 10.4971 17.09 9.49376 17.4688 8.34063C17.8477 7.18751 17.851 5.94395 17.4784 4.78879C17.1059 3.63364 16.3765 2.62639 15.3954 1.91191C14.4142 1.19742 13.2317 0.8125 12.0179 0.8125C10.8042 0.8125 9.6217 1.19742 8.64052 1.91191C7.65935 2.62639 6.93003 3.63364 6.55745 4.78879C6.18488 5.94395 6.18823 7.18751 6.56704 8.34063C6.94585 9.49376 7.68059 10.4971 8.66561 11.2062C6.54226 11.9121 4.6946 13.2677 3.38402 15.0814C2.07344 16.895 1.36629 19.0748 1.36261 21.3124V39.3445C1.36261 39.9967 1.62167 40.6221 2.08281 41.0832C2.54395 41.5444 3.16939 41.8034 3.82153 41.8034H39.8857C40.5379 41.8034 41.1633 41.5444 41.6245 41.0832C42.0856 40.6221 42.3447 39.9967 42.3447 39.3445V26.2303C42.3447 23.5033 38.4833 14.0028 37.4178 11.3038ZM37.385 32.7874C37.2326 31.2959 36.6746 29.8747 35.7717 28.6779C34.8688 27.4811 33.6553 26.5544 32.2631 25.9983C32.8502 25.5392 33.3251 24.9525 33.6517 24.2826C33.9783 23.6128 34.1481 22.8773 34.1483 22.132H39.7021C40.3566 23.3993 40.7005 24.804 40.7054 26.2303V32.7874H37.385ZM3.00189 27.0589H7.89269L6.75913 30.853C6.75913 30.8604 6.75011 30.8653 6.74765 30.8727C6.53045 31.4916 6.38872 32.1345 6.32554 32.7874H3.00189V27.0589ZM14.4769 18.8535C15.0532 18.8556 15.6188 19.0099 16.1162 19.301C16.6137 19.592 17.0254 20.0094 17.3095 20.5108H11.6442C11.9284 20.0094 12.3401 19.592 12.8375 19.301C13.335 19.0099 13.9005 18.8556 14.4769 18.8535ZM17.7554 22.1501C17.7554 23.0196 17.41 23.8535 16.7952 24.4684C16.1803 25.0832 15.3464 25.4286 14.4769 25.4286C13.6073 25.4286 12.7734 25.0832 12.1586 24.4684C11.5437 23.8535 11.1983 23.0196 11.1983 22.1501H17.7554ZM14.4769 27.0499C15.3352 27.0486 16.1783 26.8227 16.9223 26.3947C17.6662 25.9666 18.2852 25.3513 18.7177 24.6098L20.7061 30.3285H8.62627L10.3016 24.718C10.7417 25.4298 11.3561 26.0176 12.0867 26.4256C12.8173 26.8337 13.64 27.0486 14.4769 27.0499ZM7.91974 38.5249H21.034V40.1642H7.91974V38.5249ZM7.91974 36.8856V33.607C7.91942 33.0541 7.98882 32.5033 8.12629 31.9677H20.8307C20.9671 32.5035 21.0354 33.0542 21.034 33.607V36.8856H7.91974ZM22.6733 33.607C22.6759 32.0112 23.2599 30.471 24.3159 29.2745C25.3719 28.0781 26.8276 27.3073 28.4108 27.1065V36.8856H22.6733V33.607ZM25.9518 22.132C25.9518 21.4836 26.1441 20.8497 26.5044 20.3106C26.8646 19.7714 27.3767 19.3512 27.9758 19.1031C28.5748 18.8549 29.234 18.79 29.87 18.9165C30.506 19.043 31.0902 19.3552 31.5487 19.8138C32.0072 20.2723 32.3195 20.8565 32.446 21.4924C32.5725 22.1284 32.5076 22.7876 32.2594 23.3867C32.0113 23.9858 31.591 24.4978 31.0519 24.8581C30.5127 25.2183 29.8788 25.4106 29.2304 25.4106C28.3609 25.4106 27.527 25.0652 26.9121 24.4503C26.2973 23.8355 25.9518 23.0016 25.9518 22.132ZM30.05 27.1065C31.6332 27.3073 33.0889 28.0781 34.1449 29.2745C35.2009 30.471 35.7849 32.0112 35.7875 33.607V36.8856H30.05V27.1065ZM35.7875 11.4767C35.7875 12.5636 35.3558 13.606 34.5872 14.3746C33.8186 15.1431 32.7762 15.5749 31.6893 15.5749C30.6024 15.5749 29.56 15.1431 28.7915 14.3746C28.0229 13.606 27.5911 12.5636 27.5911 11.4767C27.5947 11.2462 27.618 11.0164 27.6608 10.7899H35.7179C35.7607 11.0164 35.784 11.2462 35.7875 11.4767ZM31.6893 7.37851C32.3521 7.37922 33.0048 7.54086 33.5913 7.84953C34.1778 8.1582 34.6806 8.60468 35.0564 9.15057H28.3222C28.6981 8.60468 29.2009 8.1582 29.7874 7.84953C30.3739 7.54086 31.0266 7.37922 31.6893 7.37851ZM26.6444 14.2078C27.1381 15.1183 27.869 15.8783 28.7597 16.407C29.6504 16.9357 30.6675 17.2135 31.7033 17.2108C32.7391 17.2081 33.7548 16.9251 34.6427 16.3917C35.5306 15.8584 36.2576 15.0947 36.7465 14.1815L39.1169 20.4928H33.8614C33.5238 19.5341 32.8971 18.7038 32.0676 18.1165C31.2381 17.5291 30.2468 17.2137 29.2304 17.2137C28.214 17.2137 27.2227 17.5291 26.3932 18.1165C25.5637 18.7038 24.937 19.5341 24.5994 20.4928H24.3429L26.6444 14.2078ZM26.1977 25.9983C24.7961 26.5614 23.5766 27.4998 22.6733 28.7105V26.2303C22.6784 24.804 23.0223 23.3994 23.6765 22.132H24.3126C24.3127 22.8773 24.4825 23.6128 24.8091 24.2826C25.1358 24.9525 25.6106 25.5392 26.1977 25.9983ZM21.034 21.3124V26.2852L19.33 21.3673C19.2202 20.6536 18.954 19.9729 18.5504 19.3741C18.1467 18.7753 17.6157 18.2732 16.9952 17.9037C16.3748 17.5342 15.6803 17.3065 14.9615 17.2369C14.2427 17.1673 13.5174 17.2575 12.8376 17.5011V12.3373C15.0763 12.5436 17.1573 13.578 18.6734 15.238C20.1894 16.8981 21.0312 19.0643 21.034 21.3124ZM12.0179 2.46066C12.6698 2.46157 13.3119 2.61825 13.8909 2.91766C14.4699 3.21707 14.969 3.65053 15.3465 4.18191H8.68938C9.06689 3.65053 9.56594 3.21707 10.1449 2.91766C10.7239 2.61825 11.3661 2.46157 12.0179 2.46066ZM7.91974 6.55887C7.9218 6.3112 7.94677 6.06426 7.99433 5.82119H16.0416C16.0891 6.06426 16.1141 6.3112 16.1161 6.55887C16.1161 7.64578 15.6844 8.68818 14.9158 9.45674C14.1473 10.2253 13.1049 10.6571 12.0179 10.6571C10.931 10.6571 9.88864 10.2253 9.12008 9.45674C8.35151 8.68818 7.91974 7.64578 7.91974 6.55887ZM11.1983 12.3382V18.4764C10.414 19.1768 9.87477 20.1101 9.65984 21.1395L8.38202 25.4196H3.00189V21.3124C3.00487 19.0644 3.84677 16.8984 5.36279 15.2386C6.87881 13.5787 8.95977 12.5444 11.1983 12.3382ZM3.00189 39.3445V34.4267H6.28046V40.1642H3.82153C3.60415 40.1642 3.39567 40.0778 3.24196 39.9241C3.08825 39.7704 3.00189 39.5619 3.00189 39.3445ZM22.6733 38.5249H35.7875V40.1642H22.6733V38.5249ZM39.8857 40.1642H37.4268V34.4267H40.7054V39.3445C40.7054 39.5619 40.619 39.7704 40.4653 39.9241C40.3116 40.0778 40.1031 40.1642 39.8857 40.1642Z" fill="#242424"/>
</g>
<defs>
<clipPath id="clip0_6669_25189">
<rect width="52.457" height="52.457" fill="white" transform="translate(0.542969)"/>
</clipPath>
</defs>
</svg>
