<svg width="53" height="53" viewBox="0 0 53 53" fill="none" xmlns="http://www.w3.org/2000/svg">
<g clip-path="url(#clip0_6669_13627)">
<path d="M51.7707 45.8986H47.6725V15.162C47.6725 14.5099 47.4134 13.8845 46.9523 13.4233C46.4911 12.9622 45.8657 12.7031 45.2135 12.7031H20.2145C19.5623 12.7031 18.9369 12.9622 18.4758 13.4233C18.0146 13.8845 17.7556 14.5099 17.7556 15.162V46.5117C17.7387 48.0281 18.3076 49.4926 19.3438 50.5999C20.3799 51.7072 21.8034 52.372 23.3176 52.4557C23.3758 52.4557 23.4348 52.4598 23.493 52.4557H46.8528C48.374 52.454 49.8323 51.8489 50.9079 50.7733C51.9835 49.6977 52.5886 48.2394 52.5903 46.7182C52.5903 46.5009 52.5039 46.2924 52.3502 46.1387C52.1965 45.9849 51.988 45.8986 51.7707 45.8986ZM28.206 18.2357H37.222C37.4394 18.2357 37.6479 18.3221 37.8016 18.4758C37.9553 18.6295 38.0417 18.838 38.0417 19.0553C38.0417 19.2727 37.9553 19.4812 37.8016 19.6349C37.6479 19.7886 37.4394 19.875 37.222 19.875H28.206C27.9886 19.875 27.7801 19.7886 27.6264 19.6349C27.4727 19.4812 27.3863 19.2727 27.3863 19.0553C27.3863 18.838 27.4727 18.6295 27.6264 18.4758C27.7801 18.3221 27.9886 18.2357 28.206 18.2357ZM22.8783 23.7683H42.5497C42.7671 23.7683 42.9756 23.8546 43.1293 24.0083C43.283 24.1621 43.3693 24.3705 43.3693 24.5879C43.3693 24.8053 43.283 25.0138 43.1293 25.1675C42.9756 25.3212 42.7671 25.4076 42.5497 25.4076H22.8783C22.6609 25.4076 22.4524 25.3212 22.2987 25.1675C22.145 25.0138 22.0587 24.8053 22.0587 24.5879C22.0587 24.3705 22.145 24.1621 22.2987 24.0083C22.4524 23.8546 22.6609 23.7683 22.8783 23.7683ZM22.8783 30.9401C22.6609 30.9401 22.4524 30.8538 22.2987 30.7001C22.145 30.5464 22.0587 30.3379 22.0587 30.1205C22.0587 29.9031 22.145 29.6946 22.2987 29.5409C22.4524 29.3872 22.6609 29.3009 22.8783 29.3009H42.5497C42.7671 29.3009 42.9756 29.3872 43.1293 29.5409C43.283 29.6946 43.3693 29.9031 43.3693 30.1205C43.3693 30.3379 43.283 30.5464 43.1293 30.7001C42.9756 30.8538 42.7671 30.9401 42.5497 30.9401H22.8783ZM42.5497 36.4727H32.714C32.4966 36.4727 32.2881 36.3864 32.1344 36.2327C31.9807 36.0789 31.8944 35.8705 31.8944 35.6531C31.8944 35.4357 31.9807 35.2272 32.1344 35.0735C32.2881 34.9198 32.4966 34.8334 32.714 34.8334H42.5497C42.7671 34.8334 42.9756 34.9198 43.1293 35.0735C43.283 35.2272 43.3693 35.4357 43.3693 35.6531C43.3693 35.8705 43.283 36.0789 43.1293 36.2327C42.9756 36.3864 42.7671 36.4727 42.5497 36.4727ZM43.3693 41.1857C43.3693 41.403 43.283 41.6115 43.1293 41.7652C42.9756 41.9189 42.7671 42.0053 42.5497 42.0053H37.6319C37.4145 42.0053 37.206 41.9189 37.0523 41.7652C36.8986 41.6115 36.8122 41.403 36.8122 41.1857C36.8122 40.9683 36.8986 40.7598 37.0523 40.6061C37.206 40.4524 37.4145 40.366 37.6319 40.366H42.5497C42.7671 40.366 42.9756 40.4524 43.1293 40.6061C43.283 40.7598 43.3693 40.9683 43.3693 41.1857ZM46.8528 50.8164H27.5093C28.4118 49.938 28.9973 48.7849 29.174 47.5379H50.8691C50.679 48.463 50.1757 49.2942 49.4441 49.8915C48.7124 50.4887 47.7972 50.8154 46.8528 50.8164Z" fill="#98D99E" fill-opacity="0.4"/>
<path d="M39.8857 9.83639H36.8382L22.2811 0.940386C22.1523 0.861857 22.0044 0.820312 21.8536 0.820312C21.7028 0.820313 21.5549 0.861857 21.4262 0.940386L6.86912 9.83639H3.82153C3.60415 9.8364 3.39568 9.92276 3.24197 10.0765C3.08826 10.2302 3.0019 10.4387 3.00189 10.656V37.7042C3.00189 37.9216 3.08825 38.1301 3.24196 38.2838C3.39567 38.4375 3.60415 38.5238 3.82153 38.5238H39.8857C39.9934 38.5239 40.1 38.5027 40.1994 38.4615C40.2989 38.4203 40.3893 38.3599 40.4654 38.2838C40.5415 38.2077 40.6019 38.1173 40.6431 38.0179C40.6842 37.9184 40.7054 37.8118 40.7054 37.7042V10.656C40.7054 10.5484 40.6842 10.4418 40.6431 10.3423C40.6019 10.2429 40.5415 10.1525 40.4654 10.0764C40.3893 10.0003 40.2989 9.93991 40.1994 9.89873C40.1 9.85755 39.9934 9.83636 39.8857 9.83639ZM22.6733 36.8845H21.034V29.5078C21.034 27.9861 20.4295 26.5267 19.3535 25.4508C18.2775 24.3748 16.8182 23.7703 15.2965 23.7703C13.7748 23.7703 12.3155 24.3748 11.2395 25.4508C10.1635 26.5267 9.55902 27.9861 9.55902 29.5078V36.8845H7.91974V22.131H35.7875V36.8845H34.1483V29.5078C34.1483 27.9861 33.5438 26.5267 32.4678 25.4508C31.3918 24.3748 29.9324 23.7703 28.4108 23.7703C26.8891 23.7703 25.4297 24.3748 24.3538 25.4508C23.2778 26.5267 22.6733 27.9861 22.6733 29.5078V36.8845ZM35.7875 20.4917H7.91974V15.5739H35.7875V20.4917ZM21.8536 2.60048L35.7875 11.1159V13.9346H7.91974V11.1159L21.8536 2.60048ZM4.64117 36.8845V11.4757H6.28046V36.8845H4.64117ZM11.1983 36.8845V29.5078C11.1983 28.4209 11.6301 27.3785 12.3986 26.6099C13.1672 25.8413 14.2096 25.4096 15.2965 25.4096C16.3834 25.4096 17.4258 25.8413 18.1944 26.6099C18.9629 27.3785 19.3947 28.4209 19.3947 29.5078V36.8845H11.1983ZM24.3126 36.8845V29.5078C24.3126 28.4209 24.7443 27.3785 25.5129 26.6099C26.2815 25.8413 27.3239 25.4096 28.4108 25.4096C29.4977 25.4096 30.5401 25.8413 31.3086 26.6099C32.0772 27.3785 32.509 28.4209 32.509 29.5078V36.8845H24.3126ZM37.4268 36.8845V11.4757H39.0661V36.8845H37.4268Z" fill="#242424"/>
</g>
<defs>
<clipPath id="clip0_6669_13627">
<rect width="52.457" height="52.457" fill="white" transform="translate(0.542969)"/>
</clipPath>
</defs>
</svg>
