<svg width="53" height="53" viewBox="0 0 53 53" fill="none" xmlns="http://www.w3.org/2000/svg">
<g clip-path="url(#clip0_6669_25236)">
<path d="M51.7707 45.8986H47.6725V15.162C47.6725 14.5099 47.4134 13.8845 46.9523 13.4233C46.4911 12.9622 45.8657 12.7031 45.2135 12.7031H20.2145C19.5623 12.7031 18.9369 12.9622 18.4758 13.4233C18.0146 13.8845 17.7556 14.5099 17.7556 15.162V46.5117C17.7387 48.0281 18.3076 49.4926 19.3438 50.5999C20.3799 51.7072 21.8034 52.372 23.3176 52.4557C23.3758 52.4557 23.4348 52.4598 23.493 52.4557H46.8528C48.374 52.454 49.8323 51.8489 50.9079 50.7733C51.9835 49.6977 52.5886 48.2394 52.5903 46.7182C52.5903 46.5009 52.5039 46.2924 52.3502 46.1387C52.1965 45.9849 51.988 45.8986 51.7707 45.8986ZM28.206 18.2357H37.222C37.4394 18.2357 37.6479 18.3221 37.8016 18.4758C37.9553 18.6295 38.0417 18.838 38.0417 19.0553C38.0417 19.2727 37.9553 19.4812 37.8016 19.6349C37.6479 19.7886 37.4394 19.875 37.222 19.875H28.206C27.9886 19.875 27.7801 19.7886 27.6264 19.6349C27.4727 19.4812 27.3863 19.2727 27.3863 19.0553C27.3863 18.838 27.4727 18.6295 27.6264 18.4758C27.7801 18.3221 27.9886 18.2357 28.206 18.2357ZM22.8783 23.7683H42.5497C42.7671 23.7683 42.9756 23.8546 43.1293 24.0083C43.283 24.1621 43.3693 24.3705 43.3693 24.5879C43.3693 24.8053 43.283 25.0138 43.1293 25.1675C42.9756 25.3212 42.7671 25.4076 42.5497 25.4076H22.8783C22.6609 25.4076 22.4524 25.3212 22.2987 25.1675C22.145 25.0138 22.0587 24.8053 22.0587 24.5879C22.0587 24.3705 22.145 24.1621 22.2987 24.0083C22.4524 23.8546 22.6609 23.7683 22.8783 23.7683ZM22.8783 30.9401C22.6609 30.9401 22.4524 30.8538 22.2987 30.7001C22.145 30.5464 22.0587 30.3379 22.0587 30.1205C22.0587 29.9031 22.145 29.6946 22.2987 29.5409C22.4524 29.3872 22.6609 29.3009 22.8783 29.3009H42.5497C42.7671 29.3009 42.9756 29.3872 43.1293 29.5409C43.283 29.6946 43.3693 29.9031 43.3693 30.1205C43.3693 30.3379 43.283 30.5464 43.1293 30.7001C42.9756 30.8538 42.7671 30.9401 42.5497 30.9401H22.8783ZM42.5497 36.4727H32.714C32.4966 36.4727 32.2881 36.3864 32.1344 36.2327C31.9807 36.0789 31.8944 35.8705 31.8944 35.6531C31.8944 35.4357 31.9807 35.2272 32.1344 35.0735C32.2881 34.9198 32.4966 34.8334 32.714 34.8334H42.5497C42.7671 34.8334 42.9756 34.9198 43.1293 35.0735C43.283 35.2272 43.3693 35.4357 43.3693 35.6531C43.3693 35.8705 43.283 36.0789 43.1293 36.2327C42.9756 36.3864 42.7671 36.4727 42.5497 36.4727ZM43.3693 41.1857C43.3693 41.403 43.283 41.6115 43.1293 41.7652C42.9756 41.9189 42.7671 42.0053 42.5497 42.0053H37.6319C37.4145 42.0053 37.206 41.9189 37.0523 41.7652C36.8986 41.6115 36.8122 41.403 36.8122 41.1857C36.8122 40.9683 36.8986 40.7598 37.0523 40.6061C37.206 40.4524 37.4145 40.366 37.6319 40.366H42.5497C42.7671 40.366 42.9756 40.4524 43.1293 40.6061C43.283 40.7598 43.3693 40.9683 43.3693 41.1857ZM46.8528 50.8164H27.5093C28.4118 49.938 28.9973 48.7849 29.174 47.5379H50.8691C50.679 48.463 50.1757 49.2942 49.4441 49.8915C48.7124 50.4887 47.7972 50.8154 46.8528 50.8164Z" fill="#98D99E" fill-opacity="0.4"/>
<path d="M32.8236 1.75082C32.594 1.45989 32.3013 1.22495 31.9676 1.06375C31.6339 0.90255 31.2679 0.819311 30.8973 0.820322H6.24886C5.87993 0.819549 5.5156 0.902156 5.18309 1.06197C4.85058 1.22178 4.55848 1.45467 4.32862 1.74324C2.41212 4.14512 1.36655 7.12579 1.36262 10.1986V26.5105C1.35931 28.6642 1.93654 30.7788 3.03359 32.6321C4.13065 34.4853 5.70694 36.0086 7.59663 37.0416L5.56965 40.5749C5.5161 40.6683 5.48145 40.7712 5.46769 40.878C5.45393 40.9847 5.46133 41.0931 5.48946 41.197C5.5176 41.3008 5.56591 41.3982 5.63166 41.4833C5.6974 41.5686 5.77928 41.64 5.87262 41.6935C5.96596 41.7471 6.06893 41.7817 6.17567 41.7955C6.2824 41.8092 6.39079 41.8018 6.49467 41.7737C6.59854 41.7456 6.69585 41.6973 6.78105 41.6315C6.86625 41.5658 6.93767 41.4839 6.99122 41.3906L9.09205 37.7284C10.4595 38.2528 11.9114 38.5224 13.3759 38.5238H23.7743C25.2388 38.5224 26.6907 38.2528 28.0581 37.7284L30.1589 41.3906C30.2671 41.5791 30.4457 41.7169 30.6555 41.7737C30.8653 41.8306 31.089 41.8017 31.2775 41.6936C31.466 41.5854 31.6039 41.4068 31.6607 41.197C31.7175 40.9872 31.6887 40.7635 31.5805 40.5749L29.5535 37.0416C31.4433 36.0088 33.0198 34.4855 34.1168 32.6323C35.2139 30.779 35.7911 28.6642 35.7876 26.5105V10.255C35.7833 7.16773 34.7392 4.17191 32.8236 1.75082ZM28.0582 10.656H9.09199L7.29896 2.4596H29.8512L28.0582 10.656ZM27.6996 12.2953L25.7325 21.2873C25.3755 22.92 24.4711 24.3816 23.1692 25.4295C21.8674 26.4775 20.2463 27.0488 18.5751 27.0488C16.9038 27.0488 15.2828 26.4775 13.981 25.4295C12.6791 24.3816 11.7746 22.92 11.4176 21.2873L9.45058 12.2953H27.6996ZM34.1483 26.5105C34.149 27.8731 33.8812 29.2224 33.3601 30.4814C32.8391 31.7404 32.075 32.8843 31.1115 33.8477C30.148 34.8112 29.0041 35.5753 27.7451 36.0964C26.4862 36.6175 25.1368 36.8853 23.7743 36.8845H13.3759C12.0133 36.8853 10.664 36.6175 9.40504 36.0964C8.14607 35.5753 7.00215 34.8112 6.03869 33.8477C5.07522 32.8843 4.31111 31.7404 3.79004 30.4814C3.26896 29.2224 3.00115 27.8731 3.00191 26.5105V10.1986C3.00191 7.13284 4.36099 4.04133 5.67615 2.71349L9.81598 21.6379C10.253 23.6358 11.3599 25.4242 12.9531 26.7066C14.5463 27.9889 16.5299 28.688 18.5751 28.688C20.6202 28.688 22.6039 27.9889 24.197 26.7066C25.7902 25.4242 26.8971 23.6358 27.3342 21.6379L31.4734 2.71659C32.7919 4.06133 34.1483 7.17649 34.1483 10.255V26.5105Z" fill="#242424"/>
<path d="M12.2165 30.35C11.3102 30.1971 10.4459 29.8565 9.679 29.35C8.91211 28.8435 8.25957 28.1823 7.76326 27.4088C7.70313 27.3195 7.62601 27.2429 7.53629 27.1834C7.44657 27.1239 7.34601 27.0827 7.24035 27.0621C7.1347 27.0414 7.02602 27.0418 6.92051 27.0632C6.815 27.0846 6.71474 27.1265 6.62545 27.1866C6.53615 27.2468 6.45957 27.3239 6.40009 27.4136C6.3406 27.5033 6.29936 27.6039 6.27874 27.7095C6.25811 27.8152 6.2585 27.9239 6.27987 28.0294C6.30125 28.1349 6.3432 28.2352 6.40332 28.3245C7.66923 30.1888 9.61224 31.486 11.8194 31.9404C12.0298 31.9916 12.2519 31.9574 12.4372 31.8454C12.6225 31.7334 12.7559 31.5526 12.8084 31.3425C12.8608 31.1324 12.828 30.9101 12.7171 30.7242C12.6062 30.5382 12.4262 30.4037 12.2165 30.35Z" fill="#242424"/>
<path d="M29.3869 27.4088C28.3322 28.9215 26.739 29.9738 24.9337 30.35C24.8287 30.3755 24.7298 30.4215 24.6426 30.4854C24.5555 30.5493 24.4819 30.6298 24.426 30.7223C24.3701 30.8148 24.333 30.9174 24.3169 31.0242C24.3008 31.1311 24.306 31.2401 24.3321 31.3449C24.3583 31.4497 24.405 31.5484 24.4694 31.6351C24.5338 31.7218 24.6148 31.795 24.7076 31.8503C24.8004 31.9057 24.9032 31.9421 25.0101 31.9576C25.1171 31.973 25.226 31.9672 25.3307 31.9404C26.4349 31.7463 27.4866 31.3246 28.4191 30.7021C29.3515 30.0796 30.1442 29.2699 30.7468 28.3245C30.8069 28.2352 30.8489 28.1349 30.8703 28.0294C30.8916 27.9239 30.892 27.8152 30.8714 27.7095C30.8508 27.6039 30.8095 27.5033 30.75 27.4136C30.6906 27.3239 30.614 27.2468 30.5247 27.1866C30.4354 27.1265 30.3351 27.0846 30.2296 27.0632C30.1241 27.0418 30.0154 27.0414 29.9098 27.0621C29.8041 27.0827 29.7036 27.1239 29.6138 27.1834C29.5241 27.2429 29.447 27.3195 29.3869 27.4088Z" fill="#242424"/>
</g>
<defs>
<clipPath id="clip0_6669_25236">
<rect width="52.457" height="52.457" fill="white" transform="translate(0.542969)"/>
</clipPath>
</defs>
</svg>
