<svg width="53" height="53" viewBox="0 0 53 53" fill="none" xmlns="http://www.w3.org/2000/svg">
<g clip-path="url(#clip0_6669_25261)">
<path d="M51.7707 45.8986H47.6725V15.162C47.6725 14.5099 47.4134 13.8845 46.9523 13.4233C46.4911 12.9622 45.8657 12.7031 45.2135 12.7031H20.2145C19.5623 12.7031 18.9369 12.9622 18.4758 13.4233C18.0146 13.8845 17.7556 14.5099 17.7556 15.162V46.5117C17.7387 48.0281 18.3076 49.4926 19.3438 50.5999C20.3799 51.7072 21.8034 52.372 23.3176 52.4557C23.3758 52.4557 23.4348 52.4598 23.493 52.4557H46.8528C48.374 52.454 49.8323 51.8489 50.9079 50.7733C51.9835 49.6977 52.5886 48.2394 52.5903 46.7182C52.5903 46.5009 52.5039 46.2924 52.3502 46.1387C52.1965 45.9849 51.988 45.8986 51.7707 45.8986ZM28.206 18.2357H37.222C37.4394 18.2357 37.6479 18.3221 37.8016 18.4758C37.9553 18.6295 38.0417 18.838 38.0417 19.0553C38.0417 19.2727 37.9553 19.4812 37.8016 19.6349C37.6479 19.7886 37.4394 19.875 37.222 19.875H28.206C27.9886 19.875 27.7801 19.7886 27.6264 19.6349C27.4727 19.4812 27.3863 19.2727 27.3863 19.0553C27.3863 18.838 27.4727 18.6295 27.6264 18.4758C27.7801 18.3221 27.9886 18.2357 28.206 18.2357ZM22.8783 23.7683H42.5497C42.7671 23.7683 42.9756 23.8546 43.1293 24.0083C43.283 24.1621 43.3693 24.3705 43.3693 24.5879C43.3693 24.8053 43.283 25.0138 43.1293 25.1675C42.9756 25.3212 42.7671 25.4076 42.5497 25.4076H22.8783C22.6609 25.4076 22.4524 25.3212 22.2987 25.1675C22.145 25.0138 22.0587 24.8053 22.0587 24.5879C22.0587 24.3705 22.145 24.1621 22.2987 24.0083C22.4524 23.8546 22.6609 23.7683 22.8783 23.7683ZM22.8783 30.9401C22.6609 30.9401 22.4524 30.8538 22.2987 30.7001C22.145 30.5464 22.0587 30.3379 22.0587 30.1205C22.0587 29.9031 22.145 29.6946 22.2987 29.5409C22.4524 29.3872 22.6609 29.3009 22.8783 29.3009H42.5497C42.7671 29.3009 42.9756 29.3872 43.1293 29.5409C43.283 29.6946 43.3693 29.9031 43.3693 30.1205C43.3693 30.3379 43.283 30.5464 43.1293 30.7001C42.9756 30.8538 42.7671 30.9401 42.5497 30.9401H22.8783ZM42.5497 36.4727H32.714C32.4966 36.4727 32.2881 36.3864 32.1344 36.2327C31.9807 36.0789 31.8944 35.8705 31.8944 35.6531C31.8944 35.4357 31.9807 35.2272 32.1344 35.0735C32.2881 34.9198 32.4966 34.8334 32.714 34.8334H42.5497C42.7671 34.8334 42.9756 34.9198 43.1293 35.0735C43.283 35.2272 43.3693 35.4357 43.3693 35.6531C43.3693 35.8705 43.283 36.0789 43.1293 36.2327C42.9756 36.3864 42.7671 36.4727 42.5497 36.4727ZM43.3693 41.1857C43.3693 41.403 43.283 41.6115 43.1293 41.7652C42.9756 41.9189 42.7671 42.0053 42.5497 42.0053H37.6319C37.4145 42.0053 37.206 41.9189 37.0523 41.7652C36.8986 41.6115 36.8122 41.403 36.8122 41.1857C36.8122 40.9683 36.8986 40.7598 37.0523 40.6061C37.206 40.4524 37.4145 40.366 37.6319 40.366H42.5497C42.7671 40.366 42.9756 40.4524 43.1293 40.6061C43.283 40.7598 43.3693 40.9683 43.3693 41.1857ZM46.8528 50.8164H27.5093C28.4118 49.938 28.9973 48.7849 29.174 47.5379H50.8691C50.679 48.463 50.1757 49.2942 49.4441 49.8915C48.7124 50.4887 47.7972 50.8154 46.8528 50.8164Z" fill="#98D99E" fill-opacity="0.4"/>
<path d="M41.525 33.606V18.8524H42.3447C42.562 18.8524 42.7705 18.7661 42.9242 18.6124C43.078 18.4586 43.1643 18.2502 43.1643 18.0328C43.1643 17.8154 43.078 17.6069 42.9242 17.4532C42.7705 17.2995 42.562 17.2131 42.3447 17.2131H34.9679V5.73816H35.7875C36.0049 5.73816 36.2134 5.6518 36.3671 5.49809C36.5208 5.34438 36.6072 5.1359 36.6072 4.91852C36.6072 4.70114 36.5208 4.49266 36.3671 4.33894C36.2134 4.18523 36.0049 4.09888 35.7875 4.09888H30.05V3.27924C30.05 2.62709 29.791 2.00165 29.3298 1.54051C28.8687 1.07938 28.2433 0.820313 27.5911 0.820312H17.7554C17.1033 0.820313 16.4778 1.07938 16.0167 1.54051C15.5556 2.00165 15.2965 2.62709 15.2965 3.27924V4.09888H9.55902C9.34164 4.09888 9.13316 4.18523 8.97945 4.33894C8.82573 4.49266 8.73938 4.70114 8.73938 4.91852C8.73938 5.1359 8.82573 5.34438 8.97945 5.49809C9.13316 5.6518 9.34164 5.73816 9.55902 5.73816H10.3787V17.2131H3.00189C2.78451 17.2131 2.57603 17.2995 2.42232 17.4532C2.26861 17.6069 2.18225 17.8154 2.18225 18.0328C2.18225 18.2502 2.26861 18.4586 2.42232 18.6124C2.57603 18.7661 2.78451 18.8524 3.00189 18.8524H3.82153V33.606C3.38677 33.606 2.96981 33.7787 2.66239 34.0861C2.35496 34.3935 2.18225 34.8105 2.18225 35.2452V36.8845C2.18225 37.3193 2.35496 37.7362 2.66239 38.0437C2.96981 38.3511 3.38677 38.5238 3.82153 38.5238H41.525C41.9598 38.5238 42.3767 38.3511 42.6842 38.0437C42.9916 37.7362 43.1643 37.3193 43.1643 36.8845V35.2452C43.1643 34.8105 42.9916 34.3935 42.6842 34.0861C42.3767 33.7787 41.9598 33.606 41.525 33.606ZM39.8857 18.8524V33.606H34.9679V18.8524H39.8857ZM16.9358 3.27924C16.9358 3.06185 17.0221 2.85337 17.1759 2.69966C17.3296 2.54595 17.538 2.45959 17.7554 2.45959H27.5911C27.8085 2.45959 28.017 2.54595 28.1707 2.69966C28.3244 2.85337 28.4108 3.06185 28.4108 3.27924V6.5578C28.4108 6.77518 28.3244 6.98366 28.1707 7.13737C28.017 7.29109 27.8085 7.37744 27.5911 7.37744H17.7554C17.538 7.37744 17.3296 7.29109 17.1759 7.13737C17.0221 6.98366 16.9358 6.77518 16.9358 6.5578V3.27924ZM15.2965 5.73816V6.5578C15.2965 7.20995 15.5556 7.83538 16.0167 8.29652C16.4778 8.75766 17.1033 9.01672 17.7554 9.01672H27.5911C28.2433 9.01672 28.8687 8.75766 29.3298 8.29652C29.791 7.83538 30.05 7.20995 30.05 6.5578V5.73816H33.3286V33.606H27.5911V28.6881C27.5911 28.036 27.3321 27.4105 26.8709 26.9494C26.4098 26.4883 25.7843 26.2292 25.1322 26.2292H20.2144C19.5622 26.2292 18.9368 26.4883 18.4756 26.9494C18.0145 27.4105 17.7554 28.036 17.7554 28.6881V33.606H12.0179V5.73816H15.2965ZM19.3947 33.606V28.6881C19.3947 28.4707 19.4811 28.2622 19.6348 28.1085C19.7885 27.9548 19.997 27.8685 20.2144 27.8685H21.8536V33.606H19.3947ZM23.4929 27.8685H25.1322C25.3496 27.8685 25.5581 27.9548 25.7118 28.1085C25.8655 28.2622 25.9518 28.4707 25.9518 28.6881V33.606H23.4929V27.8685ZM5.46082 18.8524H10.3787V33.606H5.46082V18.8524ZM3.82153 36.8845V35.2452H41.525V36.8845H3.82153Z" fill="#242424"/>
<path d="M15.2965 16.3944H16.9358C17.3706 16.3944 17.7875 16.2217 18.0949 15.9143C18.4024 15.6068 18.5751 15.1899 18.5751 14.7551V13.1158C18.5751 12.6811 18.4024 12.2641 18.0949 11.9567C17.7875 11.6493 17.3706 11.4766 16.9358 11.4766H15.2965C14.8617 11.4766 14.4448 11.6493 14.1374 11.9567C13.8299 12.2641 13.6572 12.6811 13.6572 13.1158V14.7551C13.6572 15.1899 13.8299 15.6068 14.1374 15.9143C14.4448 16.2217 14.8617 16.3944 15.2965 16.3944ZM15.2965 13.1158H16.9358V14.7551H15.2965V13.1158Z" fill="#242424"/>
<path d="M21.8536 16.3944H23.4929C23.9277 16.3944 24.3446 16.2217 24.6521 15.9143C24.9595 15.6068 25.1322 15.1899 25.1322 14.7551V13.1158C25.1322 12.6811 24.9595 12.2641 24.6521 11.9567C24.3446 11.6493 23.9277 11.4766 23.4929 11.4766H21.8536C21.4189 11.4766 21.0019 11.6493 20.6945 11.9567C20.3871 12.2641 20.2144 12.6811 20.2144 13.1158V14.7551C20.2144 15.1899 20.3871 15.6068 20.6945 15.9143C21.0019 16.2217 21.4189 16.3944 21.8536 16.3944ZM21.8536 13.1158H23.4929V14.7551H21.8536V13.1158Z" fill="#242424"/>
<path d="M28.4108 16.3944H30.05C30.4848 16.3944 30.9018 16.2217 31.2092 15.9143C31.5166 15.6068 31.6893 15.1899 31.6893 14.7551V13.1158C31.6893 12.6811 31.5166 12.2641 31.2092 11.9567C30.9018 11.6493 30.4848 11.4766 30.05 11.4766H28.4108C27.976 11.4766 27.559 11.6493 27.2516 11.9567C26.9442 12.2641 26.7715 12.6811 26.7715 13.1158V14.7551C26.7715 15.1899 26.9442 15.6068 27.2516 15.9143C27.559 16.2217 27.976 16.3944 28.4108 16.3944ZM28.4108 13.1158H30.05V14.7551H28.4108V13.1158Z" fill="#242424"/>
<path d="M15.2965 23.7694H16.9358C17.3706 23.7694 17.7875 23.5967 18.0949 23.2893C18.4024 22.9818 18.5751 22.5649 18.5751 22.1301V20.4908C18.5751 20.0561 18.4024 19.6391 18.0949 19.3317C17.7875 19.0243 17.3706 18.8516 16.9358 18.8516H15.2965C14.8617 18.8516 14.4448 19.0243 14.1374 19.3317C13.8299 19.6391 13.6572 20.0561 13.6572 20.4908V22.1301C13.6572 22.5649 13.8299 22.9818 14.1374 23.2893C14.4448 23.5967 14.8617 23.7694 15.2965 23.7694ZM15.2965 20.4908H16.9358V22.1301H15.2965V20.4908Z" fill="#242424"/>
<path d="M21.8536 23.7694H23.4929C23.9277 23.7694 24.3446 23.5967 24.6521 23.2893C24.9595 22.9818 25.1322 22.5649 25.1322 22.1301V20.4908C25.1322 20.0561 24.9595 19.6391 24.6521 19.3317C24.3446 19.0243 23.9277 18.8516 23.4929 18.8516H21.8536C21.4189 18.8516 21.0019 19.0243 20.6945 19.3317C20.3871 19.6391 20.2144 20.0561 20.2144 20.4908V22.1301C20.2144 22.5649 20.3871 22.9818 20.6945 23.2893C21.0019 23.5967 21.4189 23.7694 21.8536 23.7694ZM21.8536 20.4908H23.4929V22.1301H21.8536V20.4908Z" fill="#242424"/>
<path d="M28.4108 23.7694H30.05C30.4848 23.7694 30.9018 23.5967 31.2092 23.2893C31.5166 22.9818 31.6893 22.5649 31.6893 22.1301V20.4908C31.6893 20.0561 31.5166 19.6391 31.2092 19.3317C30.9018 19.0243 30.4848 18.8516 30.05 18.8516H28.4108C27.976 18.8516 27.559 19.0243 27.2516 19.3317C26.9442 19.6391 26.7715 20.0561 26.7715 20.4908V22.1301C26.7715 22.5649 26.9442 22.9818 27.2516 23.2893C27.559 23.5967 27.976 23.7694 28.4108 23.7694ZM28.4108 20.4908H30.05V22.1301H28.4108V20.4908Z" fill="#242424"/>
</g>
<defs>
<clipPath id="clip0_6669_25261">
<rect width="52.457" height="52.457" fill="white" transform="translate(0.542969)"/>
</clipPath>
</defs>
</svg>
