<svg width="16" height="17" viewBox="0 0 16 17" fill="none" xmlns="http://www.w3.org/2000/svg">
<path d="M11.8958 7.625V6.58333C11.8958 6.0308 11.6763 5.5009 11.2856 5.11019C10.8949 4.71949 10.365 4.5 9.8125 4.5H6.6875C6.13497 4.5 5.60506 4.71949 5.21436 5.11019C4.82366 5.5009 4.60417 6.0308 4.60417 6.58333V7.625C3.91375 7.62583 3.25185 7.90046 2.76366 8.38866C2.27546 8.87685 2.00083 9.53875 2 10.2292L2 12.8333C2.00083 13.5237 2.27546 14.1856 2.76366 14.6738C3.25185 15.162 3.91375 15.4367 4.60417 15.4375C4.60417 15.8519 4.76879 16.2493 5.06181 16.5424C5.35484 16.8354 5.75227 17 6.16667 17H10.3333C10.7477 17 11.1452 16.8354 11.4382 16.5424C11.7312 16.2493 11.8958 15.8519 11.8958 15.4375C12.5862 15.4367 13.2481 15.162 13.7363 14.6738C14.2245 14.1856 14.4992 13.5237 14.5 12.8333V10.2292C14.4992 9.53875 14.2245 8.87685 13.7363 8.38866C13.2481 7.90046 12.5862 7.62583 11.8958 7.625ZM5.64583 6.58333C5.64583 6.30707 5.75558 6.04211 5.95093 5.84676C6.14628 5.65141 6.41123 5.54167 6.6875 5.54167H9.8125C10.0888 5.54167 10.3537 5.65141 10.5491 5.84676C10.7444 6.04211 10.8542 6.30707 10.8542 6.58333V7.625H5.64583V6.58333ZM10.8542 15.4375C10.8542 15.5756 10.7993 15.7081 10.7016 15.8058C10.6039 15.9035 10.4715 15.9583 10.3333 15.9583H6.16667C6.02853 15.9583 5.89606 15.9035 5.79838 15.8058C5.70071 15.7081 5.64583 15.5756 5.64583 15.4375V13.3542C5.64583 13.216 5.70071 13.0836 5.79838 12.9859C5.89606 12.8882 6.02853 12.8333 6.16667 12.8333H10.3333C10.4715 12.8333 10.6039 12.8882 10.7016 12.9859C10.7993 13.0836 10.8542 13.216 10.8542 13.3542V15.4375ZM13.4583 12.8333C13.4583 13.2477 13.2937 13.6452 13.0007 13.9382C12.7077 14.2312 12.3102 14.3958 11.8958 14.3958V13.3542C11.8958 12.9398 11.7312 12.5423 11.4382 12.2493C11.1452 11.9563 10.7477 11.7917 10.3333 11.7917H6.16667C5.75227 11.7917 5.35484 11.9563 5.06181 12.2493C4.76879 12.5423 4.60417 12.9398 4.60417 13.3542V14.3958C4.18977 14.3958 3.79234 14.2312 3.49931 13.9382C3.20629 13.6452 3.04167 13.2477 3.04167 12.8333V10.2292C3.04167 9.81477 3.20629 9.41734 3.49931 9.12431C3.79234 8.83129 4.18977 8.66667 4.60417 8.66667H11.8958C12.3102 8.66667 12.7077 8.83129 13.0007 9.12431C13.2937 9.41734 13.4583 9.81477 13.4583 10.2292V12.8333Z" fill="#029155"/>
<path d="M11.3743 9.70703H10.3326C10.1945 9.70703 10.062 9.7619 9.96432 9.85958C9.86664 9.95726 9.81177 10.0897 9.81177 10.2279C9.81177 10.366 9.86664 10.4985 9.96432 10.5961C10.062 10.6938 10.1945 10.7487 10.3326 10.7487H11.3743C11.5124 10.7487 11.6449 10.6938 11.7426 10.5961C11.8402 10.4985 11.8951 10.366 11.8951 10.2279C11.8951 10.0897 11.8402 9.95726 11.7426 9.85958C11.6449 9.7619 11.5124 9.70703 11.3743 9.70703Z" fill="#029155"/>
</svg>
