<svg width="23" height="22" viewBox="0 0 23 22" fill="none" xmlns="http://www.w3.org/2000/svg">
<path d="M14.0059 2.29288L14.7649 4.62621C15.1079 5.70618 16.096 6.44036 17.2144 6.44621H19.6064C20.7282 6.43898 21.7257 7.16913 22.0725 8.25147C22.4194 9.33381 22.0359 10.5194 21.1244 11.1829L19.1579 12.6295C18.2527 13.2962 17.8722 14.4776 18.2149 15.5579L18.9739 17.8912C19.3493 18.9752 18.9828 20.1808 18.0708 20.862C17.1588 21.5431 15.9152 21.5401 15.0064 20.8545L13.0744 19.3962C12.1687 18.7306 10.9441 18.7306 10.0384 19.3962L8.10639 20.8545C7.20266 21.5256 5.97509 21.5274 5.06947 20.8589C4.16385 20.1905 3.7877 19.0051 4.13889 17.9262L4.89789 15.5929C5.24055 14.5126 4.86012 13.3312 3.95489 12.6645L1.94239 11.1945C1.01239 10.5297 0.622397 9.32473 0.982963 8.23004C1.34353 7.13536 2.36925 6.41027 3.50639 6.44621H5.89839C7.01067 6.44368 7.99691 5.7203 8.34789 4.64955L9.10689 2.31621C9.44715 1.23846 10.4325 0.505342 11.548 0.500029C12.6636 0.494716 13.6557 1.21841 14.0059 2.29288Z" fill="#C9AA6D"/>
</svg>
