<svg width="26" height="24" viewBox="0 0 26 24" fill="none" xmlns="http://www.w3.org/2000/svg">
<path fill-rule="evenodd" clip-rule="evenodd" d="M9.99918 2.06691C10.3832 0.824748 11.5391 -0.0163992 12.8392 0.000242567C14.1466 -0.0128919 15.3048 0.840844 15.6792 2.09358L16.5592 4.76024C16.9543 5.99441 18.1033 6.83051 19.3992 6.82691H22.1725C23.4989 6.77665 24.6993 7.60776 25.119 8.86697C25.5387 10.1262 25.0771 11.5113 23.9859 12.2669L21.7059 13.9336C20.6549 14.6884 20.2129 16.0363 20.6125 17.2669L21.4925 19.9336C21.7949 20.8567 21.6316 21.8691 21.0543 22.6504C20.4769 23.4316 19.5571 23.8849 18.5859 23.8669C17.956 23.8622 17.3442 23.6566 16.8392 23.2802L14.6525 21.6136C13.6038 20.8487 12.1812 20.8487 11.1325 21.6136L8.83918 23.2802C8.32815 23.6914 7.695 23.9213 7.03918 23.9336C6.06089 23.9417 5.14008 23.4723 4.57194 22.6759C4.0038 21.8794 3.85971 20.8559 4.18585 19.9336L5.06585 17.2669C5.48983 16.04 5.06882 14.6798 4.02585 13.9069L1.74585 12.2402C0.689009 11.482 0.244393 10.127 0.646558 8.89006C1.04872 7.6531 2.20518 6.81865 3.50585 6.82691H6.27918C7.58229 6.82685 8.73351 5.9783 9.11918 4.73358L9.99918 2.06691ZM13.5458 2.76024C13.4639 2.44096 13.1684 2.22354 12.8392 2.24024C12.4936 2.22841 12.1922 2.47299 12.1325 2.81358L11.2525 5.48024C10.5531 7.63533 8.54491 9.0944 6.27918 9.09358H3.45252C3.13833 9.10262 2.86345 9.30746 2.76495 9.60594C2.66645 9.90443 2.76542 10.2326 3.01252 10.4269L5.29252 12.0936C7.13156 13.4237 7.90195 15.7888 7.19918 17.9469L6.31918 20.6136C6.23276 20.8326 6.26823 21.0809 6.41252 21.2669C6.56215 21.4823 6.80381 21.6155 7.06585 21.6269C7.22588 21.6221 7.38013 21.566 7.50585 21.4669L9.75918 19.8002C11.5957 18.4659 14.0826 18.4659 15.9192 19.8002L18.1458 21.3869C18.2716 21.486 18.4258 21.5421 18.5858 21.5469C18.836 21.5307 19.0658 21.4035 19.2125 21.2002C19.3568 21.0142 19.3923 20.7659 19.3058 20.5469L18.4258 17.8802C17.7231 15.7221 18.4935 13.3571 20.3325 12.0269L22.6125 10.3736C22.8596 10.1793 22.9586 9.8511 22.8601 9.55261C22.7616 9.25413 22.4867 9.04929 22.1725 9.04024H19.3992C17.1335 9.04106 15.1252 7.58199 14.4258 5.42691L13.5458 2.76024Z" fill="#C9AA6D"/>
</svg>
