<svg width="25" height="24" viewBox="0 0 25 24" fill="none" xmlns="http://www.w3.org/2000/svg">
<path fill-rule="evenodd" clip-rule="evenodd" d="M9.49918 2.06691C9.88322 0.824748 11.0391 -0.0163992 12.3392 0.000242567C13.6466 -0.0128919 14.8048 0.840844 15.1792 2.09358L16.0592 4.76024C16.4543 5.99441 17.6033 6.83051 18.8992 6.82691H21.6725C22.9989 6.77665 24.1993 7.60776 24.619 8.86697C25.0387 10.1262 24.5771 11.5113 23.4859 12.2669L21.2059 13.9336C20.1549 14.6884 19.7129 16.0363 20.1125 17.2669L20.9925 19.9336C21.2949 20.8567 21.1316 21.8691 20.5543 22.6504C19.9769 23.4316 19.0571 23.8849 18.0859 23.8669C17.456 23.8622 16.8442 23.6566 16.3392 23.2802L14.1525 21.6136C13.1038 20.8487 11.6812 20.8487 10.6325 21.6136L8.33918 23.2802C7.82815 23.6914 7.195 23.9213 6.53918 23.9336C5.56089 23.9417 4.64008 23.4723 4.07194 22.6759C3.5038 21.8794 3.35971 20.8559 3.68585 19.9336L4.56585 17.2669C4.98983 16.04 4.56882 14.6798 3.52585 13.9069L1.24585 12.2402C0.189009 11.482 -0.255607 10.127 0.146558 8.89006C0.548723 7.6531 1.70518 6.81865 3.00585 6.82691H5.77918C7.08229 6.82685 8.23351 5.9783 8.61918 4.73358L9.49918 2.06691ZM13.0458 2.76024C12.9639 2.44096 12.6684 2.22354 12.3392 2.24024C11.9936 2.22841 11.6922 2.47299 11.6325 2.81358L10.7525 5.48024C10.0531 7.63533 8.04491 9.0944 5.77918 9.09358H2.95252C2.63833 9.10262 2.36345 9.30746 2.26495 9.60594C2.16645 9.90443 2.26542 10.2326 2.51252 10.4269L4.79252 12.0936C6.63156 13.4237 7.40195 15.7888 6.69918 17.9469L5.81918 20.6136C5.73276 20.8326 5.76823 21.0809 5.91252 21.2669C6.06215 21.4823 6.30381 21.6155 6.56585 21.6269C6.72588 21.6221 6.88013 21.566 7.00585 21.4669L9.25918 19.8002C11.0957 18.4659 13.5826 18.4659 15.4192 19.8002L17.6458 21.3869C17.7716 21.486 17.9258 21.5421 18.0858 21.5469C18.336 21.5307 18.5658 21.4035 18.7125 21.2002C18.8568 21.0142 18.8923 20.7659 18.8058 20.5469L17.9258 17.8802C17.2231 15.7221 17.9935 13.3571 19.8325 12.0269L22.1125 10.3736C22.3596 10.1793 22.4586 9.8511 22.3601 9.55261C22.2616 9.25413 21.9867 9.04929 21.6725 9.04024H18.8992C16.6335 9.04106 14.6252 7.58199 13.9258 5.42691L13.0458 2.76024Z" fill="#029155"/>
</svg>
