<svg width="29" height="30" viewBox="0 0 29 30" fill="none" xmlns="http://www.w3.org/2000/svg">
<path d="M28.125 7.50002H25.8011L14.7009 0.716559C14.6028 0.656679 14.49 0.625 14.375 0.625C14.26 0.625 14.1472 0.656679 14.049 0.716559L2.94888 7.50002H0.625C0.459242 7.50003 0.300276 7.56588 0.183067 7.68309C0.065859 7.8003 8.28727e-06 7.95926 0 8.12502V28.75C0 28.9158 0.065848 29.0748 0.183058 29.192C0.300268 29.3092 0.45924 29.375 0.625 29.375H28.125C28.2071 29.375 28.2884 29.3589 28.3642 29.3275C28.44 29.2961 28.5089 29.2501 28.567 29.192C28.625 29.134 28.6711 29.0651 28.7025 28.9892C28.7339 28.9134 28.75 28.8321 28.75 28.75V8.12502C28.75 8.04294 28.7339 7.96166 28.7025 7.88582C28.6711 7.80998 28.625 7.74107 28.567 7.68303C28.5089 7.62499 28.44 7.57895 28.3642 7.54755C28.2884 7.51615 28.2071 7.5 28.125 7.50002ZM15 28.125H13.75V22.5C13.75 21.3397 13.2891 20.2269 12.4686 19.4064C11.6481 18.586 10.5353 18.125 9.375 18.125C8.21468 18.125 7.10188 18.586 6.28141 19.4064C5.46094 20.2269 5 21.3397 5 22.5V28.125H3.75V16.875H25V28.125H23.75V22.5C23.75 21.3397 23.2891 20.2269 22.4686 19.4064C21.6481 18.586 20.5353 18.125 19.375 18.125C18.2147 18.125 17.1019 18.586 16.2814 19.4064C15.4609 20.2269 15 21.3397 15 22.5V28.125ZM25 15.625H3.75V11.875H25V15.625ZM14.375 1.98243L25 8.47565V10.625H3.75V8.47565L14.375 1.98243ZM1.25 28.125V8.75002H2.5V28.125H1.25ZM6.25 28.125V22.5C6.25 21.6712 6.57924 20.8764 7.16529 20.2903C7.75134 19.7043 8.5462 19.375 9.375 19.375C10.2038 19.375 10.9987 19.7043 11.5847 20.2903C12.1708 20.8764 12.5 21.6712 12.5 22.5V28.125H6.25ZM16.25 28.125V22.5C16.25 21.6712 16.5792 20.8764 17.1653 20.2903C17.7513 19.7043 18.5462 19.375 19.375 19.375C20.2038 19.375 20.9987 19.7043 21.5847 20.2903C22.1708 20.8764 22.5 21.6712 22.5 22.5V28.125H16.25ZM26.25 28.125V8.75002H27.5V28.125H26.25Z" fill="#242424"/>
</svg>
