<svg width="33" height="20" viewBox="0 0 33 20" fill="none" xmlns="http://www.w3.org/2000/svg">
<path d="M16.5 19.5C6.03175 19.5 0.84175 10.8303 0.626 10.4615C0.458 10.1743 0.458 9.82544 0.626 9.5383C0.84175 9.1697 6.03175 0.5 16.5 0.5C26.9683 0.5 32.1583 9.1697 32.374 9.53854C32.542 9.82568 32.542 10.1746 32.374 10.4617C32.1583 10.8303 26.9683 19.5 16.5 19.5ZM2.67675 9.99858C3.86625 11.7112 8.5365 17.6 16.5 17.6C24.4888 17.6 29.1383 11.7159 30.3232 10.0014C29.1337 8.28881 24.4635 2.4 16.5 2.4C8.51125 2.4 3.86175 8.28406 2.67675 9.99858ZM16.5 15.7C13.1915 15.7 10.5 13.1431 10.5 10C10.5 6.85693 13.1915 4.3 16.5 4.3C19.8085 4.3 22.5 6.85693 22.5 10C22.5 13.1431 19.8085 15.7 16.5 15.7ZM16.5 6.2C14.2945 6.2 12.5 7.90478 12.5 10C12.5 12.0952 14.2945 13.8 16.5 13.8C18.7055 13.8 20.5 12.0952 20.5 10C20.5 7.90478 18.7055 6.2 16.5 6.2Z" fill="#029155"/>
</svg>
