<svg width="33" height="32" viewBox="0 0 33 32" fill="none" xmlns="http://www.w3.org/2000/svg">
<path fill-rule="evenodd" clip-rule="evenodd" d="M7.2746 20.0271C8.19309 18.3622 9.94519 17.3294 11.8467 17.332C14.0963 17.3653 16.0708 18.8381 16.744 20.9848C17.4172 23.1316 16.6373 25.4681 14.8095 26.78C12.9818 28.092 10.5186 28.0834 8.7 26.7587L6.76667 28.772C6.57575 28.9641 6.31744 29.0741 6.04667 29.0787C5.7875 29.0814 5.53795 28.9806 5.35334 28.7987C4.9634 28.4083 4.9634 27.7758 5.35334 27.3854L7.28667 25.332H7.43334C6.41694 23.725 6.35611 21.6921 7.2746 20.0271ZM8.63334 22.5454C8.63334 24.32 10.072 25.7587 11.8467 25.7587V25.7187C13.6058 25.7188 15.0381 24.3044 15.06 22.5454C15.06 20.7707 13.6213 19.332 11.8467 19.332C10.072 19.332 8.63334 20.7707 8.63334 22.5454Z" fill="#029155"/>
<path fill-rule="evenodd" clip-rule="evenodd" d="M18.2999 3.17224L27.6332 12.5056C27.8556 12.6907 27.9869 12.963 27.9932 13.2522V22.5856C27.9932 24.2653 27.326 25.8762 26.1382 27.0639C24.9505 28.2516 23.3396 28.9189 21.6599 28.9189H17.8332C17.2809 28.9189 16.8332 28.4712 16.8332 27.9189C16.8332 27.3666 17.2809 26.9189 17.8332 26.9189H21.5932C23.9865 26.9189 25.9266 24.9788 25.9266 22.5856V14.2522H20.2599C18.2379 14.2449 16.6005 12.6076 16.5932 10.5856V4.91891H13.5932C11.203 4.92623 9.26721 6.86204 9.25989 9.25224V15.9189C9.25989 16.4712 8.81218 16.9189 8.25989 16.9189C7.70761 16.9189 7.25989 16.4712 7.25989 15.9189V9.25224C7.24924 7.56562 7.91179 5.94441 9.10068 4.74802C10.2896 3.55162 11.9066 2.87887 13.5932 2.87891H17.5932C17.8584 2.87914 18.1125 2.98465 18.2999 3.17224ZM18.5933 6.29224V10.5856C18.5933 11.506 19.3394 12.2522 20.2599 12.2522H24.4999L18.5933 6.29224Z" fill="#029155"/>
</svg>
