<svg width="33" height="32" viewBox="0 0 33 32" fill="none" xmlns="http://www.w3.org/2000/svg">
<path fill-rule="evenodd" clip-rule="evenodd" d="M9.26001 15.226C10.0776 15.5914 10.749 16.2205 11.1667 17.0127L14.6867 23.426C14.9502 23.9031 15.0835 24.4411 15.0733 24.986L15.0067 27.6527C15.0045 28.2031 14.71 28.7109 14.2333 28.986C14.0157 29.1012 13.7729 29.1608 13.5267 29.1594C13.2299 29.1582 12.9393 29.0751 12.6867 28.9194L10.4467 27.5861C9.98132 27.2987 9.59968 26.8941 9.34001 26.4127L5.83334 19.9994C5.39153 19.1802 5.24109 18.2353 5.40667 17.3194C5.50848 16.4547 5.99947 15.6839 6.74001 15.226C7.53354 14.8309 8.46648 14.8309 9.26001 15.226ZM11.4733 25.8127L13.02 26.746L13.0067 24.906C13.0022 24.7105 12.9519 24.5187 12.86 24.3461L9.35334 17.9327C9.1493 17.529 8.81606 17.2051 8.40667 17.0127C8.26993 16.9444 8.11951 16.908 7.96667 16.906C7.85519 16.9071 7.74554 16.9345 7.64667 16.986C7.42564 17.1342 7.2835 17.3743 7.26001 17.6394C7.19908 18.1011 7.29285 18.57 7.52667 18.9727L11.0333 25.3327C11.1279 25.5337 11.2813 25.7011 11.4733 25.8127Z" fill="#029155"/>
<path fill-rule="evenodd" clip-rule="evenodd" d="M18.1266 3.13318L27.4599 12.4665C27.6576 12.6636 27.7639 12.9343 27.7532 13.2132V22.5465C27.7532 24.2262 27.086 25.8371 25.8982 27.0249C24.7105 28.2126 23.0996 28.8798 21.4199 28.8798H17.5932C17.0409 28.8798 16.5932 28.4321 16.5932 27.8798C16.5932 27.3276 17.0409 26.8798 17.5932 26.8798H21.4199C23.8101 26.8725 25.7459 24.9367 25.7532 22.5465V14.2132H20.0866C18.0645 14.2059 16.4272 12.5685 16.4199 10.5465V4.87984H13.4199C11.0267 4.87984 9.08655 6.81994 9.08655 9.21318V12.7465C9.08655 13.2988 8.63884 13.7465 8.08655 13.7465C7.53427 13.7465 7.08655 13.2988 7.08655 12.7465V9.21318C7.0759 7.52655 7.73845 5.90535 8.92734 4.70895C10.1162 3.51256 11.7332 2.83981 13.4199 2.83984H17.4199C17.685 2.84008 17.9392 2.94559 18.1266 3.13318ZM18.4199 6.25318V10.5465C18.4199 11.467 19.1661 12.2132 20.0866 12.2132H24.3799L18.4199 6.25318Z" fill="#029155"/>
</svg>
