<svg width="22" height="27" viewBox="0 0 22 27" fill="none" xmlns="http://www.w3.org/2000/svg">
<path fill-rule="evenodd" clip-rule="evenodd" d="M21.1066 19.7813L21.4266 21.3013C21.7299 22.6154 21.4305 23.9963 20.6102 25.0668C19.7899 26.1373 18.5344 26.7856 17.1866 26.8346H4.8133C3.46553 26.7856 2.21005 26.1373 1.38976 25.0668C0.569464 23.9963 0.270052 22.6154 0.573296 21.3013L0.893296 19.7813C1.26134 17.7237 3.03013 16.2116 5.11996 16.168H16.88C18.9698 16.2116 20.7386 17.7237 21.1066 19.7813ZM17.1866 24.8213C17.8637 24.8134 18.5009 24.4998 18.92 23.968V23.9813C19.4342 23.3362 19.6346 22.4957 19.4666 21.688L19.1466 20.168C18.9691 19.0415 18.0195 18.1981 16.88 18.1546H5.11997C3.98045 18.1981 3.03085 19.0415 2.8533 20.168L2.5333 21.688C2.36951 22.4914 2.56965 23.3262 3.07997 23.968C3.49908 24.4998 4.13625 24.8134 4.8133 24.8213H17.1866Z" fill="#029155"/>
<path fill-rule="evenodd" clip-rule="evenodd" d="M11.6666 13.5013H10.3332C7.38771 13.5013 4.9999 11.1135 4.9999 8.16799V4.64799C4.99634 3.45873 5.4672 2.31716 6.30813 1.47623C7.14907 0.63529 8.29064 0.164433 9.4799 0.167989H12.5199C13.7092 0.164433 14.8507 0.63529 15.6917 1.47623C16.5326 2.31716 17.0035 3.45873 16.9999 4.64799V8.16799C16.9999 11.1135 14.6121 13.5013 11.6666 13.5013ZM9.4799 2.16799C8.11024 2.16799 6.9999 3.27833 6.9999 4.64799V8.16799C6.9999 10.0089 8.49229 11.5013 10.3332 11.5013H11.6666C13.5075 11.5013 14.9999 10.0089 14.9999 8.16799V4.64799C14.9999 3.99026 14.7386 3.35946 14.2735 2.89437C13.8084 2.42928 13.1776 2.16799 12.5199 2.16799H9.4799Z" fill="#029155"/>
</svg>
