<svg width="27" height="20" viewBox="0 0 27 20" fill="none" xmlns="http://www.w3.org/2000/svg">
<path fill-rule="evenodd" clip-rule="evenodd" d="M21.5 0.667969H5.49996C2.55444 0.667969 0.166626 3.05578 0.166626 6.0013V14.0013C0.166626 16.9468 2.55444 19.3346 5.49996 19.3346H21.5C24.4455 19.3346 26.8333 16.9468 26.8333 14.0013V6.0013C26.8333 3.05578 24.4455 0.667969 21.5 0.667969ZM5.49996 2.66797H21.5C22.384 2.66797 23.2319 3.01916 23.857 3.64428C24.4821 4.2694 24.8333 5.11725 24.8333 6.0013V11.668H2.16663V6.0013C2.16663 4.16035 3.65901 2.66797 5.49996 2.66797ZM5.49996 17.3346H21.5C22.384 17.3346 23.2319 16.9834 23.857 16.3583C24.4821 15.7332 24.8333 14.8854 24.8333 14.0013V13.668H2.16663V14.0013C2.16663 15.8423 3.65901 17.3346 5.49996 17.3346Z" fill="#029155"/>
</svg>
