<svg width="33" height="32" viewBox="0 0 33 32" fill="none" xmlns="http://www.w3.org/2000/svg">
<path fill-rule="evenodd" clip-rule="evenodd" d="M29.4866 19.6522L29.6733 20.5722C29.8766 21.3581 29.7108 22.1938 29.2229 22.8426C28.735 23.4914 27.9781 23.8827 27.1666 23.9055H22.0866C22.0878 26.0636 20.3769 27.8336 18.22 27.9055H7.16664C5.94603 27.8853 4.80147 27.3088 4.05866 26.34C3.31584 25.3712 3.05609 24.1162 3.35331 22.9322L3.63331 21.5989C3.95889 19.7621 5.54149 18.4144 7.40664 18.3855H17.9933C18.4658 17.8208 19.1637 17.4938 19.9 17.4922H26.9533C28.1987 17.5319 29.2505 18.4288 29.4866 19.6522ZM27.14 21.8922C27.3026 21.8862 27.4542 21.808 27.5533 21.6789C27.7277 21.5029 27.8155 21.2589 27.7933 21.0122L27.6066 20.0922C27.5705 19.7942 27.3321 19.5613 27.0333 19.5322H19.98C19.8265 19.5332 19.6828 19.6075 19.5933 19.7322C19.211 20.1725 18.6565 20.4255 18.0733 20.4255H7.48664C6.57386 20.4478 5.80902 21.1226 5.67331 22.0255L5.39331 23.3589C5.25655 24.0155 5.41767 24.6991 5.83331 25.2255C6.15798 25.635 6.64456 25.8831 7.16664 25.9055H18.18C19.2531 25.8343 20.0777 24.9272 20.0466 23.8522C20.0684 22.7633 20.9575 21.892 22.0466 21.8922H27.14Z" fill="#029155"/>
<path fill-rule="evenodd" clip-rule="evenodd" d="M17.9667 10.6671C17.9667 13.6126 15.5788 16.0004 12.6333 16.0004C9.6878 16.0004 7.29999 13.6126 7.29999 10.6671V8.57375C7.29999 6.09951 9.30575 4.09375 11.78 4.09375H13.5267C15.9853 4.1157 17.9668 6.11505 17.9667 8.57375V10.6671ZM11.78 6.09375C10.4103 6.09375 9.29999 7.20408 9.29999 8.57375L9.33999 10.6671C9.55278 12.346 10.981 13.6046 12.6733 13.6046C14.3656 13.6046 15.7939 12.346 16.0067 10.6671V8.57375C16.0067 7.20408 14.8963 6.09375 13.5267 6.09375H11.78Z" fill="#029155"/>
<path fill-rule="evenodd" clip-rule="evenodd" d="M28.0733 10.9988C28.0733 13.2079 26.2824 14.9988 24.0733 14.9988C21.8642 14.9988 20.0733 13.2079 20.0733 10.9988V9.46547C20.0731 7.63042 21.5452 6.1346 23.38 6.10547H24.7133C26.569 6.10547 28.0733 7.60979 28.0733 9.46547V10.9988ZM23.4066 8.13214C22.6703 8.13214 22.0733 8.72909 22.0733 9.46547V10.9988C22.0733 12.1034 22.9687 12.9988 24.0733 12.9988C25.1779 12.9988 26.0733 12.1034 26.0733 10.9988V9.46547C26.0733 8.72909 25.4763 8.13214 24.74 8.13214H23.4066Z" fill="#029155"/>
</svg>
