<svg width="62" height="62" viewBox="0 0 62 62" fill="none" xmlns="http://www.w3.org/2000/svg">
<rect width="62" height="62" rx="15" fill="#029155"/>
<path d="M31.1255 33.8887C22.8301 33.8887 16.0667 40.652 16.0667 48.9474C16.0667 49.4202 16.4715 49.8249 16.9442 49.8249H45.2649C45.7377 49.8249 46.1424 49.4202 46.1424 48.9474C46.1424 40.6529 39.4219 33.8887 31.1255 33.8887ZM44.373 48.0699H17.8362C18.2945 41.1303 24.0692 35.6437 31.0837 35.6437C38.0991 35.6437 43.9137 41.1312 44.373 48.0699Z" fill="#FDFEFF" stroke="#FDFEFF" stroke-width="0.5"/>
<path d="M30.8745 15.3555C26.052 15.3555 22.0906 19.2734 22.0906 24.1393C22.0906 29.0045 26.0093 32.9232 30.8745 32.9232C35.697 32.9232 39.6584 29.0053 39.6584 24.1393C39.6584 19.2734 35.697 15.3555 30.8745 15.3555ZM30.8745 31.1264C26.9966 31.1264 23.8456 27.9754 23.8456 24.0975C23.8456 20.2196 26.9966 17.0686 30.8745 17.0686C34.7524 17.0686 37.9034 20.2196 37.9034 24.0975C37.9034 27.9754 34.7524 31.1264 30.8745 31.1264Z" fill="#FDFEFF" stroke="#FDFEFF" stroke-width="0.5"/>
<path d="M39.5433 32.6417L39.5433 32.6418L39.5467 32.6382C40.5727 31.5712 41.4039 30.3823 41.9989 29.0337H42.2112C44.9429 29.0337 47.1464 26.8301 47.1464 24.0984C47.1464 21.3667 44.9429 19.1632 42.2112 19.1632H41.914C39.9606 14.8077 35.6885 12.0098 30.8745 12.0098C26.0605 12.0098 21.7884 14.8077 19.835 19.1632H19.6215C16.8898 19.1632 14.6863 21.3667 14.6863 24.0984C14.6863 26.8301 16.8898 29.0337 19.6215 29.0337H20.5C20.9727 29.0337 21.3775 28.6289 21.3775 28.1562V20.0406V20.0404V20.0402V20.0399V20.0397V20.0394V20.0392V20.0389V20.0387V20.0384V20.0382V20.0379V20.0377V20.0375V20.0372V20.037V20.0367V20.0365V20.0362V20.036V20.0357V20.0355V20.0353V20.035V20.0348V20.0345V20.0343V20.034V20.0338V20.0335V20.0333V20.033V20.0328V20.0326V20.0323V20.0321V20.0318V20.0316V20.0313V20.0311V20.0308V20.0306V20.0303V20.0301V20.0299V20.0296V20.0294V20.0291V20.0289V20.0286V20.0284V20.0281V20.0279V20.0277V20.0274V20.0272V20.0269V20.0267V20.0264V20.0262V20.0259V20.0257V20.0254V20.0252V20.025V20.0247V20.0245V20.0242V20.024V20.0237V20.0235V20.0232V20.023V20.0227V20.0225V20.0223V20.022V20.0218V20.0215V20.0213V20.021V20.0208V20.0205V20.0203V20.0201V20.0198V20.0196V20.0193V20.0191V20.0188V20.0186V20.0183V20.0181V20.0178V20.0176V20.0174V20.0171V20.0169V20.0166V20.0164V20.0161V20.0159V20.0156V20.0154V20.0152V20.0149V20.0147V20.0144V20.0142V20.0139V20.0137V20.0134V20.0132V20.0129V20.0127V20.0125V20.0122V20.012V20.0117V20.0115V20.0112V20.011V20.0107V20.0105V20.0102V20.01V20.0098V20.0095V20.0093V20.009V20.0088V20.0085V20.0083V20.008V20.0078V20.0076V20.0073V20.0071V20.0068V20.0066V20.0063V20.0061V20.0058V20.0056V20.0053V20.0051V20.0049V20.0046V20.0044V20.0041V20.0039V20.0036V20.0034V20.0031V20.0029V20.0027V20.0024V20.0022V20.0019V20.0017V20.0014V20.0012V20.0009V20.0007V20.0004V20.0002V20V19.9997V19.9995V19.9992V19.999V19.9987V19.9985V19.9982V19.998V19.9977V19.9975V19.9973V19.997V19.9968V19.9965V19.9963V19.996V19.9958V19.9955V19.9953V19.9951V19.9948V19.9946V19.9943V19.9941V19.9938V19.9936V19.9933V19.9931V19.9928V19.9926V19.9924V19.9921V19.9919V19.9916V19.9914V19.9911V19.9909V19.9906V19.9904V19.9901V19.9899V19.9897V19.9894V19.9892V19.9889V19.9887V19.9884V19.9882V19.9879V19.9877V19.9875V19.9872V19.987V19.9867V19.9865V19.9862V19.986V19.9857V19.9855V19.9852V19.985V19.9848V19.9845V19.9843V19.984V19.9838V19.9835V19.9833V19.983V19.9828V19.9826V19.9823V19.9821V19.9818V19.9816V19.9813V19.9811V19.9808V19.9806V19.9803V19.9801V19.9799V19.9796V19.9794V19.9791V19.9789V19.9786V19.9784V19.9781V19.9779V19.9776V19.9774V19.9772V19.9769V19.9767V19.9764V19.9762V19.9759V19.9757V19.9754V19.9752V19.975V19.9747V19.9745V19.9742V19.974V19.9737V19.9735V19.9732V19.973V19.9727V19.9725V19.9723V19.972V19.9718V19.9715V19.9713V19.971V19.9708V19.9705V19.9703V19.97V19.9698V19.9696V19.9693V19.9691V19.9688V19.9686V19.9683V19.9681V19.9678V19.9676V19.9674V19.9671V19.9669C23.0216 16.1953 26.7244 13.7647 30.8745 13.7647C35.1072 13.7647 38.8517 16.2775 40.4552 20.1734V28.0638C39.9244 29.3148 39.195 30.4434 38.2675 31.4117C37.9208 31.7603 37.9215 32.2938 38.2694 32.6417C38.4584 32.8306 38.7005 32.8823 38.9064 32.8823C39.1122 32.8823 39.3544 32.8306 39.5433 32.6417ZM45.3914 24.0984C45.3914 25.8428 43.9556 27.2787 42.2112 27.2787H42.2102V20.9181H42.2112C43.9556 20.9181 45.3914 22.354 45.3914 24.0984ZM16.4412 24.0984C16.4412 22.354 17.8771 20.9181 19.6215 20.9181H19.6225V27.2787H19.6215C17.8771 27.2787 16.4412 25.8428 16.4412 24.0984Z" fill="#FDFEFF" stroke="#FDFEFF" stroke-width="0.5"/>
</svg>
