<svg width="63" height="63" viewBox="0 0 63 63" fill="none" xmlns="http://www.w3.org/2000/svg">
<rect x="0.5" y="0.23584" width="62" height="62" rx="15" fill="#029155"/>
<path d="M42 22.4858V39.9858C42 41.0708 41.965 42.0333 41.8425 42.8908C41.335 47.4933 39.165 48.7358 33.25 48.7358H29.75C23.835 48.7358 21.665 47.4933 21.1575 42.8908C21.035 42.0333 21 41.0708 21 39.9858V22.4858C21 21.4008 21.035 20.4383 21.1575 19.5808C21.665 14.9783 23.835 13.7358 29.75 13.7358H33.25C39.165 13.7358 41.335 14.9783 41.8425 19.5808C41.965 20.4383 42 21.4008 42 22.4858Z" stroke="#FDFEFF" stroke-width="1.5" stroke-linecap="round" stroke-linejoin="round"/>
<path opacity="0.4" d="M21 39.9859C21 41.0709 21.035 42.0334 21.1575 42.8909C20.9125 42.9084 20.685 42.9084 20.4225 42.9084H19.8275C15.1725 42.9084 14 41.7359 14 37.0634V25.4084C14 20.7359 15.1725 19.5634 19.8275 19.5634H20.4225C20.685 19.5634 20.9125 19.5634 21.1575 19.5809C21.035 20.4384 21 21.4009 21 22.4859V39.9859Z" stroke="#FDFEFF" stroke-width="1.5" stroke-linecap="round" stroke-linejoin="round"/>
<path opacity="0.4" d="M49 25.4084V37.0634C49 41.7359 47.8275 42.9084 43.1725 42.9084H42.5775C42.315 42.9084 42.0875 42.9084 41.8425 42.8909C41.965 42.0334 42 41.0709 42 39.9859V22.4859C42 21.4009 41.965 20.4384 41.8425 19.5809C42.0875 19.5634 42.315 19.5634 42.5775 19.5634H43.1725C47.8275 19.5634 49 20.7359 49 25.4084Z" stroke="#FDFEFF" stroke-width="1.5" stroke-linecap="round" stroke-linejoin="round"/>
</svg>
