<svg width="42" height="52" viewBox="0 0 42 52" fill="none" xmlns="http://www.w3.org/2000/svg">
<path d="M34.3383 4.78401C31.9177 2.80199 29.0873 1.38189 26.0514 0.626135C23.0155 -0.129616 19.8497 -0.202181 16.7823 0.413674C12.8383 1.22227 9.20993 3.14753 6.32929 5.96012C3.44866 8.77271 1.43722 12.3541 0.534594 16.2776C-0.368034 20.2011 -0.123808 24.3014 1.23818 28.09C2.60017 31.8786 5.02251 35.1959 8.21664 37.6467C11.8635 40.3158 14.9685 43.6552 17.3656 47.4863L18.999 50.2023C19.2064 50.5473 19.4996 50.8328 19.85 51.031C20.2004 51.2291 20.5961 51.3333 20.9986 51.3333C21.4012 51.3333 21.7969 51.2291 22.1473 51.031C22.4977 50.8328 22.7909 50.5473 22.9983 50.2023L24.564 47.5937C26.6514 43.9242 29.4976 40.7423 32.9126 38.2603C35.5904 36.418 37.8034 33.9786 39.377 31.1346C40.9506 28.2907 41.8418 25.1199 41.9803 21.8726C42.1188 18.6252 41.5007 15.3901 40.1749 12.4225C38.8491 9.45487 36.8518 6.83594 34.3406 4.77234L34.3383 4.78401ZM20.9963 30.3363C19.1504 30.3363 17.3458 29.7889 15.811 28.7634C14.2761 27.7378 13.0799 26.2802 12.3734 24.5747C11.667 22.8693 11.4822 20.9927 11.8423 19.1822C12.2024 17.3717 13.0914 15.7086 14.3966 14.4033C15.7019 13.0981 17.365 12.2091 19.1755 11.849C20.986 11.4889 22.8626 11.6737 24.568 12.3801C26.2735 13.0865 27.7311 14.2828 28.7567 15.8177C29.7823 17.3525 30.3296 19.157 30.3296 21.003C30.3296 23.4784 29.3463 25.8523 27.596 27.6027C25.8456 29.353 23.4717 30.3363 20.9963 30.3363Z" fill="#029155"/>
</svg>
