<svg width="11" height="10" viewBox="0 0 11 10" fill="none" xmlns="http://www.w3.org/2000/svg">
<path d="M9.80512 0.480174C9.55683 0.286038 9.26588 0.145397 8.95292 0.0682397C8.63996 -0.00891801 8.31267 -0.0207008 7.99429 0.033728L6.30624 0.320345C5.91651 0.387268 5.56216 0.57476 5.30012 0.852694C5.0374 0.57428 4.68204 0.386746 4.29136 0.320345L2.60596 0.033728C2.28758 -0.0207484 1.9603 -0.00912005 1.64726 0.0677899C1.33423 0.1447 1.0431 0.285011 0.794489 0.478792C0.545875 0.672572 0.345853 0.915085 0.208581 1.18916C0.0713091 1.46324 0.000143629 1.76218 0.00012207 2.06483L0.00012207 6.52227C0.000147447 7.0058 0.181637 7.47399 0.512956 7.84523C0.844275 8.21648 1.30441 8.46723 1.81316 8.55378L4.58948 9.02583C5.05939 9.10568 5.54085 9.10568 6.01076 9.02583L8.78929 8.55378C9.29763 8.4668 9.75726 8.21586 10.0881 7.84466C10.419 7.47346 10.6002 7.0055 10.6001 6.52227V2.06483C10.6003 1.76229 10.5292 1.46343 10.3918 1.18953C10.2544 0.915629 10.0541 0.673428 9.80512 0.480174ZM4.85846 8.23C4.82136 8.22504 4.78426 8.21926 4.74716 8.21306L1.97128 7.74142C1.66598 7.68949 1.38987 7.539 1.19107 7.3162C0.992274 7.0934 0.883409 6.81243 0.883455 6.52227V2.06483C0.883455 1.73623 1.02305 1.42109 1.27154 1.18874C1.52002 0.956384 1.85704 0.825849 2.20846 0.825849C2.28844 0.826028 2.36825 0.832799 2.44696 0.846086L4.13412 1.13518C4.33712 1.16992 4.5207 1.27001 4.65301 1.4181C4.78532 1.56619 4.85801 1.75292 4.85846 1.94589V8.23ZM9.71679 6.52227C9.71684 6.81243 9.60797 7.0934 9.40917 7.3162C9.21038 7.539 8.93426 7.68949 8.62896 7.74142L5.85309 8.21306C5.81599 8.21926 5.77889 8.22504 5.74179 8.23V1.94589C5.74176 1.75245 5.81433 1.56513 5.94687 1.4166C6.0794 1.26807 6.26347 1.16774 6.46701 1.13312L8.15461 0.844021C8.34573 0.811507 8.54216 0.818685 8.72998 0.865047C8.9178 0.911409 9.09242 0.995821 9.24148 1.1123C9.39053 1.22879 9.51037 1.37449 9.59251 1.5391C9.67465 1.7037 9.71708 1.88319 9.71679 2.06483V6.52227Z" fill="#029155"/>
</svg>
