<svg width="26" height="20" viewBox="0 0 26 20" fill="none" xmlns="http://www.w3.org/2000/svg">
<path fill-rule="evenodd" clip-rule="evenodd" d="M13.1418 0.696567C14.456 -0.398646 16.4614 0.39272 16.6736 2.09028C17.3276 7.32191 17.3276 12.6146 16.6736 17.8462C16.4614 19.5438 14.456 20.3352 13.1418 19.2399L7.7216 14.7232C7.6655 14.6764 7.59478 14.6508 7.52176 14.6508H2.97913C1.77229 14.6508 0.793945 13.6725 0.793945 12.4656V7.4709C0.793945 6.26406 1.77229 5.28572 2.97913 5.28572H7.52176C7.59478 5.28572 7.6655 5.26012 7.7216 5.21337L13.1418 0.696567ZM14.8151 2.3226C14.7866 2.09466 14.5173 1.9884 14.3408 2.13546L8.92068 6.65226C8.52797 6.97951 8.03295 7.15874 7.52176 7.15874H2.97913C2.80672 7.15874 2.66696 7.2985 2.66696 7.4709V12.4656C2.66696 12.638 2.80672 12.7778 2.97913 12.7778H7.52176C8.03295 12.7778 8.52797 12.957 8.92068 13.2843L14.3408 17.8011C14.5173 17.9481 14.7866 17.8419 14.8151 17.6139C15.4497 12.5366 15.4497 7.39995 14.8151 2.3226Z" fill="#302E39"/>
<path d="M22.8433 2.40848C23.3343 2.24607 23.8641 2.51249 24.0265 3.00355C24.7513 5.19494 25.1432 7.53678 25.1432 9.96827C25.1432 12.3998 24.7513 14.7416 24.0265 16.933C23.8641 17.424 23.3343 17.6905 22.8433 17.5281C22.3522 17.3656 22.0858 16.8359 22.2482 16.3448C22.911 14.3408 23.2701 12.1974 23.2701 9.96827C23.2701 7.73912 22.911 5.59573 22.2482 3.59169C22.0858 3.10064 22.3522 2.57089 22.8433 2.40848Z" fill="#302E39"/>
<path d="M20.5009 4.90824C20.3225 4.42276 19.7844 4.17379 19.2989 4.35217C18.8134 4.53055 18.5644 5.06872 18.7428 5.5542C19.2479 6.92891 19.5241 8.41529 19.5241 9.96827C19.5241 11.2564 19.3341 12.4985 18.9812 13.6689C18.9615 13.7341 18.9414 13.7991 18.9207 13.8639C18.865 14.0384 18.8057 14.2112 18.7428 14.3823C18.5644 14.8678 18.8134 15.406 19.2989 15.5844C19.7844 15.7627 20.3225 15.5138 20.5009 15.0283C20.5731 14.8319 20.6412 14.6336 20.7051 14.4333C20.7288 14.359 20.7519 14.2844 20.7745 14.2096C21.1797 12.8657 21.3971 11.4416 21.3971 9.96827C21.3971 8.19165 21.0809 6.48678 20.5009 4.90824Z" fill="#302E39"/>
</svg>
