<svg width="62" height="62" viewBox="0 0 62 62" fill="none" xmlns="http://www.w3.org/2000/svg">
<rect width="62" height="62" rx="15" fill="#029155"/>
<path fill-rule="evenodd" clip-rule="evenodd" d="M25.9699 31.2588C25.9699 28.5562 28.0565 26.3652 30.6304 26.3652C33.2044 26.3652 35.291 28.5562 35.291 31.2588C35.291 33.9614 33.2044 36.1523 30.6304 36.1523C28.0565 36.1523 25.9699 33.9614 25.9699 31.2588ZM29.0094 31.2588C29.0094 32.1988 29.7351 32.9609 30.6304 32.9609C31.5257 32.9609 32.2515 32.1988 32.2515 31.2588C32.2515 30.3187 31.5257 29.5567 30.6304 29.5567C29.7351 29.5567 29.0094 30.3187 29.0094 31.2588Z" fill="#FDFEFF"/>
<path fill-rule="evenodd" clip-rule="evenodd" d="M40.1744 22.2591L48.6444 29.3654C49.192 29.8257 49.5108 30.5224 49.5108 31.259C49.5108 31.9956 49.192 32.6922 48.6444 33.1525L40.1744 40.2588C34.5919 44.9376 26.6689 44.9376 21.0865 40.2588L12.6165 33.1525C12.0688 32.6922 11.75 31.9956 11.75 31.259C11.75 30.5224 12.0688 29.8257 12.6165 29.3654L21.0865 22.2591C26.6689 17.5803 34.5919 17.5803 40.1744 22.2591ZM22.9709 37.8759C27.454 41.6223 33.8069 41.6223 38.2899 37.8759L46.0304 31.259L38.2899 24.7484C33.8069 21.002 27.454 21.002 22.9709 24.7484L15.2304 31.259L22.9709 37.8759Z" fill="#FDFEFF"/>
</svg>
