<svg width="17" height="22" viewBox="0 0 17 22" fill="none" xmlns="http://www.w3.org/2000/svg">
<path fill-rule="evenodd" clip-rule="evenodd" d="M11.79 21.09H4.79C2.14294 21.0845 -5.7445e-06 18.9371 0 16.29V5.29C0.00550088 2.64684 2.14684 0.505501 4.79 0.5H11.79C14.4371 0.499994 16.5845 2.64294 16.59 5.29V16.29C16.59 17.563 16.0843 18.7839 15.1841 19.6841C14.2839 20.5843 13.063 21.09 11.79 21.09ZM4.79 2.09C3.02497 2.09549 1.59549 3.52497 1.59 5.29V16.29C1.58999 18.0589 3.02107 19.4945 4.79 19.5H11.79C13.5628 19.5 15 18.0628 15 16.29V5.29C14.9945 3.52107 13.5589 2.08999 11.79 2.09H4.79ZM3.99 8.03H10.69C11.0629 7.98643 11.3441 7.67047 11.3441 7.295C11.3441 6.91953 11.0629 6.60357 10.69 6.56H3.99C3.70694 6.52693 3.43004 6.65934 3.27809 6.90044C3.12614 7.14153 3.12614 7.44847 3.27809 7.68956C3.43004 7.93066 3.70694 8.06307 3.99 8.03ZM3.99 16.03H8.77C9.05306 16.0631 9.32996 15.9307 9.48192 15.6896C9.63387 15.4485 9.63387 15.1415 9.48192 14.9004C9.32996 14.6593 9.05306 14.5269 8.77 14.56H3.99C3.70694 14.5269 3.43004 14.6593 3.27809 14.9004C3.12614 15.1415 3.12614 15.4485 3.27809 15.6896C3.43004 15.9307 3.70694 16.0631 3.99 16.03ZM12.6 12.03H3.99C3.70694 12.0631 3.43004 11.9307 3.27809 11.6896C3.12614 11.4485 3.12614 11.1415 3.27809 10.9004C3.43004 10.6593 3.70694 10.5269 3.99 10.56H12.6C12.9729 10.6036 13.2541 10.9195 13.2541 11.295C13.2541 11.6705 12.9729 11.9864 12.6 12.03Z" fill="#029155"/>
</svg>
