<svg width="10" height="12" viewBox="0 0 10 12" fill="none" xmlns="http://www.w3.org/2000/svg">
<path fill-rule="evenodd" clip-rule="evenodd" d="M8.05303 1H1.38636C1.11022 1 0.886359 0.776142 0.886359 0.5C0.886359 0.223858 1.11022 0 1.38636 0H8.05303C8.32917 0 8.55303 0.223858 8.55303 0.5C8.55303 0.776142 8.32917 1 8.05303 1ZM8.60636 6.83762C8.73942 6.83762 8.86683 6.89137 8.95969 6.98667C9.15466 7.18188 9.15466 7.49812 8.95969 7.69333L5.07303 11.5733C4.87781 11.7683 4.56157 11.7683 4.36636 11.5733L0.479692 7.69333C0.284723 7.49812 0.284723 7.18188 0.479692 6.98667C0.572551 6.89137 0.699967 6.83762 0.833026 6.83762C0.966084 6.83762 1.0935 6.89137 1.18636 6.98667L4.21969 10.0133V2.53333C4.21969 2.25719 4.44355 2.03333 4.71969 2.03333C4.99583 2.03333 5.21969 2.25719 5.21969 2.53333V10.0133L8.25303 6.98667C8.34588 6.89137 8.4733 6.83762 8.60636 6.83762Z" fill="#029155"/>
</svg>
