<svg width="62" height="62" viewBox="0 0 62 62" fill="none" xmlns="http://www.w3.org/2000/svg">
<rect width="62" height="62" rx="15" fill="#029155"/>
<path fill-rule="evenodd" clip-rule="evenodd" d="M37.6325 49.5325H25.3825C20.7501 49.5229 17 45.7649 17 41.1325V21.8825C17.0096 17.257 20.757 13.5096 25.3825 13.5H37.6325C42.2649 13.5 46.0229 17.2501 46.0325 21.8825V41.1325C46.0325 43.3603 45.1475 45.4969 43.5722 47.0722C41.9969 48.6475 39.8603 49.5325 37.6325 49.5325ZM25.3825 16.2825C22.2937 16.2921 19.7921 18.7937 19.7825 21.8825V41.1325C19.7825 44.2281 22.2869 46.7404 25.3825 46.75H37.6325C40.735 46.75 43.25 44.235 43.25 41.1325V21.8825C43.2403 18.7869 40.7281 16.2825 37.6325 16.2825H25.3825ZM23.9825 26.6775H35.7075C36.3601 26.6012 36.8522 26.0483 36.8522 25.3912C36.8522 24.7342 36.3601 24.1813 35.7075 24.105H23.9825C23.4871 24.0471 23.0026 24.2788 22.7367 24.7008C22.4707 25.1227 22.4707 25.6598 22.7367 26.0817C23.0026 26.5037 23.4871 26.7354 23.9825 26.6775ZM23.9825 40.6775H32.3475C32.8429 40.7354 33.3274 40.5037 33.5934 40.0817C33.8593 39.6598 33.8593 39.1227 33.5934 38.7008C33.3274 38.2788 32.8429 38.0471 32.3475 38.105H23.9825C23.4871 38.0471 23.0026 38.2788 22.7367 38.7008C22.4707 39.1227 22.4707 39.6598 22.7367 40.0817C23.0026 40.5037 23.4871 40.7354 23.9825 40.6775ZM39.05 33.6775H23.9825C23.4871 33.7354 23.0026 33.5037 22.7367 33.0817C22.4707 32.6598 22.4707 32.1227 22.7367 31.7008C23.0026 31.2788 23.4871 31.0471 23.9825 31.105H39.05C39.7026 31.1813 40.1947 31.7342 40.1947 32.3912C40.1947 33.0483 39.7026 33.6012 39.05 33.6775Z" fill="#FDFEFF"/>
</svg>
