<svg width="16" height="18" viewBox="0 0 16 18" fill="none" xmlns="http://www.w3.org/2000/svg">
<path fill-rule="evenodd" clip-rule="evenodd" d="M2 0.5H14C15.1046 0.5 16 1.39543 16 2.5V5.5C16 6.60457 15.1046 7.5 14 7.5H2C0.89543 7.5 0 6.60457 0 5.5V2.5C0 1.39543 0.89543 0.5 2 0.5ZM14 6C14.2761 6 14.5 5.77614 14.5 5.5V2.5C14.5 2.22386 14.2761 2 14 2H2C1.72386 2 1.5 2.22386 1.5 2.5V5.5C1.5 5.77614 1.72386 6 2 6H14Z" fill="#0B1C3F"/>
<path fill-rule="evenodd" clip-rule="evenodd" d="M2 10.5H14C15.1046 10.5 16 11.3954 16 12.5V15.5C16 16.6046 15.1046 17.5 14 17.5H2C0.89543 17.5 0 16.6046 0 15.5V12.5C0 11.3954 0.89543 10.5 2 10.5ZM14 16C14.2761 16 14.5 15.7761 14.5 15.5V12.5C14.5 12.2239 14.2761 12 14 12H2C1.72386 12 1.5 12.2239 1.5 12.5V15.5C1.5 15.7761 1.72386 16 2 16H14Z" fill="#0B1C3F"/>
</svg>
