<svg width="43" height="43" viewBox="0 0 43 43" fill="none" xmlns="http://www.w3.org/2000/svg">
<path d="M17.7256 11.5444C19.3311 8.37967 22.6161 6.21094 26.4076 6.21094C31.7809 6.21094 36.1368 10.5669 36.1368 15.9403C36.1368 19.3475 34.3854 22.3456 31.7338 24.0835H17.7256V11.5444Z" fill="#FFCE69"/>
<path d="M17.7256 11.5444C19.3311 8.37967 22.6161 6.21094 26.4076 6.21094C31.7809 6.21094 36.1368 10.5669 36.1368 15.9403C36.1368 19.3475 34.3854 22.3456 31.7338 24.0835H17.7256V11.5444Z" fill="#FFCE69"/>
<path d="M26.4084 6.21094C26.0723 6.21094 25.7404 6.22883 25.4131 6.26208C30.3153 6.76397 34.1397 10.9055 34.1397 15.9403C34.1397 19.3474 32.3883 22.3456 29.7367 24.0835H31.7347C34.3863 22.3456 36.1377 19.3474 36.1377 15.9403C36.1376 10.567 31.7817 6.21094 26.4084 6.21094V6.21094Z" fill="#FFBD61"/>
<path d="M6.94945 17.3303C6.94945 13.4132 10.1902 10.2531 14.1369 10.3848C17.8953 10.5103 20.8484 13.6571 20.8484 17.4176C20.8484 18.9046 22.0539 20.1101 23.5409 20.1101H26.3251C29.3806 20.1101 31.9274 22.5406 31.967 25.5959C32.0073 28.7002 29.503 31.2292 26.408 31.2292H7.03671C3.20477 31.2292 0.028582 28.1643 0.000195449 24.3325C-0.0284431 20.4701 3.09383 17.3303 6.94945 17.3303V17.3303Z" fill="#F9F5F3"/>
<path d="M18.8501 17.4174C18.8501 18.9045 20.0557 20.11 21.5427 20.11H23.5407C22.0536 20.11 20.8481 18.9045 20.8481 17.4174C20.8481 13.6569 17.895 10.5101 14.1366 10.3847C13.7156 10.3706 13.3032 10.3962 12.9014 10.4539C16.2887 10.9472 18.8501 13.9155 18.8501 17.4174Z" fill="#F9EAE0"/>
<path d="M26.3251 20.1104H24.3271C27.3827 20.1104 29.9295 22.5409 29.9691 25.5961C30.0094 28.7004 27.505 31.2295 24.41 31.2295H26.408C29.5031 31.2295 32.0074 28.7004 31.9671 25.5961C31.9275 22.5409 29.3807 20.1104 26.3251 20.1104V20.1104Z" fill="#F9EAE0"/>
<path d="M26.4248 4.0425C26.0769 4.0425 25.7949 3.76057 25.7949 3.41262V0.629883C25.7949 0.281935 26.0769 0 26.4248 0C26.7728 0 27.0547 0.281935 27.0547 0.629883V3.41262C27.0547 3.76048 26.7728 4.0425 26.4248 4.0425Z" fill="#FFBD61"/>
<path d="M17.5703 7.70977C17.4091 7.70977 17.2479 7.6483 17.1248 7.52534L15.1571 5.55767C14.9112 5.3116 14.9112 4.91284 15.1571 4.66685C15.4032 4.42095 15.802 4.42095 16.048 4.66685L18.0156 6.63444C18.2616 6.88051 18.2616 7.27927 18.0156 7.52526C17.8926 7.64821 17.7314 7.70977 17.5703 7.70977Z" fill="#FFBD61"/>
<path d="M37.247 27.3865C37.0859 27.3865 36.9246 27.3251 36.8016 27.2021L34.8339 25.2344C34.5879 24.9884 34.5879 24.5896 34.8339 24.3436C35.08 24.0977 35.4787 24.0977 35.7247 24.3436L37.6924 26.3113C37.9384 26.5574 37.9384 26.9561 37.6924 27.2021C37.5694 27.325 37.4081 27.3865 37.247 27.3865Z" fill="#FFBD61"/>
<path d="M41.729 16.5645H38.9463C38.5983 16.5645 38.3164 16.2825 38.3164 15.9346C38.3164 15.5866 38.5983 15.3047 38.9463 15.3047H41.729C42.077 15.3047 42.3589 15.5866 42.3589 15.9346C42.3589 16.2825 42.0769 16.5645 41.729 16.5645Z" fill="#FFBD61"/>
<path d="M35.2794 7.70977C35.1182 7.70977 34.9569 7.6483 34.8339 7.52534C34.5879 7.27927 34.5879 6.88051 34.8339 6.63452L36.8016 4.66685C37.0476 4.42095 37.4464 4.42095 37.6924 4.66685C37.9384 4.91293 37.9384 5.31168 37.6924 5.55767L35.7247 7.52534C35.6018 7.64821 35.4405 7.70977 35.2794 7.70977V7.70977Z" fill="#FFBD61"/>
<path d="M11.1198 37.4345C11.0251 37.4345 10.9291 37.4131 10.8385 37.3678C10.5275 37.2122 10.4013 36.834 10.5568 36.5227L11.9481 33.74C12.1037 33.4289 12.4818 33.3025 12.7933 33.4584C13.1043 33.614 13.2305 33.9923 13.0749 34.3035L11.6837 37.0862C11.5733 37.307 11.3508 37.4345 11.1198 37.4345Z" fill="#A0C8FF"/>
<path d="M18.0758 37.4344C17.9812 37.4344 17.8851 37.4129 17.7946 37.3677C17.4835 37.2121 17.3574 36.8338 17.5129 36.5226L18.9043 33.7398C19.0598 33.4288 19.4381 33.3027 19.7494 33.4582C20.0605 33.6139 20.1866 33.9921 20.0311 34.3034L18.6397 37.0861C18.5294 37.3068 18.3069 37.4344 18.0758 37.4344Z" fill="#A0C8FF"/>
<path d="M20.859 42.9999C20.7644 42.9999 20.6683 42.9785 20.5778 42.9333C20.2667 42.7776 20.1406 42.3994 20.2961 42.0881L21.6874 39.3054C21.8429 38.9942 22.2211 38.868 22.5325 39.0238C22.8436 39.1794 22.9697 39.5577 22.8141 39.8689L21.4228 42.6517C21.3126 42.8723 21.0901 42.9999 20.859 42.9999Z" fill="#A0C8FF"/>
<path d="M13.902 42.9999C13.8074 42.9999 13.7113 42.9785 13.6208 42.9333C13.3097 42.7776 13.1835 42.3994 13.3391 42.0881L14.7304 39.3054C14.8859 38.9942 15.2641 38.868 15.5755 39.0238C15.8866 39.1794 16.0127 39.5577 15.8572 39.8689L14.4659 42.6517C14.3555 42.8723 14.1331 42.9999 13.902 42.9999Z" fill="#A0C8FF"/>
<path d="M25.0329 37.4345C24.9382 37.4345 24.8421 37.4131 24.7516 37.3678C24.4405 37.2122 24.3144 36.834 24.4699 36.5227L25.8612 33.74C26.0168 33.4289 26.3949 33.3025 26.7063 33.4584C27.0174 33.614 27.1436 33.9923 26.988 34.3035L25.5967 37.0862C25.4864 37.307 25.2639 37.4345 25.0329 37.4345Z" fill="#A0C8FF"/>
</svg>
