<svg width="60" height="60" viewBox="0 0 60 60" fill="none" xmlns="http://www.w3.org/2000/svg">
<g style="mix-blend-mode:soft-light">
<rect width="60" height="60" rx="13" fill="white" fill-opacity="0.56"/>
</g>
<path d="M29.7256 20.5444C31.3311 17.3797 34.6161 15.2109 38.4076 15.2109C43.7809 15.2109 48.1368 19.5669 48.1368 24.9403C48.1368 28.3475 46.3854 31.3456 43.7338 33.0835H29.7256V20.5444Z" fill="#FFCE69"/>
<path d="M29.7256 20.5444C31.3311 17.3797 34.6161 15.2109 38.4076 15.2109C43.7809 15.2109 48.1368 19.5669 48.1368 24.9403C48.1368 28.3475 46.3854 31.3456 43.7338 33.0835H29.7256V20.5444Z" fill="#FFCE69"/>
<path d="M38.4084 15.2109C38.0723 15.2109 37.7404 15.2288 37.4131 15.2621C42.3153 15.764 46.1397 19.9055 46.1397 24.9403C46.1397 28.3474 44.3883 31.3456 41.7367 33.0835H43.7347C46.3863 31.3456 48.1377 28.3474 48.1377 24.9403C48.1376 19.567 43.7817 15.2109 38.4084 15.2109Z" fill="#FFBD61"/>
<path d="M18.9495 26.3303C18.9495 22.4132 22.1902 19.2531 26.1369 19.3848C29.8953 19.5103 32.8484 22.6571 32.8484 26.4176C32.8484 27.9046 34.0539 29.1101 35.5409 29.1101H38.3251C41.3806 29.1101 43.9274 31.5406 43.967 34.5959C44.0073 37.7002 41.503 40.2292 38.408 40.2292H19.0367C15.2048 40.2292 12.0286 37.1643 12.0002 33.3325C11.9716 29.4701 15.0938 26.3303 18.9495 26.3303Z" fill="#F9F5F3"/>
<path d="M30.8501 26.4174C30.8501 27.9045 32.0557 29.11 33.5427 29.11H35.5407C34.0536 29.11 32.8481 27.9045 32.8481 26.4174C32.8481 22.6569 29.895 19.5101 26.1366 19.3847C25.7156 19.3706 25.3032 19.3962 24.9014 19.4539C28.2887 19.9472 30.8501 22.9155 30.8501 26.4174Z" fill="#F9EAE0"/>
<path d="M38.3251 29.1104H36.3271C39.3827 29.1104 41.9295 31.5409 41.9691 34.5961C42.0094 37.7004 39.505 40.2295 36.41 40.2295H38.408C41.5031 40.2295 44.0074 37.7004 43.9671 34.5961C43.9275 31.5409 41.3807 29.1104 38.3251 29.1104Z" fill="#F9EAE0"/>
<path d="M38.4248 13.0425C38.0769 13.0425 37.7949 12.7606 37.7949 12.4126V9.62988C37.7949 9.28194 38.0769 9 38.4248 9C38.7728 9 39.0547 9.28194 39.0547 9.62988V12.4126C39.0547 12.7605 38.7728 13.0425 38.4248 13.0425Z" fill="#FFBD61"/>
<path d="M29.5703 16.7098C29.4091 16.7098 29.2479 16.6483 29.1248 16.5253L27.1571 14.5577C26.9112 14.3116 26.9112 13.9128 27.1571 13.6669C27.4032 13.4209 27.802 13.4209 28.048 13.6669L30.0156 15.6344C30.2616 15.8805 30.2616 16.2793 30.0156 16.5253C29.8926 16.6482 29.7314 16.7098 29.5703 16.7098Z" fill="#FFBD61"/>
<path d="M49.247 36.3865C49.0859 36.3865 48.9246 36.3251 48.8016 36.2021L46.8339 34.2344C46.5879 33.9884 46.5879 33.5896 46.8339 33.3436C47.08 33.0977 47.4787 33.0977 47.7247 33.3436L49.6924 35.3113C49.9384 35.5574 49.9384 35.9561 49.6924 36.2021C49.5694 36.325 49.4081 36.3865 49.247 36.3865Z" fill="#FFBD61"/>
<path d="M53.729 25.5645H50.9463C50.5983 25.5645 50.3164 25.2825 50.3164 24.9346C50.3164 24.5866 50.5983 24.3047 50.9463 24.3047H53.729C54.077 24.3047 54.3589 24.5866 54.3589 24.9346C54.3589 25.2825 54.0769 25.5645 53.729 25.5645Z" fill="#FFBD61"/>
<path d="M47.2794 16.7098C47.1182 16.7098 46.9569 16.6483 46.8339 16.5253C46.5879 16.2793 46.5879 15.8805 46.8339 15.6345L48.8016 13.6669C49.0476 13.4209 49.4464 13.4209 49.6924 13.6669C49.9384 13.9129 49.9384 14.3117 49.6924 14.5577L47.7247 16.5253C47.6018 16.6482 47.4405 16.7098 47.2794 16.7098Z" fill="#FFBD61"/>
<path d="M23.1198 46.4345C23.0251 46.4345 22.9291 46.4131 22.8385 46.3678C22.5275 46.2122 22.4013 45.834 22.5568 45.5227L23.9481 42.74C24.1037 42.4289 24.4818 42.3025 24.7933 42.4584C25.1043 42.614 25.2305 42.9923 25.0749 43.3035L23.6837 46.0862C23.5733 46.307 23.3508 46.4345 23.1198 46.4345Z" fill="#A0C8FF"/>
<path d="M30.0758 46.4344C29.9812 46.4344 29.8851 46.4129 29.7946 46.3677C29.4835 46.2121 29.3574 45.8338 29.5129 45.5226L30.9043 42.7398C31.0598 42.4288 31.4381 42.3027 31.7494 42.4582C32.0605 42.6139 32.1866 42.9921 32.0311 43.3034L30.6397 46.0861C30.5294 46.3068 30.3069 46.4344 30.0758 46.4344Z" fill="#A0C8FF"/>
<path d="M32.859 51.9999C32.7644 51.9999 32.6683 51.9785 32.5778 51.9333C32.2667 51.7776 32.1406 51.3994 32.2961 51.0881L33.6874 48.3054C33.8429 47.9942 34.2211 47.868 34.5325 48.0238C34.8436 48.1794 34.9697 48.5577 34.8141 48.8689L33.4228 51.6517C33.3126 51.8723 33.0901 51.9999 32.859 51.9999Z" fill="#A0C8FF"/>
<path d="M25.902 51.9999C25.8074 51.9999 25.7113 51.9785 25.6208 51.9333C25.3097 51.7776 25.1835 51.3994 25.3391 51.0881L26.7304 48.3054C26.8859 47.9942 27.2641 47.868 27.5755 48.0238C27.8866 48.1794 28.0127 48.5577 27.8572 48.8689L26.4659 51.6517C26.3555 51.8723 26.1331 51.9999 25.902 51.9999Z" fill="#A0C8FF"/>
<path d="M37.0329 46.4345C36.9382 46.4345 36.8421 46.4131 36.7516 46.3678C36.4405 46.2122 36.3144 45.834 36.4699 45.5227L37.8612 42.74C38.0168 42.4289 38.3949 42.3025 38.7063 42.4584C39.0174 42.614 39.1436 42.9923 38.988 43.3035L37.5967 46.0862C37.4864 46.307 37.2639 46.4345 37.0329 46.4345Z" fill="#A0C8FF"/>
</svg>
