<svg width="11" height="12" viewBox="0 0 11 12" fill="none" xmlns="http://www.w3.org/2000/svg">
<path fill-rule="evenodd" clip-rule="evenodd" d="M8.0068 0.586888C8.24951 0.424929 8.53502 0.339046 8.8268 0.340222C9.22446 0.331218 9.60886 0.48338 9.89261 0.762114C10.1764 1.04085 10.3354 1.42247 10.3335 1.82022V10.1802C10.336 10.733 10.0315 11.2416 9.5431 11.5005C9.05467 11.7594 8.46291 11.7259 8.0068 11.4136L3.74013 8.56689C3.49612 8.40167 3.20816 8.31343 2.91347 8.31355H1.76013C1.36646 8.31533 0.988302 8.16018 0.709304 7.88244C0.430307 7.60469 0.273464 7.22723 0.273468 6.83356V5.16689C0.273464 4.77321 0.430307 4.39575 0.709304 4.11801C0.988302 3.84026 1.36646 3.68512 1.76013 3.68689H2.91347C3.20816 3.68702 3.49612 3.59877 3.74013 3.43356L8.0068 0.586888ZM8.8268 10.6602C9.093 10.6602 9.30982 10.4464 9.31347 10.1802V1.82022C9.30982 1.55405 9.093 1.3402 8.8268 1.34022C8.73213 1.3411 8.63966 1.36885 8.56013 1.42022L4.29347 4.26689C3.88318 4.53384 3.40291 4.67305 2.91347 4.66689H1.76013C1.62507 4.66657 1.49595 4.72239 1.40367 4.82101C1.31138 4.91962 1.26422 5.05215 1.27347 5.18689V6.85356C1.27711 7.11973 1.49394 7.33358 1.76013 7.33356H2.91347C3.40291 7.3274 3.88318 7.46661 4.29347 7.73356L8.56013 10.5802C8.63966 10.6316 8.73213 10.6593 8.8268 10.6602Z" fill="#029155"/>
</svg>
