<svg width="62" height="62" viewBox="0 0 62 62" fill="none" xmlns="http://www.w3.org/2000/svg">
<rect width="62" height="62" rx="15" fill="#029155"/>
<path fill-rule="evenodd" clip-rule="evenodd" d="M33.2575 14.4501L45.245 22.8676C47.1087 24.1774 48.2185 26.3122 48.22 28.5901V41.0676C48.2154 43.0494 47.4236 44.9483 46.019 46.3463C44.6143 47.7444 42.7118 48.5272 40.73 48.5226H20.99C19.0082 48.5272 17.1057 47.7444 15.701 46.3463C14.2964 44.9483 13.5046 43.0494 13.5 41.0676V28.5901C13.5015 26.3122 14.6113 24.1774 16.475 22.8676L28.4625 14.4501C29.8098 13.1833 31.9102 13.1833 33.2575 14.4501ZM44.1628 44.4902C45.0752 43.5844 45.5904 42.3532 45.595 41.0676V28.5901C45.5705 27.1943 44.8813 25.894 43.74 25.0901L31.7525 16.6726L31.56 16.5326C31.3757 16.3445 31.1234 16.2385 30.86 16.2385C30.5966 16.2385 30.3443 16.3445 30.16 16.5326L29.9675 16.6726L17.98 25.0901C16.8387 25.894 16.1495 27.1943 16.125 28.5901V41.0676C16.1296 42.3532 16.6448 43.5844 17.5572 44.4902C18.4695 45.396 19.7044 45.9022 20.99 45.8976H40.73C42.0156 45.9022 43.2505 45.396 44.1628 44.4902Z" fill="#FDFEFF"/>
<path d="M41.4825 29.2729L31.7875 36.0454C31.5005 36.3325 31.1064 36.4864 30.7008 36.4698C30.2952 36.4531 29.9151 36.2675 29.6525 35.9579L20.2375 29.2729C19.8593 28.9458 19.3281 28.862 18.8676 29.0568C18.4071 29.2516 18.0973 29.6912 18.0686 30.1903C18.0399 30.6895 18.2973 31.1617 18.7325 31.4079L28.0075 38.0229C28.768 38.731 29.7684 39.1249 30.8075 39.1254C31.7848 39.1007 32.7164 38.7068 33.415 38.0229L42.9875 31.3379C43.5378 30.9306 43.6826 30.1687 43.32 29.5879C42.8959 28.9994 42.0784 28.8592 41.4825 29.2729Z" fill="#FDFEFF"/>
</svg>
