<svg width="18" height="21" viewBox="0 0 18 21" fill="none" xmlns="http://www.w3.org/2000/svg">
<path fill-rule="evenodd" clip-rule="evenodd" d="M2.08094 13.5213C2.76981 12.2726 4.08389 11.498 5.50999 11.5C7.19721 11.525 8.67806 12.6295 9.18297 14.2396C9.68789 15.8497 9.10294 17.602 7.73212 18.586C6.36131 19.57 4.51391 19.5635 3.14999 18.57L1.69999 20.08C1.55681 20.2241 1.36307 20.3066 1.15999 20.31C0.965614 20.312 0.778454 20.2365 0.639994 20.1C0.347541 19.8072 0.347541 19.3328 0.639994 19.04L2.08999 17.5H2.19999C1.4377 16.2947 1.39208 14.77 2.08094 13.5213ZM3.09999 15.41C3.09999 16.741 4.17899 17.82 5.50999 17.82V17.79C6.82937 17.7901 7.90357 16.7293 7.91999 15.41C7.91999 14.079 6.841 13 5.50999 13C4.17899 13 3.09999 14.079 3.09999 15.41Z" fill="#029155"/>
<path fill-rule="evenodd" clip-rule="evenodd" d="M10.35 0.880156L17.35 7.88016C17.5168 8.01898 17.6153 8.22322 17.62 8.44016V15.4402C17.62 16.6999 17.1196 17.9081 16.2288 18.7989C15.338 19.6897 14.1298 20.1902 12.87 20.1902H10C9.5858 20.1902 9.25001 19.8544 9.25001 19.4402C9.25001 19.0259 9.5858 18.6902 10 18.6902H12.82C14.6149 18.6902 16.07 17.2351 16.07 15.4402V9.19016H11.82C10.3035 9.18467 9.0755 7.95666 9.07001 6.44016V2.19016H6.82001C5.02737 2.19565 3.5755 3.64751 3.57001 5.44016V10.4402C3.57001 10.8544 3.23423 11.1902 2.82001 11.1902C2.4058 11.1902 2.07001 10.8544 2.07001 10.4402V5.44016C2.06202 4.17519 2.55894 2.95929 3.4506 2.06199C4.34227 1.16469 5.55502 0.660131 6.82001 0.660156H9.82001C10.0189 0.660331 10.2095 0.739464 10.35 0.880156ZM10.57 3.22016V6.44016C10.57 7.13051 11.1297 7.69016 11.82 7.69016H15L10.57 3.22016Z" fill="#029155"/>
</svg>
