<svg width="16" height="21" viewBox="0 0 16 21" fill="none" xmlns="http://www.w3.org/2000/svg">
<path fill-rule="evenodd" clip-rule="evenodd" d="M8.35001 0.880156L15.35 7.88016C15.5168 8.01898 15.6153 8.22322 15.62 8.44016V15.4402C15.62 16.6999 15.1196 17.9081 14.2288 18.7989C13.338 19.6897 12.1298 20.1902 10.87 20.1902H8.00001C7.5858 20.1902 7.25001 19.8544 7.25001 19.4402C7.25001 19.0259 7.5858 18.6902 8.00001 18.6902H10.82C12.6149 18.6902 14.07 17.2351 14.07 15.4402V9.19016H9.82001C8.30351 9.18467 7.0755 7.95666 7.07001 6.44016V2.19016H4.82001C3.02737 2.19565 1.5755 3.64751 1.57001 5.44016V10.4402C1.57001 10.8544 1.23423 11.1902 0.820012 11.1902C0.405798 11.1902 0.0700117 10.8544 0.0700117 10.4402V5.44016C0.0620223 4.17519 0.558938 2.95929 1.4506 2.06199C2.34227 1.16469 3.55502 0.660131 4.82001 0.660156H7.82001C8.01886 0.660331 8.20949 0.739464 8.35001 0.880156ZM8.57001 3.22016V6.44016C8.57001 7.13051 9.12966 7.69016 9.82001 7.69016H13L8.57001 3.22016Z" fill="#029155"/>
</svg>
