<svg width="10" height="10" viewBox="0 0 10 10" fill="none" xmlns="http://www.w3.org/2000/svg">
<path fill-rule="evenodd" clip-rule="evenodd" d="M3.74011 0.674199L8.57345 3.46753C9.19025 3.82533 9.5699 4.48446 9.5699 5.19753C9.5699 5.9106 9.19025 6.56974 8.57345 6.92753L3.74011 9.72087C3.12111 10.0782 2.35844 10.0781 1.73956 9.72055C1.12067 9.36297 0.739655 8.70229 0.740113 7.98753V2.40753C0.739655 1.69277 1.12067 1.0321 1.73956 0.67452C2.35844 0.316941 3.12111 0.316819 3.74011 0.674199ZM3.14012 8.68087L7.97345 5.8942C8.22215 5.75222 8.37503 5.48723 8.37345 5.20087C8.37603 4.91249 8.22321 4.64505 7.97345 4.50087L3.14012 1.7142C3.01923 1.64154 2.88115 1.60241 2.74011 1.60087C2.29461 1.60087 1.93345 1.96202 1.93345 2.40753V7.98753C1.93345 8.20147 2.01844 8.40665 2.16972 8.55793C2.32099 8.70921 2.52617 8.7942 2.74011 8.7942C2.88115 8.79265 3.01923 8.75353 3.14012 8.68087Z" fill="#029155"/>
</svg>
