<svg width="23" height="23" viewBox="0 0 23 23" fill="none" xmlns="http://www.w3.org/2000/svg">
<path d="M18.0952 5.71429V3.80952C18.0952 2.79918 17.6939 1.83021 16.9795 1.11578C16.265 0.401359 15.2961 0 14.2857 0L8.57143 0C7.56108 0 6.59211 0.401359 5.87769 1.11578C5.16326 1.83021 4.7619 2.79918 4.7619 3.80952V5.71429C3.49943 5.7158 2.2891 6.21798 1.3964 7.11069C0.503697 8.00339 0.00151225 9.21372 0 10.4762L0 15.2381C0.00151225 16.5006 0.503697 17.7109 1.3964 18.6036C2.2891 19.4963 3.49943 19.9985 4.7619 20C4.7619 20.7578 5.06292 21.4845 5.59874 22.0203C6.13456 22.5561 6.86129 22.8571 7.61905 22.8571H15.2381C15.9959 22.8571 16.7226 22.5561 17.2584 22.0203C17.7942 21.4845 18.0952 20.7578 18.0952 20C19.3577 19.9985 20.568 19.4963 21.4607 18.6036C22.3534 17.7109 22.8556 16.5006 22.8571 15.2381V10.4762C22.8556 9.21372 22.3534 8.00339 21.4607 7.11069C20.568 6.21798 19.3577 5.7158 18.0952 5.71429ZM6.66667 3.80952C6.66667 3.30435 6.86735 2.81987 7.22456 2.46265C7.58177 2.10544 8.06625 1.90476 8.57143 1.90476H14.2857C14.7909 1.90476 15.2754 2.10544 15.6326 2.46265C15.9898 2.81987 16.1905 3.30435 16.1905 3.80952V5.71429H6.66667V3.80952ZM16.1905 20C16.1905 20.2526 16.0901 20.4948 15.9115 20.6734C15.7329 20.852 15.4907 20.9524 15.2381 20.9524H7.61905C7.36646 20.9524 7.12422 20.852 6.94561 20.6734C6.76701 20.4948 6.66667 20.2526 6.66667 20V16.1905C6.66667 15.9379 6.76701 15.6956 6.94561 15.517C7.12422 15.3384 7.36646 15.2381 7.61905 15.2381H15.2381C15.4907 15.2381 15.7329 15.3384 15.9115 15.517C16.0901 15.6956 16.1905 15.9379 16.1905 16.1905V20ZM20.9524 15.2381C20.9524 15.9959 20.6514 16.7226 20.1155 17.2584C19.5797 17.7942 18.853 18.0952 18.0952 18.0952V16.1905C18.0952 15.4327 17.7942 14.706 17.2584 14.1702C16.7226 13.6344 15.9959 13.3333 15.2381 13.3333H7.61905C6.86129 13.3333 6.13456 13.6344 5.59874 14.1702C5.06292 14.706 4.7619 15.4327 4.7619 16.1905V18.0952C4.00414 18.0952 3.27742 17.7942 2.7416 17.2584C2.20578 16.7226 1.90476 15.9959 1.90476 15.2381V10.4762C1.90476 9.71843 2.20578 8.9917 2.7416 8.45588C3.27742 7.92007 4.00414 7.61905 4.7619 7.61905H18.0952C18.853 7.61905 19.5797 7.92007 20.1155 8.45588C20.6514 8.9917 20.9524 9.71843 20.9524 10.4762V15.2381Z" fill="#029155"/>
</svg>
