<svg width="20" height="15" viewBox="0 0 20 15" fill="none" xmlns="http://www.w3.org/2000/svg">
<path fill-rule="evenodd" clip-rule="evenodd" d="M16 0.5H4C1.79086 0.5 0 2.29086 0 4.5V10.5C0 12.7091 1.79086 14.5 4 14.5H16C18.2091 14.5 20 12.7091 20 10.5V4.5C20 2.29086 18.2091 0.5 16 0.5ZM4 2H16C16.663 2 17.2989 2.26339 17.7678 2.73223C18.2366 3.20107 18.5 3.83696 18.5 4.5V8.75H1.5V4.5C1.5 3.11929 2.61929 2 4 2ZM4 13H16C16.663 13 17.2989 12.7366 17.7678 12.2678C18.2366 11.7989 18.5 11.163 18.5 10.5V10.25H1.5V10.5C1.5 11.8807 2.61929 13 4 13Z" fill="#029155"/>
</svg>
