<svg width="63" height="63" viewBox="0 0 63 63" fill="none" xmlns="http://www.w3.org/2000/svg">
<rect x="0.5" y="0.359375" width="62" height="62" rx="15" fill="#029155"/>
<path d="M42 22.6094V40.1094C42 41.1944 41.965 42.1569 41.8425 43.0144C41.335 47.6169 39.165 48.8594 33.25 48.8594H29.75C23.835 48.8594 21.665 47.6169 21.1575 43.0144C21.035 42.1569 21 41.1944 21 40.1094V22.6094C21 21.5244 21.035 20.5619 21.1575 19.7044C21.665 15.1019 23.835 13.8594 29.75 13.8594H33.25C39.165 13.8594 41.335 15.1019 41.8425 19.7044C41.965 20.5619 42 21.5244 42 22.6094Z" stroke="#FDFEFF" stroke-width="1.5" stroke-linecap="round" stroke-linejoin="round"/>
<path opacity="0.4" d="M21 40.1095C21 41.1945 21.035 42.157 21.1575 43.0145C20.9125 43.032 20.685 43.032 20.4225 43.032H19.8275C15.1725 43.032 14 41.8595 14 37.187V25.532C14 20.8595 15.1725 19.687 19.8275 19.687H20.4225C20.685 19.687 20.9125 19.687 21.1575 19.7045C21.035 20.562 21 21.5245 21 22.6095V40.1095Z" stroke="#FDFEFF" stroke-width="1.5" stroke-linecap="round" stroke-linejoin="round"/>
<path opacity="0.4" d="M49.0003 25.532V37.187C49.0003 41.8595 47.8278 43.032 43.1728 43.032H42.5778C42.3153 43.032 42.0878 43.032 41.8428 43.0145C41.9653 42.157 42.0003 41.1945 42.0003 40.1095V22.6095C42.0003 21.5245 41.9653 20.562 41.8428 19.7045C42.0878 19.687 42.3153 19.687 42.5778 19.687H43.1728C47.8278 19.687 49.0003 20.8595 49.0003 25.532Z" stroke="#FDFEFF" stroke-width="1.5" stroke-linecap="round" stroke-linejoin="round"/>
</svg>
