<svg width="8" height="12" viewBox="0 0 8 12" fill="none" xmlns="http://www.w3.org/2000/svg">
<path fill-rule="evenodd" clip-rule="evenodd" d="M5.9687 8.15348C6.26968 8.15432 6.56473 8.2373 6.82203 8.39348H6.81536C7.59108 8.85617 7.85451 9.85415 7.4082 10.6394C6.9619 11.4247 5.96966 11.709 5.17522 11.2792C4.38078 10.8495 4.07572 9.86343 4.4887 9.06015L2.53536 7.06682C2.39432 7.15269 2.24164 7.2178 2.08203 7.26015C1.94912 7.29428 1.81257 7.31218 1.67536 7.31348C0.829548 7.31777 0.114636 6.68782 0.0124497 5.84819C-0.0897366 5.00856 0.453209 4.22553 1.27536 4.02682C1.40627 3.99489 1.54062 3.97922 1.67536 3.98015C2.01941 3.98042 2.35487 4.08758 2.63536 4.28682L4.4887 2.43348C4.21258 1.91757 4.22974 1.29413 4.53382 0.794179C4.83789 0.294232 5.38359 -0.00774307 5.9687 0.000151064C6.2691 -0.00136551 6.56419 0.0793244 6.82203 0.233484C7.34602 0.521679 7.67645 1.06753 7.68887 1.66541C7.70128 2.2633 7.39378 2.82239 6.8822 3.13208C6.37062 3.44177 5.73269 3.45501 5.2087 3.16682L3.2487 5.12682C3.27045 5.17417 3.28829 5.22322 3.30203 5.27348C3.39059 5.63231 3.35535 6.01053 3.20203 6.34682L5.20203 8.34682C5.43884 8.22301 5.7015 8.15678 5.9687 8.15348ZM5.96869 1.00015C5.73466 0.998788 5.51706 1.12024 5.39536 1.32015C5.30446 1.47255 5.27807 1.6549 5.32203 1.82682C5.36052 1.99847 5.46938 2.14604 5.62203 2.23348C5.72426 2.29688 5.84175 2.33144 5.96203 2.33348C6.1974 2.33344 6.41532 2.20928 6.53536 2.00682C6.72424 1.6919 6.6229 1.28354 6.30869 1.09348C6.20663 1.03048 6.08862 0.998082 5.96869 1.00015ZM1.67536 6.31348C1.36156 6.32263 1.08391 6.11161 1.0087 5.80682C0.966722 5.63402 0.995523 5.45161 1.0887 5.30015C1.17963 5.15066 1.32569 5.04291 1.49536 5.00015H1.65536C1.96916 4.99101 2.24682 5.20203 2.32203 5.50682C2.36415 5.67665 2.33781 5.85623 2.2487 6.00682L2.2087 6.05348C2.12026 6.17998 1.99066 6.27188 1.84203 6.31348H1.67536ZM5.96203 10.4535C6.19606 10.4548 6.41366 10.3334 6.53536 10.1335C6.70239 9.82611 6.60343 9.44192 6.30869 9.25348C6.20646 9.19009 6.08897 9.15553 5.96869 9.15348C5.73332 9.15353 5.5154 9.27769 5.39536 9.48015C5.20648 9.79506 5.30783 10.2034 5.62203 10.3935C5.72751 10.4449 5.84531 10.4657 5.96203 10.4535Z" fill="#029155"/>
</svg>
