<svg width="59" height="59" viewBox="0 0 59 59" fill="none" xmlns="http://www.w3.org/2000/svg">
<circle cx="29.5" cy="29.5" r="29.5" fill="#EBCD94"/>
<path fill-rule="evenodd" clip-rule="evenodd" d="M30.1418 20.6966C31.456 19.6014 33.4614 20.3927 33.6736 22.0903C34.3276 27.3219 34.3276 32.6146 33.6736 37.8462C33.4614 39.5438 31.456 40.3352 30.1418 39.24L24.7216 34.7232C24.6655 34.6764 24.5948 34.6508 24.5218 34.6508H19.9791C18.7723 34.6508 17.7939 33.6725 17.7939 32.4656V27.4709C17.7939 26.2641 18.7723 25.2857 19.9791 25.2857H24.5218C24.5948 25.2857 24.6655 25.2601 24.7216 25.2134L30.1418 20.6966ZM31.8151 22.3226C31.7866 22.0947 31.5173 21.9884 31.3408 22.1355L25.9207 26.6523C25.528 26.9795 25.033 27.1587 24.5218 27.1587H19.9791C19.8067 27.1587 19.667 27.2985 19.667 27.4709V32.4656C19.667 32.638 19.8067 32.7778 19.9791 32.7778H24.5218C25.033 32.7778 25.528 32.957 25.9207 33.2843L31.3408 37.8011C31.5173 37.9481 31.7866 37.8419 31.8151 37.6139C32.4497 32.5366 32.4497 27.4 31.8151 22.3226Z" fill="#302E39"/>
<path d="M39.8433 22.4085C40.3343 22.2461 40.8641 22.5125 41.0265 23.0036C41.7513 25.1949 42.1432 27.5368 42.1432 29.9683C42.1432 32.3998 41.7513 34.7416 41.0265 36.933C40.8641 37.424 40.3343 37.6905 39.8433 37.5281C39.3522 37.3656 39.0858 36.8359 39.2482 36.3448C39.911 34.3408 40.2701 32.1974 40.2701 29.9683C40.2701 27.7391 39.911 25.5957 39.2482 23.5917C39.0858 23.1006 39.3522 22.5709 39.8433 22.4085Z" fill="#302E39"/>
<path d="M37.5009 24.9082C37.3225 24.4228 36.7844 24.1738 36.2989 24.3522C35.8134 24.5305 35.5644 25.0687 35.7428 25.5542C36.2479 26.9289 36.5241 28.4153 36.5241 29.9683C36.5241 31.2564 36.3341 32.4985 35.9812 33.6689C35.9615 33.7341 35.9414 33.7991 35.9207 33.8639C35.865 34.0384 35.8057 34.2112 35.7428 34.3823C35.5644 34.8678 35.8134 35.406 36.2989 35.5844C36.7844 35.7627 37.3225 35.5138 37.5009 35.0283C37.5731 34.8319 37.6412 34.6336 37.7051 34.4333C37.7288 34.359 37.7519 34.2844 37.7745 34.2096C38.1797 32.8657 38.3971 31.4416 38.3971 29.9683C38.3971 28.1917 38.0809 26.4868 37.5009 24.9082Z" fill="#302E39"/>
</svg>
