<svg width="86" height="87" viewBox="0 0 86 87" fill="none" xmlns="http://www.w3.org/2000/svg">
<rect x="0.791016" y="0.895508" width="85.209" height="85.209" rx="25.6567" fill="#029155"/>
<path fill-rule="evenodd" clip-rule="evenodd" d="M31.857 42.2675C33.1601 42.8497 34.2301 43.8524 34.8957 45.115L40.5057 55.3362C40.9257 56.0966 41.1382 56.954 41.122 57.8225L41.0157 62.0725C41.0123 62.9497 40.5429 63.7589 39.7832 64.1975C39.4363 64.381 39.0494 64.4759 38.657 64.4737C38.1841 64.4718 37.7208 64.3394 37.3182 64.0912L33.7482 61.9662C33.0066 61.5083 32.3983 60.8634 31.9845 60.0962L26.3957 49.875C25.6916 48.5694 25.4519 47.0634 25.7157 45.6037C25.878 44.2257 26.6605 42.9971 27.8407 42.2675C29.1054 41.6377 30.5923 41.6377 31.857 42.2675ZM35.3845 59.14L37.8495 60.6275L37.8282 57.695C37.821 57.3833 37.741 57.0777 37.5945 56.8025L32.0057 46.5812C31.6806 45.9378 31.1495 45.4217 30.497 45.115C30.2791 45.0062 30.0393 44.948 29.7957 44.945C29.6181 44.9467 29.4433 44.9904 29.2857 45.0725C28.9335 45.3086 28.7069 45.6913 28.6695 46.1137C28.5724 46.8496 28.7218 47.5969 29.0945 48.2387L34.6832 58.375C34.8339 58.6953 35.0785 58.9621 35.3845 59.14Z" fill="#FDFEFF"/>
<path fill-rule="evenodd" clip-rule="evenodd" d="M45.9883 22.9937L60.8633 37.8687C61.1784 38.1828 61.3478 38.6142 61.3308 39.0587V53.9337C61.3308 56.6108 60.2673 59.1782 58.3744 61.0711C56.4814 62.9641 53.914 64.0275 51.237 64.0275H45.1383C44.2581 64.0275 43.5445 63.3139 43.5445 62.4337C43.5445 61.5535 44.2581 60.84 45.1383 60.84H51.237C55.0464 60.8283 58.1316 57.7431 58.1433 53.9337V40.6525H49.112C45.8894 40.6408 43.2799 38.0313 43.2683 34.8087V25.7775H38.487C34.6728 25.7775 31.5808 28.8695 31.5808 32.6837V38.315C31.5808 39.1952 30.8672 39.9087 29.987 39.9087C29.1068 39.9087 28.3933 39.1952 28.3933 38.315V32.6837C28.3763 29.9957 29.4322 27.4119 31.327 25.5051C33.2218 23.5984 35.7989 22.5262 38.487 22.5262H44.862C45.2846 22.5266 45.6897 22.6948 45.9883 22.9937ZM46.4559 27.9662V34.8087C46.4559 36.2758 47.6451 37.465 49.1121 37.465H55.9546L46.4559 27.9662Z" fill="#FDFEFF"/>
</svg>
