<svg width="20" height="19" viewBox="0 0 20 19" fill="none" xmlns="http://www.w3.org/2000/svg">
<path fill-rule="evenodd" clip-rule="evenodd" d="M19.74 12.2411L19.88 12.9311C20.0324 13.5205 19.9081 14.1473 19.5422 14.6339C19.1762 15.1205 18.6086 15.414 18 15.4311H14.19C14.1909 17.0497 12.9077 18.3771 11.29 18.4311H2.99998C2.08452 18.4159 1.2261 17.9835 0.668992 17.2569C0.111879 16.5304 -0.0829354 15.5891 0.139983 14.7011L0.349983 13.7011C0.594168 12.3235 1.78112 11.3127 3.17998 11.2911H11.12C11.4743 10.8676 11.9978 10.6223 12.55 10.6211H17.84C18.774 10.6509 19.5629 11.3235 19.74 12.2411ZM17.98 13.9211C18.102 13.9166 18.2156 13.8579 18.29 13.7611C18.4208 13.6291 18.4866 13.4461 18.47 13.2611L18.33 12.5711C18.3029 12.3476 18.1241 12.1729 17.9 12.1511H12.61C12.4949 12.1519 12.3871 12.2076 12.32 12.3011C12.0332 12.6313 11.6174 12.821 11.18 12.8211H3.23998C2.5554 12.8378 1.98177 13.3439 1.87998 14.0211L1.66998 15.0211C1.56741 15.5136 1.68825 16.0262 1.99998 16.4211C2.24348 16.7282 2.60842 16.9143 2.99998 16.9311H11.26C12.0648 16.8777 12.6833 16.1973 12.66 15.3911C12.6763 14.5744 13.3431 13.9209 14.16 13.9211H17.98Z" fill="#029155"/>
<path fill-rule="evenodd" clip-rule="evenodd" d="M11.1 5.50031C11.1 7.70945 9.30911 9.50031 7.09998 9.50031C4.89084 9.50031 3.09998 7.70945 3.09998 5.50031V3.93031C3.09998 2.07464 4.6043 0.570312 6.45998 0.570312H7.76998C9.61393 0.586777 11.1 2.08629 11.1 3.93031V5.50031ZM6.45998 2.07031C5.43273 2.07031 4.59998 2.90306 4.59998 3.93031L4.62998 5.50031C4.78957 6.75949 5.86073 7.70345 7.12998 7.70345C8.39922 7.70345 9.47038 6.75949 9.62998 5.50031V3.93031C9.62998 2.90306 8.79723 2.07031 7.76998 2.07031H6.45998Z" fill="#029155"/>
<path fill-rule="evenodd" clip-rule="evenodd" d="M18.6799 5.75203C18.6799 7.40889 17.3368 8.75203 15.6799 8.75203C14.0231 8.75203 12.6799 7.40889 12.6799 5.75203V4.60203C12.6798 3.22575 13.7838 2.10388 15.1599 2.08203H16.1599C17.5517 2.08203 18.6799 3.21027 18.6799 4.60203V5.75203ZM15.1799 3.60203C14.6276 3.60203 14.1799 4.04975 14.1799 4.60203V5.75203C14.1799 6.58046 14.8515 7.25203 15.6799 7.25203C16.5084 7.25203 17.1799 6.58046 17.1799 5.75203V4.60203C17.1799 4.04975 16.7322 3.60203 16.1799 3.60203H15.1799Z" fill="#029155"/>
</svg>
