<svg width="86" height="87" viewBox="0 0 86 87" fill="none" xmlns="http://www.w3.org/2000/svg">
<rect x="0.791016" y="0.895508" width="85.209" height="85.209" rx="25.6567" fill="#029155"/>
<path fill-rule="evenodd" clip-rule="evenodd" d="M48.261 47.75C51.5966 47.8177 54.4227 50.2261 55.0185 53.5088L55.5073 55.9313C55.99 58.0221 55.5154 60.2194 54.2129 61.9247C52.9103 63.6299 50.9152 64.6657 48.771 64.75H29.0298C26.8826 64.6733 24.8825 63.6394 23.5783 61.932C22.274 60.2246 21.8027 58.023 22.2935 55.9313L22.7823 53.5088C23.3688 50.2294 26.1878 47.8195 29.5185 47.75H48.261ZM48.771 61.5624C49.8448 61.5528 50.8549 61.0516 51.5122 60.2024C52.3547 59.1856 52.6766 57.835 52.3835 56.5474L51.8947 54.1249C51.5947 52.3306 50.0786 50.9918 48.261 50.9162H29.5185C27.7056 50.9935 26.1966 52.3339 25.906 54.1249L25.5235 56.5687C25.2373 57.8495 25.5588 59.1907 26.3947 60.2024C27.0287 61.0231 27.9935 61.5211 29.0297 61.5624H48.771Z" fill="#FDFEFF"/>
<path fill-rule="evenodd" clip-rule="evenodd" d="M39.9526 43.4999H37.8276C33.1332 43.4999 29.3276 39.6943 29.3276 34.9999V29.3899C29.3276 25.4466 32.5243 22.2499 36.4676 22.2499H41.2701C43.1729 22.2329 45.0032 22.9783 46.3527 24.3198C47.7021 25.6612 48.4584 27.4871 48.4526 29.3899V34.9999C48.4526 39.6943 44.6471 43.4999 39.9526 43.4999ZM36.4679 25.4375C34.285 25.4375 32.5154 27.2071 32.5154 29.39V35C32.5268 37.9128 34.8728 40.2777 37.7854 40.3125H39.9104C41.3193 40.3125 42.6706 39.7528 43.6669 38.7565C44.6632 37.7602 45.2229 36.409 45.2229 35V29.39C45.2229 27.2071 43.4533 25.4375 41.2704 25.4375H36.4679Z" fill="#FDFEFF"/>
<path d="M63.3269 31.2812H60.3944V28.37C60.3944 27.4898 59.6808 26.7762 58.8006 26.7762C57.9204 26.7762 57.2069 27.4898 57.2069 28.37V31.2812H54.3169C53.4367 31.2812 52.7231 31.9948 52.7231 32.875C52.7231 33.7552 53.4367 34.4687 54.3169 34.4687H57.2281V37.38C57.2281 38.2602 57.9417 38.9737 58.8219 38.9737C59.7021 38.9737 60.4156 38.2602 60.4156 37.38V34.4687H63.3269C64.2071 34.4687 64.9206 33.7552 64.9206 32.875C64.9206 31.9948 64.2071 31.2812 63.3269 31.2812Z" fill="#FDFEFF"/>
</svg>
