<svg width="16" height="21" viewBox="0 0 16 21" fill="none" xmlns="http://www.w3.org/2000/svg">
<path fill-rule="evenodd" clip-rule="evenodd" d="M15.58 15.21L15.82 16.35C16.0474 17.3356 15.8228 18.3713 15.2076 19.1741C14.5924 19.977 13.6508 20.4632 12.64 20.5H3.35997C2.34915 20.4632 1.40754 19.977 0.792319 19.1741C0.177098 18.3713 -0.0474614 17.3356 0.179972 16.35L0.419972 15.21C0.696007 13.6668 2.02259 12.5327 3.58997 12.5H12.41C13.9774 12.5327 15.3039 13.6668 15.58 15.21ZM12.64 18.99C13.1478 18.9841 13.6256 18.7488 13.94 18.35V18.36C14.3257 17.8762 14.4759 17.2458 14.35 16.64L14.11 15.5C13.9768 14.6552 13.2646 14.0226 12.41 13.99H3.58998C2.73534 14.0226 2.02314 14.6552 1.88998 15.5L1.64998 16.64C1.52713 17.2426 1.67724 17.8686 2.05998 18.35C2.37431 18.7488 2.85219 18.9841 3.35998 18.99H12.64Z" fill="#029155"/>
<path fill-rule="evenodd" clip-rule="evenodd" d="M8.50003 10.5H7.50003C5.29089 10.5 3.50003 8.70917 3.50003 6.50003V3.86003C3.49736 2.96809 3.85051 2.11191 4.48121 1.48121C5.11191 0.850506 5.96809 0.497363 6.86003 0.50003H9.14003C10.032 0.497363 10.8882 0.850506 11.5189 1.48121C12.1496 2.11191 12.5027 2.96809 12.5 3.86003V6.50003C12.5 8.70917 10.7092 10.5 8.50003 10.5ZM6.86003 2.00003C5.83278 2.00003 5.00003 2.83278 5.00003 3.86003V6.50003C5.00003 7.88074 6.11932 9.00003 7.50003 9.00003H8.50003C9.88074 9.00003 11 7.88074 11 6.50003V3.86003C11 3.36673 10.8041 2.89363 10.4552 2.54481C10.1064 2.19599 9.63333 2.00003 9.14003 2.00003H6.86003Z" fill="#029155"/>
</svg>
