<svg width="49" height="49" viewBox="0 0 49 49" fill="none" xmlns="http://www.w3.org/2000/svg">
<path d="M24.5 0.0762939C24.9641 0.0762939 25.4093 0.256906 25.7374 0.578397C26.0656 0.899887 26.25 1.33592 26.25 1.79058V5.21915C26.25 5.67381 26.0656 6.10984 25.7374 6.43133C25.4093 6.75282 24.9641 6.93344 24.5 6.93344C24.0359 6.93344 23.5908 6.75282 23.2626 6.43133C22.9344 6.10984 22.75 5.67381 22.75 5.21915V1.79058C22.75 1.33592 22.9344 0.899887 23.2626 0.578397C23.5908 0.256906 24.0359 0.0762939 24.5 0.0762939ZM24.5 34.362C27.2848 34.362 29.9555 33.2783 31.9246 31.3494C33.8938 29.4204 35 26.8042 35 24.0763C35 21.3484 33.8938 18.7321 31.9246 16.8032C29.9555 14.8743 27.2848 13.7906 24.5 13.7906C21.7152 13.7906 19.0445 14.8743 17.0754 16.8032C15.1062 18.7321 14 21.3484 14 24.0763C14 26.8042 15.1062 29.4204 17.0754 31.3494C19.0445 33.2783 21.7152 34.362 24.5 34.362ZM47.25 25.7906C47.7141 25.7906 48.1592 25.61 48.4874 25.2885C48.8156 24.967 49 24.531 49 24.0763C49 23.6216 48.8156 23.1856 48.4874 22.8641C48.1592 22.5426 47.7141 22.362 47.25 22.362H43.75C43.2859 22.362 42.8408 22.5426 42.5126 22.8641C42.1844 23.1856 42 23.6216 42 24.0763C42 24.531 42.1844 24.967 42.5126 25.2885C42.8408 25.61 43.2859 25.7906 43.75 25.7906H47.25ZM24.5 41.2192C24.9641 41.2192 25.4093 41.3998 25.7374 41.7213C26.0656 42.0427 26.25 42.4788 26.25 42.9334V46.362C26.25 46.8167 26.0656 47.2527 25.7374 47.5742C25.4093 47.8957 24.9641 48.0763 24.5 48.0763C24.0359 48.0763 23.5908 47.8957 23.2626 47.5742C22.9344 47.2527 22.75 46.8167 22.75 46.362V42.9334C22.75 42.4788 22.9344 42.0427 23.2626 41.7213C23.5908 41.3998 24.0359 41.2192 24.5 41.2192ZM5.25 25.7906C5.71413 25.7906 6.15925 25.61 6.48744 25.2885C6.81563 24.967 7 24.531 7 24.0763C7 23.6216 6.81563 23.1856 6.48744 22.8641C6.15925 22.5426 5.71413 22.362 5.25 22.362H1.75C1.28587 22.362 0.840752 22.5426 0.512563 22.8641C0.184374 23.1856 0 23.6216 0 24.0763C0 24.531 0.184374 24.967 0.512563 25.2885C0.840752 25.61 1.28587 25.7906 1.75 25.7906H5.25ZM7.511 7.43401C7.67356 7.27436 7.86667 7.1477 8.07928 7.06128C8.29189 6.97486 8.51981 6.93037 8.75 6.93037C8.98019 6.93037 9.20811 6.97486 9.42072 7.06128C9.63333 7.1477 9.82644 7.27436 9.989 7.43401L13.489 10.8626C13.6517 11.022 13.7808 11.2112 13.8688 11.4194C13.9569 11.6277 14.0022 11.8509 14.0022 12.0763C14.0022 12.3017 13.9569 12.5249 13.8688 12.7332C13.7808 12.9414 13.6517 13.1306 13.489 13.29C13.3263 13.4494 13.1331 13.5758 12.9205 13.6621C12.708 13.7483 12.4801 13.7927 12.25 13.7927C12.0199 13.7927 11.792 13.7483 11.5795 13.6621C11.3669 13.5758 11.1737 13.4494 11.011 13.29L7.511 9.86144C7.34803 9.7022 7.21873 9.51302 7.13051 9.30475C7.04228 9.09648 6.99687 8.87321 6.99687 8.64772C6.99687 8.42223 7.04228 8.19896 7.13051 7.99069C7.21873 7.78242 7.34803 7.59325 7.511 7.43401ZM9.989 40.7186C9.82652 40.878 9.63359 41.0044 9.42121 41.0908C9.20884 41.1771 8.98118 41.2217 8.75124 41.2218C8.5213 41.222 8.29357 41.1778 8.08107 41.0917C7.86857 41.0057 7.67546 40.8795 7.51275 40.7203C7.35004 40.5611 7.22093 40.3721 7.13278 40.1641C7.04464 39.9561 6.99919 39.733 6.99903 39.5078C6.99886 39.2825 7.04399 39.0595 7.13184 38.8513C7.21968 38.6431 7.34852 38.454 7.511 38.2946L11.011 34.866C11.1735 34.7066 11.3664 34.5801 11.5788 34.4938C11.7912 34.4075 12.0188 34.3629 12.2488 34.3628C12.4787 34.3626 12.7064 34.4068 12.9189 34.4929C13.1314 34.5789 13.3245 34.7051 13.4872 34.8643C13.65 35.0235 13.7791 35.2125 13.8672 35.4205C13.9554 35.6285 14.0008 35.8516 14.001 36.0768C14.0011 36.302 13.956 36.5251 13.8682 36.7333C13.7803 36.9414 13.6515 37.1306 13.489 37.29L9.989 40.7186ZM41.489 7.43401C41.3264 7.27436 41.1333 7.1477 40.9207 7.06128C40.7081 6.97486 40.4802 6.93037 40.25 6.93037C40.0198 6.93037 39.7919 6.97486 39.5793 7.06128C39.3667 7.1477 39.1736 7.27436 39.011 7.43401L35.511 10.8626C35.1824 11.1845 34.9978 11.6211 34.9978 12.0763C34.9978 12.5315 35.1824 12.9681 35.511 13.29C35.8396 13.6119 36.2853 13.7927 36.75 13.7927C37.2147 13.7927 37.6604 13.6119 37.989 13.29L41.489 9.86144C41.652 9.7022 41.7813 9.51302 41.8695 9.30475C41.9577 9.09648 42.0031 8.87321 42.0031 8.64772C42.0031 8.42223 41.9577 8.19896 41.8695 7.99069C41.7813 7.78242 41.652 7.59325 41.489 7.43401ZM39.011 40.7186C39.3391 41.0405 39.7844 41.2215 40.2488 41.2218C40.7132 41.2221 41.1586 41.0417 41.4873 40.7203C41.8159 40.3988 42.0006 39.9627 42.001 39.5078C42.0013 39.0529 41.8171 38.6165 41.489 38.2946L37.989 34.866C37.6609 34.5441 37.2156 34.3631 36.7512 34.3628C36.2868 34.3624 35.8414 34.5429 35.5127 34.8643C35.1841 35.1857 34.9994 35.6219 34.999 36.0768C34.9987 36.5317 35.1829 36.9681 35.511 37.29L39.011 40.7186Z" fill="#E7D110"/>
</svg>
