<svg width="86" height="87" viewBox="0 0 86 87" fill="none" xmlns="http://www.w3.org/2000/svg">
<rect x="0.791016" y="0.895508" width="85.209" height="85.209" rx="25.6567" fill="#029155"/>
<path fill-rule="evenodd" clip-rule="evenodd" d="M59.5028 53.5087L60.0128 55.9312C60.4961 58.0256 60.0189 60.2264 58.7115 61.9326C57.4042 63.6387 55.4033 64.6719 53.2553 64.75H33.5353C31.3873 64.6719 29.3864 63.6387 28.079 61.9326C26.7717 60.2264 26.2945 58.0256 26.7778 55.9312L27.2878 53.5087C27.8744 50.2294 30.6934 47.8195 34.024 47.75H52.7665C56.0972 47.8195 58.9162 50.2294 59.5028 53.5087ZM53.2553 61.5412C54.3343 61.5287 55.3498 61.0288 56.0178 60.1812V60.2025C56.8374 59.1744 57.1567 57.8348 56.889 56.5475L56.379 54.125C56.0961 52.3297 54.5826 50.9855 52.7665 50.9162H34.024C32.2079 50.9855 30.6945 52.3297 30.4115 54.125L29.9015 56.5475C29.6405 57.828 29.9595 59.1584 30.7728 60.1812C31.4407 61.0288 32.4562 61.5287 33.5353 61.5412H53.2553Z" fill="#FDFEFF"/>
<path fill-rule="evenodd" clip-rule="evenodd" d="M44.4576 43.4999H42.3326C37.6381 43.4999 33.8326 39.6943 33.8326 34.9999V29.3899C33.8269 27.4945 34.5773 25.6752 35.9176 24.3349C37.2578 22.9947 39.0772 22.2442 40.9726 22.2499H45.8176C47.7129 22.2442 49.5323 22.9947 50.8726 24.3349C52.2128 25.6752 52.9632 27.4945 52.9576 29.3899V34.9999C52.9576 39.6943 49.152 43.4999 44.4576 43.4999ZM40.9726 25.4374C38.7897 25.4374 37.0201 27.207 37.0201 29.3899V34.9999C37.0201 37.9339 39.3986 40.3124 42.3326 40.3124H44.4576C47.3916 40.3124 49.7701 37.9339 49.7701 34.9999V29.3899C49.7701 28.3417 49.3536 27.3363 48.6124 26.5951C47.8712 25.8538 46.8658 25.4374 45.8176 25.4374H40.9726Z" fill="#FDFEFF"/>
</svg>
