<svg width="277" height="241" viewBox="0 0 277 241" fill="none" xmlns="http://www.w3.org/2000/svg">
<path d="M170 161V207" stroke="#636362" stroke-width="5" stroke-linecap="round"/>
<path fill-rule="evenodd" clip-rule="evenodd" d="M146.816 81.1421C146.816 79.7614 145.697 78.6421 144.316 78.6421C142.936 78.6421 141.816 79.7614 141.816 81.1421V87.4527V87.5101L141.819 87.5674C141.922 89.8164 142.329 91.9534 143.867 93.3706C145.383 94.7673 147.414 94.8905 148.893 94.9338L148.93 94.9348H148.966H151.804V89.9348H149.004C148.295 89.913 147.848 89.8656 147.543 89.7935C147.355 89.7491 147.278 89.7081 147.255 89.6937C147.23 89.6646 146.908 89.2598 146.816 87.3935V81.1421ZM188.795 139.288H183.762L191.516 206.785C191.674 208.157 192.914 209.141 194.285 208.984C195.657 208.826 196.641 207.586 196.484 206.215L188.795 139.288ZM147.248 89.6881C147.248 89.688 147.251 89.6896 147.254 89.693C147.25 89.6899 147.248 89.6882 147.248 89.6881Z" fill="#636362"/>
<path d="M83.2051 139.59V185.391C85.0251 194.227 95.4942 191.761 95.4942 191.761C95.4942 191.761 99.1478 191.154 101.141 187.514C101.141 175.381 101.141 115.021 101.141 115.021" stroke="#636362" stroke-width="5" stroke-linecap="round"/>
<path d="M119.076 81.1421V87.1206C119.076 91.1568 118.234 92.1006 115.755 92.1027C115.755 92.1027 98.8136 91.4384 93.8326 92.1027C88.8517 92.767 82.5407 97.0848 82.541 105.056C82.5413 113.027 82.541 123.988 82.541 123.988" stroke="#636362" stroke-width="5" stroke-linecap="round"/>
<circle cx="131.699" cy="56.564" r="26.064" stroke="#636362" stroke-width="5"/>
<path d="M182.513 108.71C175.316 118.342 156.207 138.337 137.342 141.26" stroke="#BA9449" stroke-width="5" stroke-linecap="round"/>
<path d="M150.295 93.4319L101.139 135.614" stroke="#BA9449" stroke-width="5" stroke-linecap="round"/>
<path d="M101.139 135.613V207.355C139.276 193.476 157.188 179.293 186.434 140.066C187.264 138.746 182.607 97.0953 179.524 94.4281C176.44 91.7609 165.574 92.4351 161.92 92.4352C158.267 92.4353 151.624 92.4353 151.624 92.4353" stroke="#BA9449" stroke-width="5" stroke-linecap="round"/>
</svg>
