<svg width="277" height="241" viewBox="0 0 277 241" fill="none" xmlns="http://www.w3.org/2000/svg">
<path fill-rule="evenodd" clip-rule="evenodd" d="M44.1575 141.994C31.8646 147.116 24.6855 153.292 24.6855 159.94C24.6855 177.653 75.6423 192.012 138.501 192.012C182.16 192.012 220.077 185.085 239.167 174.919L235.813 171.027C231.047 173.446 224.939 175.745 217.624 177.806C197.582 183.453 169.606 187.012 138.501 187.012C107.396 187.012 79.4196 183.453 59.3774 177.806C49.3217 174.972 41.547 171.691 36.4019 168.263C31.0683 164.71 29.6855 161.798 29.6855 159.94C29.6855 158.082 31.0683 155.171 36.4019 151.618C39.3142 149.677 43.0689 147.784 47.6028 145.992L44.1575 141.994ZM54.3098 143.602C55.9279 143.08 57.6177 142.571 59.3774 142.075C62.7228 141.132 66.2892 140.248 70.0543 139.428V134.314C62.9318 135.827 56.4601 137.57 50.7787 139.505L54.3098 143.602ZM252.316 159.94C252.316 163.967 249.683 167.82 244.876 171.37L241.601 167.57C246.109 164.331 247.316 161.676 247.316 159.94C247.316 158.082 245.933 155.171 240.6 151.618C235.454 148.19 227.68 144.908 217.624 142.075C214.511 141.197 211.206 140.371 207.728 139.6V134.481C234.838 140.344 252.316 149.567 252.316 159.94Z" fill="#BA9449"/>
<path fill-rule="evenodd" clip-rule="evenodd" d="M72 119.626C49.6146 123.856 31.1154 130.156 18.7677 137.76L22.0767 141.6C27.7937 138.17 35.0164 134.938 43.5814 132.042C51.9788 129.203 61.5332 126.731 72 124.716V119.626ZM2 159.94C2 153.404 6.01893 147.185 13.2669 141.55L16.5356 145.343C16.3027 145.522 16.0738 145.701 15.8488 145.881C9.51913 150.941 7 155.726 7 159.94C7 164.154 9.51913 168.939 15.8488 173.999C22.1299 179.02 31.5261 183.762 43.5814 187.838C67.6414 195.973 101.2 201.092 138.5 201.092C175.8 201.092 209.359 195.973 233.419 187.838C245.474 183.762 254.87 179.02 261.151 173.999C262.782 172.695 264.16 171.41 265.307 170.148L268.59 173.958C251.04 192.593 199.432 206.092 138.5 206.092C63.1131 206.092 2 185.429 2 159.94ZM272.655 168.502C274.195 165.728 275 162.866 275 159.94C275 142.892 247.662 128.003 207 120.011V125.109C216.686 127.049 225.559 129.385 233.419 132.042C245.474 136.118 254.87 140.86 261.151 145.881C267.481 150.941 270 155.726 270 159.94C270 161.357 269.715 162.838 269.097 164.373L272.655 168.502Z" fill="#636362"/>
<line x1="140.099" y1="39.3182" x2="70.7989" y2="52.4488" stroke="#636362" stroke-width="6.5" stroke-linecap="round"/>
<line x1="208.001" y1="52.57" x2="142.594" y2="67.4459" stroke="#636362" stroke-width="6.5" stroke-linecap="round"/>
<line x1="138.844" y1="67.5192" x2="70.2764" y2="53.2777" stroke="#636362" stroke-width="6.5" stroke-linecap="round"/>
<line x1="138.373" y1="89.1793" x2="73.4015" y2="75.7613" stroke="#BA9449" stroke-width="6.5" stroke-linecap="round"/>
<line x1="136.822" y1="103.912" x2="71.8507" y2="90.4938" stroke="#BA9449" stroke-width="6.5" stroke-linecap="round"/>
<line x1="180.032" y1="112.995" x2="169.331" y2="115.27" stroke="#BA9449" stroke-width="6.5" stroke-linecap="round"/>
<line x1="109.671" y1="116.045" x2="98.97" y2="113.771" stroke="#BA9449" stroke-width="6.5" stroke-linecap="round"/>
<line x1="159.87" y1="117.648" x2="149.169" y2="119.922" stroke="#BA9449" stroke-width="6.5" stroke-linecap="round"/>
<line x1="89.5105" y1="111.393" x2="78.8099" y2="109.118" stroke="#BA9449" stroke-width="6.5" stroke-linecap="round"/>
<line x1="200.968" y1="107.568" x2="190.267" y2="109.842" stroke="#BA9449" stroke-width="6.5" stroke-linecap="round"/>
<line x1="131.382" y1="119.922" x2="120.681" y2="117.648" stroke="#BA9449" stroke-width="6.5" stroke-linecap="round"/>
<line x1="205.597" y1="75.7625" x2="144.502" y2="88.4027" stroke="#BA9449" stroke-width="6.5" stroke-linecap="round"/>
<line x1="205.597" y1="90.4949" x2="144.502" y2="103.135" stroke="#BA9449" stroke-width="6.5" stroke-linecap="round"/>
<line x1="139.155" y1="177.657" x2="70.3195" y2="164.174" stroke="#636362" stroke-width="6.5" stroke-linecap="round"/>
<line x1="207.881" y1="164.207" x2="141.732" y2="177.49" stroke="#636362" stroke-width="6.5" stroke-linecap="round"/>
<line x1="141.629" y1="69.7432" x2="141.629" y2="176.452" stroke="#636362" stroke-width="6.5" stroke-linecap="round"/>
<line x1="70.25" y1="52.6851" x2="70.25" y2="162.495" stroke="#636362" stroke-width="6.5" stroke-linecap="round"/>
<line x1="209.672" y1="52.314" x2="209.672" y2="162.133" stroke="#636362" stroke-width="6.5" stroke-linecap="round"/>
<line x1="208.214" y1="51.6693" x2="141.309" y2="39.3065" stroke="#636362" stroke-width="6.5" stroke-linecap="round"/>
</svg>
