<svg width="277" height="241" viewBox="0 0 277 241" fill="none" xmlns="http://www.w3.org/2000/svg">
<path d="M180.422 67.3144C180.382 65.1286 179.995 63.3131 179.262 61.8917C179.247 61.0968 179.864 59.1859 181.091 56.138C181.25 55.7817 181.39 55.5913 181.5 55.5786C181.632 55.5875 181.802 55.7831 181.985 56.1549C182.375 56.9432 183.276 59.0802 184.665 62.5667C186.145 66.2168 187.004 68.4538 187.251 69.2887C187.451 69.9472 187.547 70.4206 187.553 70.7294C187.572 71.7565 186.612 71.1666 184.671 68.9488C184.444 68.6442 184.337 68.7895 184.347 69.3747C184.352 69.5952 185.612 83.0678 186.861 96.9814C188.12 110.905 188.76 118.734 188.791 120.467C188.889 125.832 188.147 130.561 186.543 134.654C186.205 135.5 185.94 136.101 185.726 136.469C185.415 137.005 185.217 137.064 185.144 136.668C185.048 136.261 185.066 135.399 185.196 134.049C185.372 132.224 185.433 130.092 185.388 127.641C185.347 125.444 184.63 116.38 183.213 100.46C181.806 84.5504 180.457 69.2351 180.422 67.3144Z" fill="#636362"/>
<path d="M82.9085 108.699C86.0339 108.699 89.8223 107.374 94.2619 104.703C97.8843 102.56 101.44 99.9214 104.93 96.7861C108.056 93.9487 109.823 91.95 110.231 90.7908C109.911 88.958 107.559 88.0413 103.174 88.0305C97.7954 88.0413 95.1007 86.1977 95.1007 82.51C95.1007 79.6727 96.0176 77.1663 97.8396 74.9913C99.5403 72.9822 101.297 71.9659 103.119 71.9551C105.228 71.9659 107.194 73.3239 109.027 76.0292C110.629 78.3809 111.7 80.9536 112.252 83.7468C112.484 85.0056 112.594 86.264 112.594 87.5341C112.594 92.0054 111.446 95.5498 109.149 98.1554C106.068 101.611 102.622 104.846 98.8007 107.871C92.3289 113.017 86.8619 115.589 82.4002 115.589C78.6344 115.589 75.7187 114.198 73.6428 111.405C71.8095 108.932 70.8926 105.862 70.8926 102.197C70.8926 97.4051 71.9087 92.5028 73.9188 87.4899C74.3824 86.452 74.7026 85.9223 74.8794 85.9115C74.9786 85.9777 75.0233 86.0882 75.0233 86.2541C75.0233 86.5851 74.9349 87.1153 74.7473 87.8326C73.3559 92.79 72.66 96.5219 72.66 99.0278C72.66 101.412 73.2567 103.423 74.4492 105.068C76.1941 107.496 79.0101 108.699 82.9085 108.699ZM106.366 81.9027C105.924 81.0415 105.261 80.2246 104.4 79.4409C103.362 78.5798 102.433 78.1901 101.617 78.1384C99.7082 78.0162 98.6347 78.9897 98.6347 79.7723C98.6347 81.0533 99.9489 81.6822 102.567 81.6714C104.566 81.6818 105.836 81.7593 106.366 81.9027Z" fill="#636362"/>
<path d="M166.487 66.3435C165.319 62.8076 164.524 59.495 164.11 56.4062C163.949 55.2155 163.834 54.4751 163.766 54.1983C163.603 53.5594 163.295 52.922 162.834 52.3006C163.156 51.2486 163.662 49.7641 164.352 47.8504C164.583 47.2981 164.789 47.0212 164.973 47.0212C165.135 47.0212 165.423 47.2981 165.83 47.8504C167.649 50.3794 169.172 52.6452 170.414 54.6472C170.921 55.4745 171.174 56.0621 171.174 56.4062C171.174 56.6596 171.059 56.7865 170.829 56.7865C170.369 56.7865 169.541 56.4062 168.35 55.647C168.235 55.647 168.144 55.7279 168.074 55.8886C168.488 57.3844 169.149 59.4438 170.07 62.0658C172.134 67.9539 173.171 72.2438 173.171 74.9349C173.171 77.6261 172.768 79.9727 171.962 81.9733C170.634 85.3841 168.328 87.0801 165.043 87.0801C161.551 87.0801 158.796 85.5623 156.771 82.5256C155.558 80.7093 154.476 77.9824 153.539 74.3492C153.124 78.0059 151.962 81.1577 150.058 83.8014C147.713 86.9993 144.714 88.5975 141.068 88.5975C137.047 88.5975 134.234 86.6777 132.624 82.8359C131.733 80.6726 131.283 78.1323 131.283 75.2099C131.283 71.3455 131.744 67.7462 132.659 64.4115C132.912 63.5136 133.039 62.9157 133.039 62.6172C133.039 62.455 132.992 62.3756 132.9 62.3756C132.74 62.3756 132.372 62.8231 131.802 63.7209C130.904 65.1241 129.961 67.9755 128.978 72.2772C127.689 77.8212 126.85 81.1671 126.458 82.3183C125.934 83.9053 125.187 85.1815 124.22 86.1475C123.438 86.9527 122.765 87.3547 122.19 87.3547C119.619 87.3547 117.629 85.7277 116.232 82.4551C115.08 79.7423 114.506 76.4636 114.506 72.6227C114.506 69.9315 114.92 67.01 115.747 63.8591C115.931 63.1451 116.115 62.6163 116.299 62.2708C116.444 62.0188 116.564 61.8919 116.657 61.8919C116.726 61.8919 116.778 61.9657 116.817 62.0978C116.847 62.213 116.863 62.3864 116.863 62.5646C116.863 62.9326 116.794 63.4431 116.679 64.0646C116.219 66.4567 115.989 68.6534 115.989 70.6554C115.989 78.4294 117.617 82.3179 120.878 82.3179C122.282 82.3179 123.437 81.2767 124.357 79.1778C124.933 77.8658 125.634 75.3707 126.457 71.69C127.401 67.6183 128.205 64.6404 128.874 62.7545C129.626 60.5917 130.57 58.6705 131.698 56.991C132.912 55.105 133.969 54.1625 134.867 54.1625C135.597 54.1625 135.965 54.9443 135.965 56.5077C135.965 57.7957 135.597 60.4135 134.867 64.3569C134.131 68.3022 133.762 70.9534 133.762 72.311C133.762 75.255 134.378 77.5546 135.603 79.2107C136.834 80.8667 138.536 81.6955 140.721 81.6955C144.669 81.6955 147.631 80.4531 149.61 77.9683C151.168 76.0133 151.95 73.599 151.95 70.724C151.95 67.9638 151.721 65.2947 151.26 62.7188C150.938 60.9019 150.506 59.1768 149.955 57.5423C149.53 56.2026 149.281 55.5356 149.264 55.5356V55.5417C149.264 53.9548 149.782 51.792 150.811 49.0557C151.041 48.4582 151.226 48.1574 151.364 48.1574C151.524 48.1574 151.789 48.549 152.158 49.3307C153.624 52.3899 154.786 57.0831 155.637 63.4088C156.443 69.319 157.592 73.5468 159.1 76.0885C160.601 78.6363 162.891 79.9008 165.968 79.9008C168.544 79.9008 170.23 78.9691 171.035 77.1071C171.035 76.4683 170.494 75.0872 169.413 72.9658C168.039 70.2775 167.061 68.0686 166.487 66.3435Z" fill="#636362"/>
<path d="M158.655 162.655C158.45 160.984 158.612 155.963 158.191 154.335C157.844 159.384 156.748 162.153 155.869 163.452C154.056 166.172 150.9 167.522 146.4 167.522V174.423C149.065 174.423 151.473 173.653 153.631 172.112C156.446 170.126 158.185 167.11 158.861 163.078C158.759 162.967 158.677 162.833 158.655 162.655Z" fill="#636362"/>
<path d="M209.881 156.236C209.195 155.983 206.017 161.028 197.955 164.585C193.802 166.44 191.074 167.355 189.795 167.345C185.542 167.355 181.522 165.368 177.745 161.381C174.52 157.96 172.709 154.747 172.289 151.721C172.61 150.583 174.62 149.458 178.319 148.342C182.184 147.206 186.204 146.63 190.378 146.62C193.371 146.63 196.033 146.963 198.362 147.613C199.137 147.856 199.645 147.967 199.877 147.955C199.987 147.967 200.053 147.923 200.075 147.812C200.075 147.635 199.513 147.084 198.362 146.157C196.973 145.063 195.139 144.07 192.862 143.187C190.004 142.071 187.208 141.508 184.469 141.497C180.14 141.507 176.419 142.943 173.305 145.803C170.631 148.254 169.284 151.424 169.284 155.298C169.284 159.14 170.521 162.695 172.973 165.963C174.917 168.569 177.269 170.612 180.029 172.103C176.744 173.669 168.997 177.077 165.03 173.532C163.924 172.544 163.034 170.794 162.482 168.149C161.999 165.826 161.631 159.897 161.384 150.351C161.084 139.702 158.906 113.06 158.284 108.022C157.341 100.477 156.116 94.2547 154.596 89.3556C154.436 88.855 154.276 88.5974 154.113 88.5974C153.976 88.5974 153.815 88.839 153.637 89.3218C153.222 90.426 152.785 92.4261 152.324 95.325C153.567 102.945 154.264 107.383 154.425 108.644C155.469 117.086 157.654 145.064 157.839 157.723C157.858 158.94 157.499 171.128 161.073 177.396C166.04 186.109 180.623 179.048 187.375 175.672C193.284 172.719 203.329 166.817 205.727 165.071C206.224 164.709 206.971 164.071 207.191 163.573L209.638 157.516C209.991 156.832 210.122 156.325 209.881 156.236Z" fill="#636362"/>
<path d="M130.621 168.838V175.738C128.28 175.738 126.601 175.6 125.594 175.324C123.385 174.686 121.551 173.237 120.084 170.977C119.164 169.458 118.243 167.924 117.323 166.353C116.5 165.071 115.672 164.422 114.843 164.422C112.272 164.422 109.564 166.613 106.716 170.977C106.21 171.765 105.301 173.801 103.995 177.083C102.685 180.373 101.55 182.754 100.585 184.226C99.0724 186.48 97.4611 187.607 95.7637 187.607C93.234 187.607 91.0988 185.635 89.3567 181.689C87.7915 178.199 87.0156 174.576 87.0156 170.809C87.0156 166.268 87.4708 162.645 88.391 159.936C88.666 158.968 88.9195 158.486 89.1494 158.486C89.3332 158.486 89.4259 158.763 89.4259 159.285C89.4259 159.544 89.3962 159.889 89.3567 160.28C88.9886 163.167 88.8047 165.623 88.8047 167.641C88.8047 177.227 91.0311 182.018 95.4886 182.018C97.2777 182.018 98.9342 180.615 100.446 177.807C101.965 174.455 103.5 171.097 105.066 167.733C106.44 164.973 108.131 162.609 110.127 160.624C112.124 158.653 113.952 157.658 115.603 157.658C116.846 157.658 117.99 158.446 119.049 160.004C119.923 161.435 120.792 162.862 121.665 164.282C122.908 166.036 124.179 167.233 125.491 167.87C126.797 168.522 128.511 168.838 130.621 168.838Z" fill="#636362"/>
<path d="M129.838 168.823C132.533 168.834 135.045 167.642 136.79 165.279C137.895 163.579 139.021 161.867 140.147 160.167C140.523 159.814 140.855 159.626 141.141 159.615C141.428 159.626 141.561 159.792 141.561 160.101C141.561 160.277 141.517 160.465 141.417 160.686C141.174 161.359 141.042 161.988 141.042 162.574C141.042 164.053 141.716 165.257 143.063 166.207C144.255 167.068 146.008 167.51 147.377 167.499L146.4 174.423C144.787 174.434 143.803 173.847 142.433 172.831C140.888 171.716 139.76 170.093 139.065 167.962C136.315 173.129 133.836 175.738 130.622 175.738L129.838 168.823Z" fill="#636362"/>
<path d="M123.791 150.812C120.787 150.823 118.7 149.928 117.519 148.129C116.812 147.024 116.403 145.357 116.315 143.149C116.293 142.906 116.182 142.785 115.962 142.774C115.597 142.785 115.233 143.006 114.857 143.436C112.549 146.174 111.058 147.819 110.385 148.394C107.458 150.955 104.377 152.225 101.141 152.225V145.269C104.531 145.279 107.491 144.385 110.02 142.586C111.036 141.879 113.333 139.715 116.901 136.105C117.342 135.674 117.762 135.453 118.149 135.442C118.778 135.453 118.955 135.873 118.668 136.69C118.392 137.529 118.248 138.291 118.248 138.997C118.248 140.587 118.91 141.824 120.225 142.685C121.473 143.524 123.085 143.933 125.062 143.922C127.923 143.933 130.286 142.74 132.153 140.333C133.334 138.545 134.505 136.734 135.676 134.901C136.096 134.46 136.449 134.228 136.714 134.217C137.045 134.228 137.2 134.481 137.2 134.968C137.2 135.188 137.167 135.409 137.1 135.652C136.637 137.617 136.405 138.501 136.405 138.302C136.405 139.141 136.88 139.936 137.818 140.709C138.835 141.57 139.983 141.99 141.241 141.979C142.788 141.989 143.804 141.581 144.29 140.742C144.29 140.587 144.08 140.311 143.66 139.891C143.24 139.483 143.02 139.174 143.02 138.953C143.02 138.689 143.517 137.065 144.489 134.084C144.654 133.587 144.831 133.333 145.008 133.322C145.461 133.333 145.902 133.963 146.344 135.199C146.72 136.303 146.908 137.12 146.908 137.661C146.908 140.565 146.344 143.005 145.207 144.981C143.804 147.466 141.729 148.702 138.967 148.691C137.035 148.702 135.223 147.201 133.534 144.187C131.058 148.615 127.812 150.823 123.791 150.812Z" fill="#636362"/>
<path d="M90.7115 119.717C90.5177 119.055 90.6898 115.723 90.561 115.05C90.3936 118.423 89.2985 120.024 88.5589 120.936C87.3397 122.437 85.355 123.766 82.5996 124.939V131.15C85.7405 129.821 87.9039 128.475 89.0714 127.118C90.3875 125.576 91.2766 123.247 91.744 120.148C91.3693 120.319 90.8605 120.227 90.7115 119.717Z" fill="#636362"/>
<path d="M101.504 146.333L101.141 145.269C99.6051 145.269 98.4315 144.997 97.6261 144.323C96.4816 143.386 95.6305 141.598 95.0785 138.975C94.7104 137.183 94.3822 129.759 94.0831 123.106C93.737 115.751 90.9431 79.1741 90.7132 77.3108C89.7474 69.6806 89.351 66.5231 87.8549 61.7106C87.6945 61.2104 87.5323 60.9509 87.372 60.9509C87.2337 60.9509 87.0729 61.1925 86.8891 61.6753C86.6874 62.2568 85.4211 66.0484 85.755 67.6786C87.1609 74.5425 89.3073 103.66 90.2872 118.686C90.6074 123.595 90.9695 131.075 90.9991 132.175C91.1707 138.627 91.2596 143.787 93.6693 148.228C95.1317 150.923 97.6717 152.224 101.141 152.224L101.959 146.227L101.504 146.333Z" fill="#636362"/>
<path d="M84.9563 136.325C83.9491 134.278 82.8226 132.863 81.5798 132.081C81.6729 131.689 82.1676 131.299 83.0642 130.908V124.697C81.7303 125.233 80.4814 126.107 79.3078 127.32C78.1403 128.545 77.404 129.695 77.1049 130.769C75.7014 131.35 74.4413 132.385 73.3147 133.875C70.6289 137.447 69.2832 141.598 69.2832 146.331C69.2832 147.777 70.5941 155.238 71.0281 156.836C71.4654 159.757 71.7071 161.953 71.7527 163.426C71.9144 165.796 72.0987 166.979 72.299 166.979C72.5069 166.979 72.7716 165.773 73.0927 163.358C73.1736 162.713 73.2253 161.959 73.2253 161.144C73.2253 159.712 73.3245 157.941 73.0561 155.961C72.908 154.868 71.1457 146.23 71.1457 144.606C71.1457 141.892 72.6244 139.27 75.5871 136.74C75.9097 138.097 76.6677 139.524 77.8648 141.018C79.423 142.951 81.2751 144.251 83.4089 144.918C84.0084 145.102 84.4734 145.193 84.8181 145.193C85.8534 145.193 86.3716 143.847 86.3716 141.156C86.3716 139.845 85.9 138.235 84.9563 136.325Z" fill="#636362"/>
<path d="M177.967 104.396C179.789 101.449 181.6 98.49 183.411 95.5309C185.85 91.7991 188.182 88.9504 190.403 86.9747C193.295 84.4458 196.212 83.1756 199.15 83.1653C202.739 83.1756 205.931 84.6549 208.724 87.6159C211.075 90.111 212.246 92.2748 212.246 94.1283C212.246 94.8127 211.892 96.1594 211.175 98.1925C210.403 100.411 209.674 101.913 209.001 102.707C207.521 104.54 204.915 106.429 201.182 108.393C195.857 111.253 190.435 112.666 184.891 112.666C182.351 112.666 179.823 112.313 177.315 111.606C176.375 114.202 175.68 115.493 175.216 115.493C175.062 115.493 174.974 115.294 174.974 114.875C174.974 114.025 175.282 112.667 175.902 110.79C171.904 109.023 169.749 106.518 169.43 103.26C165.365 108.836 158.703 111.582 153.422 111.582L152.049 108.008L153.422 104.683C156.424 104.694 162.693 103.469 165.631 100.941C167.265 99.2859 168.888 97.6176 170.49 95.9611C170.843 95.6861 171.108 95.5432 171.285 95.5314C171.66 95.5432 171.837 96.2276 171.837 97.5734C171.837 100.289 173.879 102.564 177.967 104.396ZM209.696 97.4516C209.696 96.5905 208.525 95.1436 206.184 93.1237C203.334 90.7386 200.409 89.5343 197.393 89.5244C191.915 89.5343 186.094 94.768 179.932 105.236C181.722 105.965 183.898 106.317 186.437 106.306C190.07 106.317 193.871 105.632 197.847 104.264C200.927 103.193 203.765 101.845 206.349 100.223C208.579 98.8548 209.696 97.9274 209.696 97.4516Z" fill="#636362"/>
<path d="M146.814 96.2571C146.606 94.7848 146.365 90.5758 146.089 83.6291C145.812 76.2166 145.797 75.1194 145.36 71.1173C144.922 67.023 144.697 65.1027 144.036 62.0675C143.713 60.6173 143.299 59.0877 142.793 57.4716C142.632 56.9724 142.471 56.7134 142.31 56.7134C142.172 56.7134 142.01 56.955 141.827 57.4378C141.627 58.0192 141.247 60.0198 140.695 63.441C141.338 65.8844 141.651 68.6795 142.294 75.1143C142.961 81.699 142.954 83.9793 142.954 91.1737C142.954 93.6736 142.424 98.4236 139.248 101.093C140.077 101.223 141.862 101.184 142.685 101.353C143.081 100.055 143.421 98.7099 143.644 97.2644C144.076 102.393 144.915 105.971 146.158 107.995C147.579 110.387 150.001 111.582 153.422 111.582V104.683C149.776 104.682 147.568 101.876 146.814 96.2571Z" fill="#636362"/>
<path d="M141.142 98.8729C139.59 101.879 132.163 104.723 126.713 106.422C124.521 107.106 117.962 109.359 114.727 112.215C113.163 113.596 111.678 115.717 110.072 119.738H112.62C114.421 115.153 135.653 111.098 139.56 106.955C141.95 104.419 143.248 100.901 143.63 96.9813C142.932 96.9409 141.843 98.8767 141.142 98.8729Z" fill="#636362"/>
<path d="M206.435 120.719C205.543 120.719 197.282 121.037 181.655 121.676C178.757 121.794 144.147 122.791 138.824 122.791C130.321 122.791 123.712 122.515 118.978 121.962C114.756 121.463 112.689 120.284 112.689 119.542H110.142C109.681 120.836 109.457 122.077 109.457 123.268C109.457 125.614 111.337 127.201 115.106 128.029C118.545 128.771 124.999 129.133 134.461 129.133C140.922 129.133 177.304 127.581 179.932 127.439C186.026 127.112 189.085 126.936 189.085 126.922C189.085 126.922 189.073 126.922 189.056 126.922C189.977 126.922 193.508 126.261 199.663 124.921C203.477 124.094 207.289 123.265 211.103 122.438C215.602 121.523 217.85 120.948 217.85 120.712C217.85 120.35 214.016 120.719 206.435 120.719Z" fill="#636362"/>
<path d="M174.344 85.1709C178.427 82.6862 183.839 79.9612 190.564 76.9931C196.489 74.3716 199.773 73.0601 200.417 73.0601C200.486 73.0897 200.52 73.147 200.52 73.2321C200.52 73.4911 200.354 73.9165 200.02 74.5083C199.688 75.1072 199.417 75.44 199.21 75.5096C197.26 76.2222 193.492 77.9253 187.913 80.6164C181.689 83.6296 176.776 86.1938 173.17 88.3096C173.377 87.3892 173.768 86.3424 174.344 85.1709Z" fill="#636362"/>
<path d="M183.403 131.494C182.758 131.494 179.474 132.806 173.55 135.428C170.464 136.79 167.663 138.1 165.131 139.36C165.039 139.405 164.784 139.66 164.747 139.741C164.361 140.614 163.993 141.494 163.65 142.384C163.605 142.5 163.83 142.571 163.989 142.49C166.08 141.417 168.374 140.273 170.899 139.051C176.478 136.36 180.245 134.657 182.195 133.944C182.402 133.876 182.673 133.543 183.006 132.944C183.34 132.352 183.506 131.926 183.506 131.667C183.506 131.581 183.472 131.524 183.403 131.494Z" fill="#636362"/>
<path d="M64.5584 90.6939C67.4252 86.8699 71.4374 82.3286 76.5772 77.0741C81.1019 72.4392 83.6626 70.001 84.2611 69.7612C84.3364 69.7626 84.389 69.8035 84.421 69.883C84.5174 70.1237 84.5212 70.5801 84.4309 71.2537C84.3448 71.9334 84.2169 72.3433 84.0514 72.4839C82.5049 73.8706 79.6414 76.8513 75.4623 81.4232C70.8041 86.5338 67.1972 90.7395 64.636 94.0441C64.4865 93.1129 64.4597 91.996 64.5584 90.6939Z" fill="#636362"/>
<path d="M59.3439 112.142C62.2107 108.318 71.4365 99.9516 76.5762 94.6981C81.1009 90.0628 83.6616 87.6245 84.2602 87.3848C84.3354 87.3866 84.3881 87.4271 84.4201 87.5065C84.5164 87.7472 84.5202 88.2036 84.4299 88.8772C84.3439 89.5574 84.216 89.9669 84.0505 90.1074C82.504 91.4941 79.6405 94.4748 75.4614 99.0467C70.8031 104.157 61.9827 112.188 59.4215 115.492C59.2715 114.561 59.2447 113.445 59.3439 112.142Z" fill="#636362"/>
<path d="M123.273 102.196C122.953 103.399 122.701 104.09 122.514 104.269C116.86 107.063 109.516 110.989 100.481 116.06C98.9244 117.128 98.1612 117.822 98.1993 118.142C98.2242 118.347 98.528 118.555 99.1091 118.762C99.6847 118.972 100.606 119.208 101.866 119.473C102.079 119.517 102.236 119.951 102.335 120.772C102.421 121.481 102.436 121.902 102.382 122.036C102.357 122.108 102.247 122.162 102.093 122.18C101.984 122.193 101.817 122.195 101.636 122.177C98.8134 121.983 97.3149 121.179 97.1447 119.764C97.0483 118.965 97.3064 117.891 97.9209 116.542C98.5346 115.195 99.2267 114.208 100.009 113.58C100.705 113.01 104.58 110.933 111.646 107.349C115.31 105.5 118.969 103.653 122.636 101.821C122.948 101.662 123.162 101.572 123.27 101.559C123.3 101.556 123.324 101.564 123.335 101.563C123.348 101.573 123.358 101.606 123.362 101.635C123.372 101.732 123.339 101.933 123.273 102.196Z" fill="#636362"/>
<path d="M142.581 180.858L144.335 177.247C144.473 176.97 144.622 176.832 144.784 176.832C145.013 176.832 146.004 177.431 147.747 178.626C149.489 179.823 150.363 180.518 150.363 180.726C150.363 181.507 149.593 183.142 148.057 185.619C147.937 185.821 147.792 185.923 147.666 185.923C147.608 185.923 147.527 185.907 147.47 185.86C145.957 184.734 144.243 183.549 142.339 182.306C141.695 183.762 141.062 184.997 140.441 186.01C140.326 186.216 140.188 186.332 140.061 186.332C140.004 186.332 139.923 186.303 139.859 186.252C138.134 184.94 136.356 183.709 134.516 182.553C134.476 182.52 134.453 182.468 134.453 182.399C134.453 182.33 134.471 182.243 134.516 182.14L136.725 177.614C136.863 177.338 137.013 177.199 137.174 177.199C137.381 177.199 138.215 177.694 139.687 178.683C141.154 179.673 142.121 180.397 142.581 180.858Z" fill="#636362"/>
<path d="M119.393 51.3966C119.524 50.9651 119.594 50.5397 119.594 50.1086C119.594 49.8726 119.565 49.631 119.53 49.3955C119.393 48.6598 119.059 48.2913 118.531 48.2913C118.277 48.2913 117.931 48.4121 117.495 48.6537C117.058 48.8953 116.844 49.1309 116.844 49.3603C116.844 49.89 117.689 50.5688 119.393 51.3966ZM121.838 55.6225C120.688 58.3141 120.112 60.4765 120.112 62.109C120.112 64.0184 120.629 64.9741 121.666 64.9741C122.263 64.9741 122.937 64.2539 123.696 62.8169C123.764 62.6787 123.833 62.5758 123.902 62.5067C123.932 62.4888 123.954 62.4771 123.971 62.4771C123.995 62.4771 124.005 62.5067 124.005 62.5405C124.017 62.5702 124.023 62.6275 124.023 62.6787C124.023 62.73 124.011 62.8113 124.005 62.886C123.385 66.256 122.378 67.9398 120.975 67.9398C119.485 67.9398 118.736 66.7035 118.736 64.2201C118.736 63.0233 119.076 61.4138 119.755 59.3779C120.428 57.3481 120.767 56.3074 120.767 56.2613C120.767 55.9845 120.272 55.5595 119.288 54.9851C117.541 57.3994 115.073 59.5678 111.88 61.4989C109.723 62.8108 107.532 63.9089 105.299 64.8053C101.123 66.4614 98.7197 67.4288 98.1046 67.7038C97.5743 67.9337 97.2061 68.0441 97.0001 68.0441C96.884 68.0441 96.8262 68.0206 96.8262 67.975C96.8262 67.7912 97.1487 67.5026 97.7938 67.1124C101.355 65.0883 104.909 63.0642 108.47 61.0401C113.271 58.2563 116.476 56.0305 118.081 54.3463C115.947 53.2421 114.877 52.0867 114.877 50.8621C114.877 49.372 115.556 48.0144 116.907 46.8078C117.984 45.8521 118.91 45.3811 119.692 45.3811C119.898 45.3811 120.1 45.4164 120.284 45.4784C121.044 45.7553 121.424 46.5784 121.424 47.9294C121.424 49.1539 121.17 50.5162 120.664 52.035C121.745 52.6545 122.285 53.329 122.285 54.036C122.286 54.4097 122.136 54.932 121.838 55.6225Z" fill="#636362"/>
<path d="M147.579 48.9457C147.579 49.8421 147.382 50.7743 146.991 51.7398C146.462 52.9822 145.789 53.6031 144.961 53.6031C143.65 53.6031 142.723 52.7053 142.171 50.9106C141.55 53.2116 140.41 54.3614 138.76 54.3614C138.138 54.3614 137.597 54.0506 137.144 53.4297C136.614 52.694 136.35 51.728 136.35 50.5326V47.7028C136.35 47.4777 136.194 47.3174 135.883 47.2201C135.573 47.1331 135.418 46.8919 135.418 46.4947C135.418 45.8747 135.682 45.2697 136.212 44.6657C136.695 44.1435 137.063 43.8722 137.31 43.8722C137.633 43.8722 137.793 44.4932 137.793 45.736C137.793 46.3852 137.742 46.9253 137.638 47.3568C137.534 47.7997 137.482 48.1795 137.482 48.4963C137.482 49.169 137.62 49.8064 137.896 50.4273C138.218 51.1419 138.621 51.4977 139.104 51.4977C139.726 51.4977 140.307 51.2161 140.841 50.6525C141.382 50.0889 141.652 49.428 141.652 48.6679C141.652 48.2364 141.525 47.4885 141.272 46.4256C141.019 45.3732 140.894 44.7165 140.894 44.4589C140.894 44.2337 141.009 43.8713 141.238 43.3711C141.468 42.8823 141.64 42.6294 141.755 42.6294C141.963 42.6294 142.234 43.3373 142.566 44.7343C142.901 46.1431 143.067 47.1782 143.067 47.8406C143.067 49.7716 143.809 50.7376 145.306 50.7376C145.949 50.7376 146.346 50.4165 146.507 49.7716C145.224 47.5237 144.579 45.7986 144.579 44.5957C144.579 43.9065 144.753 43.303 145.097 42.7671C145.328 42.4047 145.49 42.2091 145.58 42.1809C145.673 42.1809 145.743 42.4169 145.788 42.8714C145.857 43.5211 145.96 44.0433 146.099 44.4589C146.121 44.5101 146.426 45.3036 147.025 46.8388C147.394 47.7663 147.579 48.461 147.579 48.9457Z" fill="#636362"/>
<path d="M134.776 95.7514C134.776 96.6478 134.58 97.58 134.188 98.5455C133.66 99.7879 132.987 100.409 132.158 100.409C130.847 100.409 129.921 99.511 129.369 97.7163C128.748 100.018 127.607 101.167 125.957 101.167C125.335 101.167 124.795 100.856 124.341 100.235C123.811 99.4997 123.548 98.5337 123.548 97.3384V94.5085C123.548 94.2834 123.392 94.1231 123.081 94.0262C122.77 93.9388 122.615 93.6981 122.615 93.3004C122.615 92.6809 122.879 92.0754 123.409 91.4719C123.892 90.9492 124.26 90.6784 124.507 90.6784C124.83 90.6784 124.99 91.2994 124.99 92.5422C124.99 93.1914 124.939 93.7315 124.836 94.163C124.731 94.6058 124.679 94.9856 124.679 95.3025C124.679 95.9751 124.818 96.6126 125.093 97.2335C125.416 97.948 125.819 98.3039 126.302 98.3039C126.923 98.3039 127.504 98.0223 128.038 97.4587C128.58 96.8951 128.85 96.2342 128.85 95.4741C128.85 95.0425 128.723 94.2951 128.47 93.2318C128.216 92.1793 128.091 91.5226 128.091 91.265C128.091 91.0399 128.206 90.6775 128.435 90.1773C128.665 89.6884 128.837 89.4355 128.953 89.4355C129.16 89.4355 129.431 90.1435 129.764 91.5405C130.098 92.9493 130.264 93.9844 130.264 94.6467C130.264 96.5778 131.007 97.5438 132.503 97.5438C133.146 97.5438 133.544 97.2227 133.704 96.5778C132.422 94.3299 131.777 92.6047 131.777 91.4018C131.777 90.7127 131.951 90.1091 132.295 89.5733C132.525 89.2108 132.687 89.0153 132.778 88.9875C132.871 88.9875 132.94 89.223 132.986 89.6776C133.055 90.3272 133.158 90.8495 133.297 91.265C133.319 91.3163 133.624 92.1098 134.223 93.645C134.592 94.572 134.776 95.2672 134.776 95.7514Z" fill="#636362"/>
<path d="M74.4971 123.558C74.4971 124.455 74.3011 125.387 73.9094 126.352C73.3804 127.595 72.7076 128.216 71.8786 128.216C70.5682 128.216 69.6419 127.318 69.0894 125.523C68.4683 127.824 67.3285 128.974 65.6776 128.974C65.056 128.974 64.5158 128.663 64.062 128.042C63.5321 127.306 63.2683 126.341 63.2683 125.145V122.316C63.2683 122.09 63.1122 121.93 62.8014 121.833C62.4906 121.746 62.3359 121.505 62.3359 121.107C62.3359 120.488 62.5997 119.883 63.1296 119.278C63.6125 118.756 63.9807 118.485 64.228 118.485C64.5506 118.485 64.7109 119.106 64.7109 120.349C64.7109 120.998 64.6597 121.538 64.5562 121.97C64.4518 122.412 64.4001 122.792 64.4001 123.109C64.4001 123.782 64.5383 124.419 64.8139 125.04C65.1364 125.754 65.5399 126.11 66.0228 126.11C66.6444 126.11 67.2246 125.829 67.7587 125.265C68.3004 124.701 68.5703 124.041 68.5703 123.281C68.5703 122.849 68.4433 122.101 68.1904 121.038C67.9369 119.986 67.8119 119.329 67.8119 119.071C67.8119 118.846 67.9266 118.484 68.1565 117.983C68.3864 117.495 68.5585 117.242 68.6733 117.242C68.8806 117.242 69.1519 117.95 69.4848 119.347C69.8191 120.756 69.9856 121.791 69.9856 122.453C69.9856 124.384 70.7276 125.35 72.2237 125.35C72.867 125.35 73.2648 125.029 73.4251 124.384C72.1424 122.137 71.4973 120.411 71.4973 119.208C71.4973 118.519 71.6712 117.916 72.0159 117.38C72.2458 117.017 72.4076 116.821 72.4988 116.794C72.5914 116.794 72.6605 117.029 72.7062 117.484C72.7753 118.134 72.8787 118.656 73.017 119.071C73.0391 119.123 73.3437 119.916 73.9432 121.452C74.3128 122.379 74.4971 123.074 74.4971 123.558Z" fill="#636362"/>
<path d="M151.272 158.689C151.272 158.021 150.081 157.021 147.694 155.692C146.958 157.09 146.589 158.355 146.589 159.482C146.589 160.195 146.923 160.545 147.591 160.545C148.183 160.545 148.874 160.34 149.656 159.93C150.437 159.516 150.972 159.103 151.272 158.689ZM150.241 146.019C150.588 145.398 150.95 145.088 151.34 145.088C151.593 145.088 151.72 145.22 151.72 145.468C151.72 145.567 151.698 145.657 151.651 145.745C150.507 148.28 149.598 150.539 148.932 152.542C151.192 154.203 152.324 155.876 152.324 157.522C152.324 157.625 152.314 157.751 152.308 157.854C152.146 159.764 151.882 160.961 151.514 161.444C150.462 162.869 149.15 163.583 147.592 163.583C146.096 163.583 145.348 162.663 145.348 160.822C145.348 159.281 145.958 156.768 147.177 153.266C148.275 150.143 149.299 147.727 150.241 146.019Z" fill="#636362"/>
<path d="M165.102 196.768C163.929 197.09 162.232 197.561 160.005 198.182C159.339 198.367 157.636 198.607 154.904 198.906C151.183 199.292 128.036 200.527 124.683 200.527C121.146 200.527 119.379 199.86 119.379 198.526C119.379 196.617 120.248 195.053 121.997 193.835C122.387 193.558 123.307 193.139 124.77 192.557C126.225 191.988 127.323 191.436 128.059 190.901C128.675 190.47 129.48 189.349 130.469 187.555C131.137 186.342 131.832 185.726 132.568 185.726C133.167 185.726 133.593 186.342 133.846 187.56C133.898 187.778 133.92 188.043 133.92 188.308C133.92 189.05 133.731 189.986 133.363 191.08C133.201 191.563 133.074 191.816 132.983 191.838C132.948 191.781 132.92 191.672 132.92 191.499C132.92 191.385 132.931 191.246 132.948 191.08C132.978 190.774 132.989 190.492 132.989 190.233C132.989 188.911 132.637 188.245 131.948 188.245C131.378 188.245 130.653 188.975 129.779 190.423C128.496 192.54 126.862 193.943 124.89 194.633C122.088 195.622 120.685 196.426 120.685 197.048C120.685 197.715 122.612 198.049 126.472 198.049C128.382 198.049 151.227 196.864 155.8 196.577C160.368 196.29 162.864 196.14 163.273 196.14H166.137V196.18C166.586 196.191 166.816 196.243 166.816 196.3C166.816 196.394 166.235 196.56 165.102 196.768Z" fill="#636362"/>
<path d="M82.1592 149.374C82.8499 149.374 83.8157 149.868 85.0702 150.84C86.3232 151.823 87.0022 152.668 87.1169 153.376C87.1169 153.376 87.1169 153.41 87.1169 153.416C87.1169 153.623 86.9505 154.094 86.6397 154.807C86.295 155.584 86.0533 155.992 85.9151 156.032C84.7876 156.36 83.661 156.67 82.5386 156.963C81.1355 157.429 80.1636 157.965 79.6112 158.585C81.1689 163.323 81.9513 168.004 81.9513 172.628C81.9513 173.985 81.8027 175.365 81.5037 176.768C81.389 177.251 81.2963 177.504 81.2268 177.527C81.0885 177.527 81.0208 176.722 81.0208 175.112C81.0208 172.444 80.6352 169.229 79.8533 165.467C79.07 161.708 78.6797 159.551 78.6797 158.999C78.6797 157.135 79.2087 155.772 80.2671 154.893C80.774 154.479 81.7219 154.064 83.1254 153.651C82.5508 153.081 81.9988 152.788 81.4689 152.788C81.2155 152.788 80.8652 153.087 80.4058 153.684C79.945 154.283 79.6798 154.582 79.6121 154.582C79.5369 154.582 79.4913 154.455 79.4913 154.196C79.4913 154.094 79.496 153.967 79.5077 153.823C79.8298 150.857 80.71 149.374 82.1592 149.374Z" fill="#636362"/>
<path d="M123.045 186.196C122.824 184.772 122.109 183.579 120.903 182.619C120.56 183.837 120.15 184.786 119.673 185.464C119.839 185.558 120.852 186.01 122.727 186.824C122.765 186.834 122.795 186.855 122.823 186.863C122.884 186.88 122.932 186.875 122.969 186.855C123.011 186.831 123.04 186.792 123.059 186.725C123.089 186.615 123.081 186.433 123.045 186.196ZM118.699 184.975C118.878 184.673 119.018 184.353 119.113 184.01C119.21 183.667 119.26 183.299 119.279 182.91C119.303 182.057 119.063 181.552 118.559 181.411C118.271 181.33 117.8 181.479 117.147 181.845C116.494 182.212 116.13 182.527 116.055 182.794C115.881 183.412 116.763 184.145 118.699 184.975ZM116.45 180.497C116.453 179.894 116.502 179.375 116.621 178.95C116.796 178.33 117.103 177.896 117.538 177.648C118.103 177.334 118.687 177.254 119.286 177.422C119.856 177.582 120.463 177.974 121.104 178.584C123.308 180.757 124.556 182.995 124.834 185.294C124.864 185.446 124.848 185.633 124.785 185.854C124.587 186.562 124.134 187.319 123.43 188.126C122.729 188.939 122.167 189.282 121.746 189.164C121.59 189.12 120.407 188.656 118.198 187.773C116.606 189.04 116.605 189.083 114.551 189.868C112.118 190.785 109.959 191.386 108.07 191.667C107.666 191.745 105.509 191.939 101.609 192.247C101 192.292 100.595 192.285 100.396 192.229C100.307 192.204 100.269 192.169 100.282 192.125C100.313 192.014 100.708 191.839 101.468 191.599L110.515 189.193C113.969 188.277 114.889 188.259 116.944 187.157C115.015 186.113 114.251 184.896 114.643 183.5C114.965 182.355 115.57 181.354 116.45 180.497Z" fill="#636362"/>
<path d="M207.107 143.555C209.373 143.555 211.823 143.171 214.457 142.394C214.964 142.251 215.298 142.182 215.453 142.182C215.521 142.182 215.557 142.198 215.557 142.221C215.557 142.314 215.28 142.602 214.728 143.084C212.433 145.148 209.483 146.179 205.875 146.179C204.749 146.179 203.834 145.884 203.12 145.298C202.408 144.711 202.051 143.97 202.051 143.073C202.051 140.68 203.075 138.173 205.117 135.551C203.328 135.027 202.431 134.085 202.431 132.722C202.431 131.578 203.15 130.197 204.581 128.58C206.02 126.977 207.17 126.166 208.044 126.166C208.274 126.166 208.51 126.356 208.752 126.724C208.993 127.092 209.114 127.482 209.114 127.897C209.114 128.082 208.872 128.523 208.39 129.214C207.992 129.783 207.727 130.077 207.635 130.077C207.625 130.077 207.595 130.065 207.595 130.043C207.411 129.323 207.015 128.961 206.393 128.961C206.07 128.961 205.674 129.237 205.203 129.789C204.73 130.342 204.494 130.807 204.494 131.169C205.069 132.119 206.047 132.584 207.422 132.584C207.883 132.584 208.608 132.164 209.597 131.313C210.166 130.79 210.753 130.249 211.351 129.697C211.403 129.658 211.449 129.634 211.49 129.634C211.604 129.634 211.662 129.824 211.662 130.18C211.662 131.239 211.271 132.308 210.494 133.389C207.475 135.431 205.236 137.788 203.77 140.457C203.5 140.963 203.361 141.41 203.361 141.802C203.362 142.969 204.61 143.555 207.107 143.555Z" fill="#636362"/>
<path d="M180.762 184.035C180.586 184.028 180.465 184 180.398 183.952C180.37 183.945 180.358 183.931 180.354 183.92C180.346 183.898 180.367 183.873 180.393 183.844C180.416 183.822 180.47 183.802 180.518 183.783C180.566 183.765 180.644 183.741 180.716 183.72C181.997 183.401 183.227 183.33 184.403 183.508C185.58 183.685 186.293 184.096 186.538 184.735C186.544 184.75 186.554 184.778 186.561 184.794C186.818 185.465 186.656 186.137 186.059 186.766C185.512 187.345 184.695 187.849 183.609 188.265C183.481 188.314 183.353 188.363 183.216 188.41C181.622 188.947 179.093 189.226 175.627 189.249C172.592 189.284 170.373 189.15 168.969 188.849C168.357 188.714 168.019 188.604 167.951 188.507C167.957 188.504 167.976 188.491 167.981 188.489C168.088 188.448 168.419 188.444 168.931 188.458C173.136 188.695 176.433 188.618 178.827 188.243C179.782 188.099 180.614 187.891 181.324 187.62C182.312 187.241 182.983 186.774 183.337 186.22C183.588 185.846 183.676 185.529 183.577 185.272C183.563 185.233 183.549 185.196 183.521 185.158C183.154 184.584 182.233 184.211 180.762 184.035Z" fill="#636362"/>
<path d="M99.4021 168.708C99.4712 168.546 99.5403 168.443 99.6095 168.397C99.6259 168.374 99.6433 168.368 99.6551 168.368C99.6786 168.368 99.6946 168.397 99.7124 168.431C99.7242 168.461 99.7242 168.518 99.7242 168.57C99.7242 168.621 99.7185 168.702 99.7124 168.777C99.5521 170.087 99.1778 171.261 98.5905 172.295C98.0042 173.33 97.3652 173.849 96.6806 173.849C96.6646 173.849 96.635 173.849 96.6171 173.849C95.8987 173.849 95.3288 173.457 94.9545 172.675C94.6098 171.957 94.4316 171.013 94.4316 169.852C94.4316 169.714 94.4316 169.576 94.4378 169.432C94.5069 167.752 95.1506 165.291 96.3698 162.048C97.4226 159.202 98.3432 157.178 99.1261 155.975C99.4707 155.453 99.6946 155.176 99.8093 155.147C99.8093 155.154 99.8154 155.176 99.8154 155.181C99.8154 155.296 99.7007 155.607 99.5046 156.079C97.779 159.92 96.6698 163.025 96.1634 165.395C95.9556 166.337 95.8526 167.188 95.8526 167.947C95.8526 169.006 96.0482 169.8 96.4385 170.328C96.6975 170.696 96.9627 170.892 97.2383 170.892C97.2792 170.892 97.3191 170.892 97.3647 170.88C98.0329 170.744 98.7119 170.018 99.4021 168.708Z" fill="#636362"/>
<path d="M104.777 134.85C104.846 134.688 104.915 134.585 104.985 134.539C105.001 134.515 105.019 134.51 105.031 134.51C105.054 134.51 105.07 134.539 105.088 134.573C105.1 134.603 105.1 134.66 105.1 134.711C105.1 134.763 105.094 134.844 105.088 134.919C104.927 136.229 104.553 137.402 103.966 138.437C103.38 139.472 102.741 139.99 102.056 139.99C102.039 139.99 102.01 139.99 101.992 139.99C101.274 139.99 100.704 139.599 100.33 138.817C99.9848 138.099 99.8066 137.155 99.8066 135.993C99.8066 135.855 99.8066 135.718 99.8128 135.574C99.8819 133.894 100.526 131.432 101.744 128.189C102.797 125.344 103.718 123.32 104.501 122.117C104.846 121.595 105.07 121.318 105.184 121.29C105.184 121.296 105.19 121.318 105.19 121.323C105.19 121.438 105.075 121.748 104.88 122.221C103.154 126.062 102.045 129.167 101.538 131.537C101.331 132.479 101.228 133.329 101.228 134.09C101.228 135.148 101.424 135.941 101.814 136.47C102.073 136.838 102.338 137.033 102.614 137.033C102.655 137.033 102.695 137.033 102.74 137.022C103.408 136.886 104.087 136.16 104.777 134.85Z" fill="#636362"/>
<path d="M103.48 54.4732C103.48 55.6465 103.002 56.9862 102.036 58.4759C101.047 60.0407 99.7756 61.3748 98.2104 62.479C97.5906 62.9161 97.2267 63.1343 97.112 63.1343C97.0899 63.1343 97.0781 63.1225 97.0781 63.1004C97.0781 63.0078 97.3433 62.675 97.8662 62.0992C100.437 59.2933 101.726 57.4182 101.726 56.4757C101.726 55.5779 101.312 55.1304 100.483 55.1304C100.03 55.1304 99.6158 55.2573 99.2476 55.5102C98.9707 55.6945 98.7986 55.7974 98.729 55.8195C98.6834 55.7734 98.626 55.7401 98.5569 55.7161C98.579 55.6254 98.626 55.3838 98.6951 54.9917C99.1089 53.0593 100.075 52.0933 101.587 52.0933C102.853 52.0923 103.48 52.8863 103.48 54.4732Z" fill="#636362"/>
<path d="M144.089 116.589C143.226 117.385 141.916 117.941 140.166 118.242C138.345 118.575 136.503 118.545 134.63 118.143C133.888 117.984 133.481 117.865 133.403 117.78C133.388 117.764 133.389 117.747 133.405 117.732C133.474 117.669 133.898 117.639 134.676 117.632C138.482 117.62 140.734 117.295 141.427 116.657C142.088 116.048 142.136 115.44 141.575 114.831C141.267 114.498 140.893 114.279 140.458 114.181C140.134 114.102 139.942 114.045 139.879 114.01C139.881 113.945 139.868 113.88 139.838 113.813C139.92 113.767 140.129 113.638 140.464 113.424C142.166 112.417 143.532 112.473 144.557 113.584C145.415 114.514 145.256 115.514 144.089 116.589Z" fill="#636362"/>
<path d="M194.954 153.929C194.954 155.102 194.476 156.442 193.51 157.931C192.521 159.496 191.25 160.83 189.685 161.935C189.065 162.372 188.701 162.59 188.586 162.59C188.564 162.59 188.553 162.578 188.553 162.556C188.553 162.463 188.817 162.131 189.34 161.555C191.911 158.749 193.2 156.874 193.2 155.931C193.2 155.033 192.785 154.586 191.957 154.586C191.503 154.586 191.089 154.713 190.721 154.966C190.444 155.15 190.272 155.253 190.203 155.275C190.157 155.229 190.1 155.196 190.03 155.172C190.052 155.08 190.1 154.839 190.169 154.447C190.583 152.515 191.549 151.549 193.061 151.549C194.327 151.548 194.954 152.342 194.954 153.929Z" fill="#636362"/>
<path d="M62.3387 142.822C62.0298 141.691 62.1384 140.272 62.6777 138.581C63.2199 136.811 64.0944 135.19 65.3137 133.713C65.7966 133.128 66.09 132.822 66.2009 132.792C66.2221 132.786 66.2367 132.794 66.2423 132.816C66.2668 132.905 66.0984 133.296 65.7462 133.988C64.0051 137.372 63.2566 139.521 63.5048 140.429C63.7413 141.295 64.2585 141.618 65.0584 141.4C65.4961 141.28 65.8619 141.049 66.1502 140.708C66.3688 140.458 66.5075 140.312 66.5686 140.273C66.6246 140.305 66.689 140.322 66.7619 140.327C66.7647 140.42 66.7826 140.666 66.8192 141.062C66.9293 143.035 66.2517 144.221 64.7932 144.619C63.5711 144.953 62.7567 144.353 62.3387 142.822Z" fill="#636362"/>
<path d="M81.8797 103.401C81.5708 102.269 81.6794 100.851 82.2188 99.1599C82.7609 97.3896 83.6355 95.7684 84.8547 94.2919C85.3376 93.7066 85.631 93.4006 85.742 93.3705C85.7631 93.3644 85.7777 93.3734 85.7833 93.3945C85.8078 93.4838 85.6399 93.8744 85.2873 94.5673C83.5461 97.9509 82.7976 100.1 83.0458 101.008C83.2823 101.874 83.7996 102.197 84.5994 101.978C85.0367 101.859 85.4025 101.628 85.6912 101.287C85.9098 101.036 86.0485 100.891 86.1096 100.852C86.1656 100.884 86.23 100.901 86.3029 100.906C86.3057 100.999 86.3236 101.245 86.3603 101.64C86.4703 103.614 85.7927 104.8 84.3342 105.198C83.1121 105.532 82.2977 104.932 81.8797 103.401Z" fill="#636362"/>
<path d="M153.591 190.946C153.281 189.815 153.391 188.396 153.93 186.705C154.472 184.935 155.347 183.314 156.565 181.837C157.048 181.252 157.341 180.946 157.453 180.916C157.474 180.91 157.488 180.919 157.494 180.94C157.519 181.029 157.351 181.42 156.998 182.113C155.257 185.496 154.508 187.645 154.756 188.553C154.993 189.42 155.51 189.742 156.31 189.524C156.747 189.404 157.114 189.173 157.402 188.832C157.62 188.582 157.759 188.437 157.821 188.397C157.877 188.429 157.941 188.446 158.014 188.451C158.016 188.545 158.035 188.79 158.071 189.186C158.181 191.159 157.504 192.346 156.044 192.743C154.823 193.077 154.009 192.477 153.591 190.946Z" fill="#636362"/>
<path d="M128.462 163.688C128.153 162.556 128.261 161.138 128.801 159.447C129.343 157.676 130.217 156.056 131.437 154.579C131.919 153.994 132.213 153.687 132.324 153.657C132.345 153.652 132.36 153.66 132.365 153.681C132.39 153.771 132.222 154.161 131.869 154.854C130.128 158.238 129.379 160.386 129.628 161.294C129.864 162.161 130.381 162.483 131.181 162.265C131.619 162.146 131.984 161.915 132.273 161.573C132.492 161.323 132.631 161.178 132.692 161.138C132.748 161.17 132.812 161.188 132.885 161.192C132.888 161.286 132.906 161.532 132.942 161.927C133.052 163.901 132.375 165.086 130.916 165.485C129.695 165.819 128.88 165.219 128.462 163.688Z" fill="#636362"/>
<path d="M212.417 115.654C212.108 114.523 212.216 113.104 212.756 111.413C213.298 109.643 214.173 108.022 215.391 106.545C215.874 105.96 216.168 105.654 216.278 105.624C216.3 105.618 216.314 105.627 216.321 105.648C216.345 105.737 216.176 106.128 215.824 106.821C214.083 110.204 213.334 112.353 213.583 113.261C213.819 114.127 214.336 114.45 215.136 114.232C215.574 114.112 215.939 113.881 216.228 113.54C216.446 113.29 216.585 113.145 216.647 113.105C216.702 113.137 216.767 113.154 216.839 113.159C216.842 113.253 216.86 113.498 216.897 113.894C217.007 115.867 216.33 117.054 214.871 117.451C213.649 117.785 212.835 117.185 212.417 115.654Z" fill="#636362"/>
<path d="M201.631 97.4532C201.04 98.4671 199.953 99.3842 198.369 100.186C196.727 101.042 194.958 101.555 193.049 101.723C192.294 101.79 191.869 101.795 191.77 101.737C191.751 101.727 191.747 101.71 191.758 101.691C191.805 101.611 192.2 101.456 192.943 101.222C196.576 100.089 198.633 99.1153 199.106 98.3007C199.558 97.5246 199.426 96.93 198.708 96.513C198.316 96.285 197.895 96.1868 197.449 96.2202C197.117 96.2399 196.917 96.2427 196.846 96.2272C196.829 96.1647 196.797 96.1064 196.749 96.0514C196.814 95.9832 196.976 95.7985 197.232 95.4948C198.562 94.032 199.883 93.6832 201.19 94.4433C202.286 95.0798 202.429 96.081 201.631 97.4532Z" fill="#636362"/>
<path d="M158.867 60.9578C158.55 61.465 158.302 61.7033 158.12 61.6732C157.99 61.6516 157.941 61.5214 157.98 61.2774C158.009 61.1073 158.074 60.8793 158.189 60.6015C158.403 60.0064 158.592 59.2214 158.752 58.2455C159.275 55.0683 158.017 51.6156 154.977 47.8706C154.866 47.73 154.819 47.5881 154.845 47.4353C154.862 47.3267 154.908 47.2177 154.997 47.1044L156.31 45.4671C156.369 45.3947 156.437 45.3712 156.511 45.3834C156.584 45.3952 156.663 45.4488 156.752 45.5395C159.836 48.7322 161.011 52.5844 160.27 57.0966C160.039 58.5036 159.571 59.7901 158.867 60.9578Z" fill="#636362"/>
<path d="M138.278 210.848C188.137 210.848 228.556 170.364 228.556 120.424C228.556 70.4842 188.137 30 138.278 30C88.4189 30 48 70.4842 48 120.424C48 170.364 88.4189 210.848 138.278 210.848Z" stroke="#BA9449" stroke-width="7" stroke-miterlimit="10" stroke-linecap="round" stroke-linejoin="round"/>
</svg>
