<svg width="277" height="241" viewBox="0 0 277 241" fill="none" xmlns="http://www.w3.org/2000/svg">
<line x1="140.412" y1="33.7982" x2="51.7982" y2="50.5882" stroke="#636362" stroke-width="6.5" stroke-linecap="round"/>
<line x1="225.604" y1="50.4086" x2="141.89" y2="69.4483" stroke="#636362" stroke-width="6.5" stroke-linecap="round"/>
<line x1="139.157" y1="69.5212" x2="51.4683" y2="51.3083" stroke="#636362" stroke-width="6.5" stroke-linecap="round"/>
<line x1="138.566" y1="96.7074" x2="55.3916" y2="79.5301" stroke="#BA9449" stroke-width="6.5" stroke-linecap="round"/>
<line x1="136.619" y1="115.199" x2="53.4444" y2="98.022" stroke="#BA9449" stroke-width="6.5" stroke-linecap="round"/>
<line x1="190.512" y1="126.261" x2="175.459" y2="129.461" stroke="#BA9449" stroke-width="6.5" stroke-linecap="round"/>
<line x1="102.542" y1="130.434" x2="87.4882" y2="127.234" stroke="#BA9449" stroke-width="6.5" stroke-linecap="round"/>
<line x1="165.208" y1="132.101" x2="150.154" y2="135.301" stroke="#BA9449" stroke-width="6.5" stroke-linecap="round"/>
<line x1="77.2371" y1="124.595" x2="62.1835" y2="121.395" stroke="#BA9449" stroke-width="6.5" stroke-linecap="round"/>
<line x1="216.792" y1="119.449" x2="201.738" y2="122.649" stroke="#BA9449" stroke-width="6.5" stroke-linecap="round"/>
<line x1="129.792" y1="135.301" x2="114.738" y2="132.101" stroke="#BA9449" stroke-width="6.5" stroke-linecap="round"/>
<line x1="222.609" y1="79.531" x2="144.3" y2="95.7328" stroke="#BA9449" stroke-width="6.5" stroke-linecap="round"/>
<line x1="222.609" y1="98.0229" x2="144.3" y2="114.225" stroke="#BA9449" stroke-width="6.5" stroke-linecap="round"/>
<line x1="139.539" y1="207.752" x2="51.5118" y2="190.509" stroke="#636362" stroke-width="6.5" stroke-linecap="round"/>
<line x1="225.481" y1="190.548" x2="140.826" y2="207.547" stroke="#636362" stroke-width="6.5" stroke-linecap="round"/>
<line x1="140.844" y1="72.127" x2="140.844" y2="207.723" stroke="#636362" stroke-width="6.5" stroke-linecap="round"/>
<line x1="51.25" y1="50.7153" x2="51.25" y2="190.205" stroke="#636362" stroke-width="6.5" stroke-linecap="round"/>
<line x1="226.25" y1="50.25" x2="226.25" y2="189.75" stroke="#636362" stroke-width="6.5" stroke-linecap="round"/>
<line x1="226.214" y1="49.6054" x2="140.605" y2="33.7864" stroke="#636362" stroke-width="6.5" stroke-linecap="round"/>
</svg>
