<svg width="263" height="279" viewBox="0 0 263 279" fill="none" xmlns="http://www.w3.org/2000/svg">
<g clip-path="url(#clip0_431_1020)">
<path d="M103.446 85.7687C102.892 86.3249 91.1042 98.7442 91.1042 122.483L91.1041 171.241L91.1043 171.247C91.3913 180.201 95.7872 188.513 103.008 193.783C97.355 198.676 92.9754 202.869 89.8836 206.348C86.8411 209.771 85.0229 212.526 84.487 214.591H40.2094H40.2091C38.9416 214.592 37.9159 215.622 37.9172 216.891L38.1172 216.891L37.9172 216.891C37.9189 218.156 38.9433 219.183 40.2092 219.185H243.124C244.391 219.183 245.417 218.154 245.416 216.886C245.414 215.618 244.389 214.592 243.124 214.59H243.124L103.589 85.909M103.446 85.7687C103.447 85.7684 103.447 85.768 103.447 85.7677L103.589 85.909M103.446 85.7687C103.446 85.7692 103.446 85.7696 103.445 85.7701L103.589 85.909M103.446 85.7687C103.745 85.4602 104.127 85.25 104.542 85.1611M103.589 85.909C103.87 85.6176 104.234 85.4226 104.628 85.3477C104.6 85.2856 104.571 85.2234 104.542 85.1611M104.542 85.1611C103.273 82.3904 102.393 79.4559 101.931 76.4422L101.93 76.4301L101.93 76.4301C101.918 76.3005 101.917 76.1702 101.928 76.0405M104.542 85.1611C104.61 85.1467 104.678 85.1354 104.747 85.1275C103.473 82.3591 102.591 79.4252 102.129 76.4119L101.928 76.0405M101.928 76.0405C101.684 74.3688 101.559 72.6813 101.553 70.9922L101.553 70.9915C101.553 55.6415 111.427 44.0205 124.581 44.0205C136.303 44.0205 145.381 53.2341 147.254 66.1014C147.304 66.341 147.306 66.5875 147.259 66.8276C147.437 68.208 147.53 69.5982 147.54 70.9902L147.54 70.9915C147.54 86.4587 137.64 99.2532 125.222 99.6499L131.124 104.012L131.128 104.014C131.596 104.376 131.907 104.901 132.004 105.483C133.667 115.384 136.4 131.242 136.981 133.712C137.51 134.482 138.019 135.114 138.491 135.575C138.974 136.046 139.4 136.321 139.758 136.404C140.007 136.457 140.39 136.391 140.917 136.169C141.437 135.949 142.065 135.592 142.787 135.106C144.228 134.136 146.019 132.671 148.022 130.835C152.026 127.163 156.861 122.021 161.422 116.419C161.829 115.917 162.427 115.609 163.071 115.567L163.082 115.567V115.567C163.724 115.562 164.343 115.8 164.819 116.231L164.826 116.238L164.826 116.238L164.888 116.3C167.375 112.57 170.18 108.85 172.883 106.295C174.259 104.994 175.619 103.985 176.906 103.434C178.197 102.881 179.436 102.78 180.541 103.334L180.541 103.334C181.097 103.613 181.595 103.996 182.008 104.461C184.248 102.693 186.369 101.544 188.266 101.059C190.21 100.563 191.933 100.761 193.298 101.723L193.301 101.724C194.027 102.254 194.897 103.195 195.245 104.801C195.592 106.404 195.414 108.644 194.098 111.768L194.098 111.768C192.681 115.095 189.584 118.7 186.336 121.86C183.176 124.936 179.853 127.609 177.742 129.22L177.816 129.294L177.817 129.295C178.622 130.111 178.708 131.393 178.023 132.311L178.019 132.315C177.993 132.348 177.952 132.401 177.897 132.472C176.993 133.633 172.234 139.744 165.732 146.077C162.28 149.439 158.334 152.867 154.209 155.651C150.139 158.399 145.884 160.528 141.749 161.343V166.88L101.928 76.0405ZM177.674 129.435C178.41 130.181 178.489 131.352 177.862 132.191C177.836 132.224 177.795 132.277 177.74 132.348C175.877 134.74 157.659 158.135 141.549 161.178V167.07C153.999 167.706 172.639 170.063 184.734 177.132C195.396 183.424 200.974 194.641 198.315 204.398L177.674 129.435ZM177.674 129.435L177.582 129.342L177.674 129.435ZM131.005 104.173C131.433 104.504 131.718 104.983 131.807 105.516C133.477 115.46 136.231 131.438 136.795 133.795C137.877 135.374 138.891 136.41 139.714 136.599C142.208 137.142 152.446 127.762 161.577 116.545C161.949 116.087 162.495 115.805 163.084 115.767C163.675 115.762 164.246 115.981 164.684 116.38L164.775 116.47L131.005 104.173ZM131.005 104.173L124.896 99.6575L131.005 104.173ZM136.971 161.778H136.97L136.97 161.778C132.429 161.485 128.363 159.126 124.819 155.757C121.274 152.388 118.237 147.995 115.752 143.602C110.782 134.817 108 125.999 107.774 125.276L107.771 125.266L107.769 125.255C107.556 124.18 108.123 123.101 109.13 122.669L109.209 122.853L109.13 122.669C110.307 122.164 111.67 122.71 112.174 123.889L112.178 123.898L112.181 123.908C113.577 128.409 116.766 136.547 121.162 143.655C123.36 147.209 125.855 150.498 128.572 152.946C131.29 155.394 134.216 156.988 137.278 157.185L137.28 157.185C137.92 157.23 138.563 157.23 139.203 157.185C142.431 156.899 145.882 155.481 149.32 153.414C152.756 151.347 156.166 148.64 159.309 145.794C165.492 140.196 170.628 134.073 172.888 131.264L163.389 121.728L163.388 121.728L163.097 121.436C159.956 125.196 155.393 130.366 150.859 134.461C148.558 136.539 146.258 138.347 144.149 139.553C142.05 140.754 140.1 141.382 138.516 141.035L138.503 141.032L138.491 141.027C136.09 140.151 134.077 138.449 132.809 136.225L132.782 136.179V136.126V135.983C132.774 135.936 132.771 135.888 132.774 135.84C129.178 129.855 126.368 123.43 124.415 116.726L124.414 116.725L124.414 116.724L124.41 116.714L124.41 116.714C124.03 115.504 124.7 114.213 125.909 113.832L125.911 113.831C127.126 113.461 128.413 114.139 128.795 115.351M136.971 161.778L128.605 115.412M136.971 161.778H136.983H137.171H136.971ZM128.795 115.351C128.795 115.351 128.795 115.352 128.796 115.352L128.605 115.412M128.795 115.351C128.795 115.351 128.795 115.351 128.795 115.35L128.605 115.412M128.795 115.351C128.897 115.664 129.001 115.986 129.106 116.314C129.112 116.331 129.118 116.349 129.123 116.366M128.605 115.412C128.707 115.724 128.81 116.046 128.915 116.373C129.054 116.804 129.196 117.245 129.341 117.687C129.27 117.255 129.198 116.815 129.123 116.366M129.123 116.366C129.258 116.785 129.396 117.212 129.536 117.639L128.44 166.928L128.44 166.728C127.173 166.726 126.145 167.754 126.144 169.022M129.123 116.366C128.815 114.507 128.474 112.499 128.103 110.305C127.933 109.304 127.757 108.264 127.574 107.183L105.396 90.5036C98.7677 99.8015 95.3357 111.006 95.6214 122.43L95.6215 122.435L95.6215 171.241C95.6215 176.01 97.6034 181.715 101.448 186.225C105.289 190.731 110.984 194.041 118.415 194.041H156.304H156.315L156.325 194.042C157.413 194.158 158.272 195.018 158.387 196.107L158.387 196.107C158.521 197.38 157.599 198.523 156.325 198.658L156.315 198.659H156.304H119.602L108.559 214.591L172.897 214.661C184.349 214.661 191.943 210.482 193.885 203.309C195.901 195.623 191.055 186.23 182.209 181.004L182.209 181.004C173.212 175.679 159.877 173.254 148.719 172.165C138.139 171.132 129.551 171.302 128.537 171.322C128.483 171.323 128.45 171.323 128.44 171.323H128.436H128.435C127.168 171.321 126.142 170.292 126.144 169.022M126.144 169.022L126.344 169.022L126.144 169.022C126.144 169.022 126.144 169.022 126.144 169.022ZM190.813 214.79H190.429C190.539 214.725 190.647 214.658 190.755 214.59H191.125C191.022 214.658 190.918 214.725 190.813 214.79ZM101.753 70.9915C101.759 72.6788 101.884 74.3647 102.129 76.0345L124.961 99.4564C137.351 99.2323 147.34 86.5007 147.34 70.9915C147.33 69.5965 147.236 68.2034 147.057 66.8202C147.105 66.5947 147.105 66.3622 147.057 66.1367C145.197 53.3408 136.184 44.2205 124.581 44.2205C111.566 44.2205 101.753 55.7209 101.753 70.9915ZM180.452 103.512C176.34 101.454 170.05 108.914 165.032 116.445L177.6 129.077C181.866 125.823 191.148 118.182 193.914 111.69C196.526 105.492 194.572 102.9 193.183 101.886C190.572 100.048 186.548 101.085 181.981 104.738C181.563 104.226 181.041 103.809 180.452 103.512ZM103.163 193.649C103.218 193.689 103.274 193.729 103.33 193.769C103.278 193.814 103.226 193.859 103.174 193.904L103.163 193.649ZM177.983 107.907C178.166 107.784 178.326 107.692 178.464 107.629C178.521 107.941 178.482 108.375 178.356 108.9C178.22 109.468 177.988 110.12 177.696 110.797C177.113 112.152 176.302 113.59 175.579 114.64L175.579 114.64L175.573 114.649C174.913 115.731 175.252 117.145 176.335 117.807C177.342 118.424 178.653 118.174 179.364 117.23L179.364 117.23L179.368 117.225C181 114.896 182.191 112.286 182.88 109.526C183.074 109.439 183.253 109.32 183.409 109.174C185.526 107.278 187.225 106.273 188.442 105.787C189.051 105.543 189.535 105.431 189.889 105.399C190.066 105.383 190.206 105.387 190.311 105.403C190.419 105.42 190.475 105.447 190.497 105.464L190.497 105.464C190.655 105.582 190.827 105.852 190.774 106.54C190.721 107.23 190.442 108.297 189.75 109.94L189.749 109.942C188.59 112.82 185.632 116.14 182.484 119.097C179.423 121.973 176.21 124.482 174.373 125.871L168.095 119.583C170.205 116.471 172.445 113.574 174.367 111.395C175.342 110.289 176.233 109.371 176.981 108.705C177.356 108.372 177.691 108.104 177.983 107.907ZM137.171 166.728V166.928C137.104 166.926 137.038 166.924 136.971 166.922V166.722C137.038 166.724 137.104 166.726 137.171 166.728ZM108.42 214.79L108.177 214.79L108.315 214.59L108.42 214.79ZM142.903 70.9442C142.903 77.5964 140.826 83.621 137.481 87.9783C134.135 92.3354 129.53 95.0171 124.462 95.0171C115.769 95.0171 108.426 87.0851 106.529 76.4118C110.008 71.5254 115.301 68.2413 121.222 67.3C128.424 66.2666 135.76 66.6853 142.797 68.5321C142.86 69.3093 142.903 70.1058 142.903 70.9442ZM114.23 198.259L102.965 214.59H89.1636C89.5982 213.814 90.3579 212.787 91.3756 211.575C92.5219 210.211 93.9854 208.624 95.6556 206.918C98.9695 203.532 103.092 199.682 107.151 196.173C109.401 197.2 111.784 197.903 114.23 198.259Z" fill="#636362" stroke="#636362" stroke-width="0.4"/>
<path d="M124.463 47.9861C133.007 47.9861 139.855 54.2787 142.208 63.4452C135.091 61.7609 127.717 61.4563 120.486 62.5494C114.97 63.4578 109.863 66.0314 105.848 69.9256C106.082 57.4125 113.99 47.9861 124.463 47.9861Z" fill="#B39853"/>
</g>
<defs>
<clipPath id="clip0_431_1020">
<rect width="263" height="279" fill="white"/>
</clipPath>
</defs>
</svg>
